<svg width="254" height="131" viewBox="0 0 254 131" fill="none" xmlns="http://www.w3.org/2000/svg">
<g id="Award 5" filter="url(#filter0_d_9_10)">
<g id="Group 1">
<path id="Rectangle 36" d="M55.8531 21.9702L55.8531 71.4998L11.4695 71.4998L24.4951 46.735L1.6772 21.9702L55.8531 21.9702Z" fill="#2B63A6"/>
<path id="Rectangle 37" d="M187.362 21.9702L187.362 71.4998L231.745 71.4998L218.72 46.735L241.538 21.9702L187.362 21.9702Z" fill="#2B63A6"/>
<path id="Rectangle 34" d="M42.9883 31.2918L55.8532 21.9702V83.0782H42.9883V31.2918Z" fill="#2D4071"/>
<path id="Rectangle 38" d="M200.227 31.2918L187.362 21.9702V83.0782H200.227V31.2918Z" fill="#2D4071"/>
<path id="Rectangle 25" d="M70.9932 31.25L70.9932 87.8822L40.9852 87.8822C40.9852 87.8822 37.2317 87.8822 37.2317 59.5661C37.2317 31.25 40.9852 31.25 40.9852 31.25L70.9932 31.25Z" fill="#418ED6"/>
<path id="Rectangle 26" d="M171.189 31.25L171.189 87.8822L202.165 87.8822C202.165 87.8822 206.039 87.8822 206.039 59.5661C206.039 31.25 202.165 31.25 202.165 31.25L171.189 31.25Z" fill="#418ED6"/>
</g>
<circle id="Ellipse 1" cx="121.819" cy="59.7818" r="58.9476" fill="url(#paint0_linear_9_10)"/>
<circle id="Ellipse 2" cx="121.607" cy="59.9215" r="46.9566" fill="url(#paint1_linear_9_10)"/>
<g id="Mask Group">
<mask id="mask0_9_10" style="mask-type:alpha" maskUnits="userSpaceOnUse" x="83" y="23" width="82" height="82">
<circle id="Ellipse 4" cx="123.708" cy="64.0181" r="40.3205" fill="#7D7D7D"/>
</mask>
<g mask="url(#mask0_9_10)">
<circle id="Ellipse 3" cx="121.561" cy="59.7238" r="40.3205" fill="#9CA1A3"/>
</g>
</g>
<path id="Ellipse 3_2" d="M121.607 103.589C146.061 103.589 165.918 83.9126 165.918 59.5999C165.918 35.2873 146.061 15.6108 121.607 15.6108C97.1533 15.6108 77.2965 35.2873 77.2965 59.5999C77.2965 83.9126 97.1533 103.589 121.607 103.589Z" fill="#616161" stroke="#9F9F9F" stroke-width="5"/>
<g id="Mask Group_2">
<mask id="mask1_9_10" style="mask-type:alpha" maskUnits="userSpaceOnUse" x="82" y="21" width="84" height="85">
<circle id="Ellipse 4_2" cx="123.888" cy="63.7652" r="41.8265" fill="#C28B37"/>
</mask>
<g mask="url(#mask1_9_10)">
<circle id="Ellipse 3_3" cx="121.66" cy="59.3102" r="41.8265" fill="url(#paint2_linear_9_10)"/>
</g>
</g>
<g id="Vector">
<path d="M122.382 28.9147L131.816 47.7832L150.684 50.1417L137.728 64.6704L141.25 85.52L122.382 76.0858L103.513 85.52L107.067 64.6704L94.079 50.1417L112.947 47.7832L122.382 28.9147Z" fill="url(#paint3_linear_9_10)"/>
<path d="M123.276 28.4675L122.382 26.6787L121.487 28.4675L112.292 46.8573L93.9549 49.1494L92.0621 49.386L93.3334 50.8082L106 64.9775L102.527 85.352L102.196 87.2966L103.96 86.4144L122.382 77.2038L140.803 86.4144L142.564 87.295L142.236 85.3534L138.794 64.9775L151.431 50.8073L152.698 49.3857L150.808 49.1494L132.471 46.8573L123.276 28.4675Z" stroke="#353535" stroke-opacity="0.2" stroke-width="2"/>
</g>
</g>
<defs>
<filter id="filter0_d_9_10" x="0.893687" y="0.0506697" width="252.396" height="130.431" filterUnits="userSpaceOnUse" color-interpolation-filters="sRGB">
<feFlood flood-opacity="0" result="BackgroundImageFix"/>
<feColorMatrix in="SourceAlpha" type="matrix" values="0 0 0 0 0 0 0 0 0 0 0 0 0 0 0 0 0 0 127 0" result="hardAlpha"/>
<feOffset dx="5.48449" dy="5.48449"/>
<feGaussianBlur stdDeviation="3.13399"/>
<feComposite in2="hardAlpha" operator="out"/>
<feColorMatrix type="matrix" values="0 0 0 0 0 0 0 0 0 0 0 0 0 0 0 0 0 0 0.3 0"/>
<feBlend mode="normal" in2="BackgroundImageFix" result="effect1_dropShadow_9_10"/>
<feBlend mode="normal" in="SourceGraphic" in2="effect1_dropShadow_9_10" result="shape"/>
</filter>
<linearGradient id="paint0_linear_9_10" x1="121.819" y1="0.834167" x2="121.819" y2="118.729" gradientUnits="userSpaceOnUse">
<stop stop-color="white"/>
<stop offset="1" stop-color="#B1B1B1"/>
</linearGradient>
<linearGradient id="paint1_linear_9_10" x1="121.607" y1="12.9649" x2="121.607" y2="106.878" gradientUnits="userSpaceOnUse">
<stop stop-color="#898989"/>
<stop offset="1" stop-color="#5F5F5F"/>
</linearGradient>
<linearGradient id="paint2_linear_9_10" x1="121.66" y1="17.4838" x2="121.66" y2="101.137" gradientUnits="userSpaceOnUse">
<stop stop-color="#7D7D7D"/>
<stop offset="1" stop-color="#474747"/>
</linearGradient>
<linearGradient id="paint3_linear_9_10" x1="122.382" y1="47.1037" x2="122.382" y2="83.1109" gradientUnits="userSpaceOnUse">
<stop stop-color="white"/>
<stop offset="1" stop-color="#DDE1E1"/>
</linearGradient>
</defs>
</svg>
