<svg width="133" height="219" viewBox="0 0 133 219" fill="none" xmlns="http://www.w3.org/2000/svg">
<g id="Medal Purple" filter="url(#filter0_d_3_150)">
<rect id="Rectangle 24" x="55.2108" y="77.5419" width="12.5167" height="21.3248" rx="6.25836" fill="#C09525"/>
<path id="Rectangle 23" d="M113.159 76.7777C113.159 80.5506 110.1 83.6092 106.327 83.6092L17.0749 83.6092C13.3019 83.6092 10.2433 80.5506 10.2433 76.7777L10.2433 63.0894C10.2433 59.3164 13.3019 56.2579 17.0749 56.2579L22.7518 56.2579L22.7518 70.6289L100.65 70.6289L100.65 56.2579L106.327 56.2579C110.1 56.2579 113.159 59.3165 113.159 63.0894L113.159 76.7777Z" fill="#836600"/>
<path id="Rectangle 25" d="M113.159 75.0553C113.159 78.8283 110.1 81.8868 106.327 81.8868L17.0749 81.8868C13.3019 81.8868 10.2433 78.8282 10.2433 75.0553L10.2433 61.367C10.2433 57.5941 13.3019 54.5355 17.0749 54.5355L22.7518 54.5355L22.7518 68.9065L100.65 68.9065L100.65 54.5355L106.327 54.5355C110.1 54.5355 113.159 57.5941 113.159 61.367L113.159 75.0553Z" fill="#F4CC3F"/>
<path id="Rectangle 22" d="M100.642 69.2172L22.7603 69.2172L22.7603 1.29892L61.7012 1.29893L100.642 1.29893L100.642 69.2172Z" fill="#AA75CB"/>
<g id="Mask Group">
<path id="Rectangle 21" d="M76.6077 69.2172L46.7944 69.2172L46.7944 1.29893L76.6077 1.29893L76.6077 69.2172Z" fill="#73488D"/>
<path id="Rectangle 22_2" opacity="0.5" d="M100.71 10.7723L22.3392 10.7723L22.3392 1.29895L100.71 1.29896L100.71 10.7723Z" fill="url(#paint0_linear_3_150)"/>
<path id="Rectangle 23_2" d="M23.2004 64.1678H100.71V69.3351H23.2004L23.2004 64.1678Z" fill="url(#paint1_linear_3_150)"/>
</g>
<path id="Star 1" d="M58.0542 91.267C60.0453 89.557 62.9867 89.557 64.9779 91.267L71.8693 97.1855C73.1503 98.2856 74.8778 98.7114 76.5232 98.3326L85.3758 96.2946C87.9335 95.7058 90.538 97.0727 91.5064 99.5122L94.858 107.955C95.4809 109.525 96.8127 110.705 98.4457 111.134L107.231 113.443C109.77 114.111 111.441 116.531 111.164 119.141L110.208 128.175C110.031 129.854 110.662 131.518 111.908 132.657L118.614 138.785C120.552 140.555 120.906 143.475 119.449 145.658L114.404 153.212C113.466 154.616 113.252 156.383 113.826 157.971L116.916 166.513C117.809 168.981 116.766 171.731 114.461 172.987L106.484 177.332C105.001 178.139 103.99 179.603 103.761 181.276L102.527 190.276C102.171 192.876 99.969 194.827 97.3447 194.867L88.2616 195.007C86.5734 195.033 84.9979 195.86 84.0175 197.235L78.7427 204.63C77.2187 206.767 74.3627 207.471 72.0202 206.287L63.9126 202.19C62.4057 201.429 60.6264 201.429 59.1195 202.19L51.0119 206.287C48.6694 207.471 45.8134 206.767 44.2894 204.63L39.0146 197.235C38.0342 195.86 36.4587 195.033 34.7705 195.007L25.6874 194.867C23.0631 194.827 20.8614 192.876 20.505 190.276L19.2714 181.276C19.0421 179.603 18.0314 178.139 16.5486 177.332L8.5709 172.987C6.26594 171.731 5.22291 168.981 6.11574 166.513L9.2059 157.971C9.78027 156.383 9.56581 154.616 8.62815 153.212L3.58346 145.658C2.12591 143.475 2.48046 140.555 4.41801 138.785L11.1241 132.657C12.3705 131.518 13.0014 129.854 12.8237 128.175L11.8677 119.141C11.5915 116.531 13.2624 114.111 15.8008 113.443L24.5864 111.134C26.2194 110.705 27.5512 109.525 28.1741 107.955L31.5257 99.5122C32.4941 97.0727 35.0986 95.7058 37.6563 96.2946L46.5089 98.3326C48.1543 98.7114 49.8818 98.2856 51.1628 97.1855L58.0542 91.267Z" fill="url(#paint2_linear_3_150)"/>
<circle id="Ellipse 2" cx="61.469" cy="148.902" r="42.8814" fill="#705100"/>
<g id="Mask Group_2">
<mask id="mask0_3_150" style="mask-type:alpha" maskUnits="userSpaceOnUse" x="20" y="110" width="87" height="87">
<circle id="Ellipse 4" cx="63.7579" cy="153.479" r="42.9812" fill="#C28B37"/>
</mask>
<g mask="url(#mask0_3_150)">
<circle id="Ellipse 3" cx="61.4688" cy="148.902" r="42.9812" fill="#E3A504"/>
</g>
</g>
<ellipse id="Ellipse 11" cx="62.6828" cy="151.047" rx="33.7615" ry="34.306" fill="#A36D1D"/>
<circle id="Ellipse 8" opacity="0.8" cx="62.6828" cy="150.503" r="31.5833" fill="url(#paint3_linear_3_150)"/>
<ellipse id="Ellipse 9" cx="63.2274" cy="150.503" rx="17.9698" ry="18.5144" fill="#B5760C"/>
<circle id="Ellipse 10" opacity="0.8" cx="63.2273" cy="149.958" r="16.8807" fill="url(#paint4_linear_3_150)"/>
</g>
<defs>
<filter id="filter0_d_3_150" x="1.90522" y="0.515422" width="130.191" height="218.096" filterUnits="userSpaceOnUse" color-interpolation-filters="sRGB">
<feFlood flood-opacity="0" result="BackgroundImageFix"/>
<feColorMatrix in="SourceAlpha" type="matrix" values="0 0 0 0 0 0 0 0 0 0 0 0 0 0 0 0 0 0 127 0" result="hardAlpha"/>
<feOffset dx="5.48449" dy="5.48449"/>
<feGaussianBlur stdDeviation="3.13399"/>
<feComposite in2="hardAlpha" operator="out"/>
<feColorMatrix type="matrix" values="0 0 0 0 0 0 0 0 0 0 0 0 0 0 0 0 0 0 0.3 0"/>
<feBlend mode="normal" in2="BackgroundImageFix" result="effect1_dropShadow_3_150"/>
<feBlend mode="normal" in="SourceGraphic" in2="effect1_dropShadow_3_150" result="shape"/>
</filter>
<linearGradient id="paint0_linear_3_150" x1="61.5246" y1="10.7723" x2="61.5246" y2="1.29896" gradientUnits="userSpaceOnUse">
<stop stop-color="#73488D" stop-opacity="0"/>
<stop offset="1" stop-color="#73488D" stop-opacity="0.48"/>
</linearGradient>
<linearGradient id="paint1_linear_3_150" x1="61.9552" y1="64.1678" x2="61.9552" y2="69.3351" gradientUnits="userSpaceOnUse">
<stop stop-color="#73488D" stop-opacity="0"/>
<stop offset="1" stop-color="#73488D" stop-opacity="0.48"/>
</linearGradient>
<linearGradient id="paint2_linear_3_150" x1="61.516" y1="88.2939" x2="61.516" y2="210.116" gradientUnits="userSpaceOnUse">
<stop stop-color="#FFD951"/>
<stop offset="1" stop-color="#A96500"/>
</linearGradient>
<linearGradient id="paint3_linear_3_150" x1="62.6828" y1="118.92" x2="62.6828" y2="182.086" gradientUnits="userSpaceOnUse">
<stop stop-color="#D79B00"/>
<stop offset="1" stop-color="#FFDD64"/>
</linearGradient>
<linearGradient id="paint4_linear_3_150" x1="63.2273" y1="133.078" x2="63.2273" y2="166.839" gradientUnits="userSpaceOnUse">
<stop offset="0.0001" stop-color="#FFDA95"/>
<stop offset="0.0002" stop-color="#FFE2A9"/>
<stop offset="1" stop-color="#E6D224"/>
</linearGradient>
</defs>
</svg>
