<svg width="124" height="222" viewBox="0 0 124 222" fill="none" xmlns="http://www.w3.org/2000/svg">
<g id="Medal Red" filter="url(#filter0_d_10_21)">
<path id="Rectangle 26" d="M5.25073 8.1304C5.25073 4.35744 8.30932 1.29886 12.0823 1.29886H101.334C105.107 1.29886 108.166 4.35745 108.166 8.13041V21.8187C108.166 25.5916 105.107 28.6502 101.334 28.6502H95.6575V14.2792H17.7592V28.6502H12.0823C8.30932 28.6502 5.25073 25.5916 5.25073 21.8187V8.1304Z" fill="#FFEEB0"/>
<path id="Rectangle 23" d="M5.25073 9.85284C5.25073 6.07988 8.30932 3.0213 12.0823 3.0213H101.334C105.107 3.0213 108.166 6.07989 108.166 9.85285V23.5411C108.166 27.3141 105.107 30.3727 101.334 30.3727H95.6575V16.0016H17.7592V30.3727H12.0823C8.30932 30.3727 5.25073 27.3141 5.25073 23.5411V9.85284Z" fill="#F4CC3F"/>
<path id="Rectangle 22" d="M17.7675 15.8418H95.6493V70.9967L56.7084 98.3182L17.7675 70.9967V15.8418Z" fill="#CE4444"/>
<g id="Mask Group">
<mask id="mask0_10_21" style="mask-type:alpha" maskUnits="userSpaceOnUse" x="17" y="15" width="79" height="84">
<path id="Rectangle 20" d="M17.7854 15.8418H95.6312V71.0058L56.7083 98.3182L17.7854 71.0058V15.8418Z" fill="#AF3B3B"/>
</mask>
<g mask="url(#mask0_10_21)">
<rect id="Rectangle 21" x="41.8016" y="-16.8963" width="29.8133" height="115.214" fill="#983535"/>
</g>
</g>
<rect id="Rectangle 24" x="50.2181" y="83.8596" width="12.5167" height="21.3248" rx="6.25836" fill="#C09525"/>
<circle id="Ellipse 1" cx="56.4765" cy="155.148" r="54.9345" fill="url(#paint0_linear_10_21)"/>
<circle id="Ellipse 2" cx="56.4766" cy="155.148" r="42.8814" fill="#705100"/>
<g id="Mask Group_2">
<mask id="mask1_10_21" style="mask-type:alpha" maskUnits="userSpaceOnUse" x="16" y="117" width="87" height="87">
<circle id="Ellipse 4" cx="59.0725" cy="160.037" r="42.9812" fill="#C28B37"/>
</mask>
<g mask="url(#mask1_10_21)">
<circle id="Ellipse 3" cx="56.4766" cy="155.148" r="42.9812" fill="#F5B307"/>
</g>
</g>
<circle id="Ellipse 7" cx="57.0568" cy="155.457" r="35.3099" fill="#C18222"/>
<g id="Vector">
<path d="M57.0567 127.037L65.3818 143.974L82.032 146.091L70.5989 159.133L73.7069 177.848L57.0567 169.38L40.4065 177.848L43.5423 159.133L32.0814 146.091L48.7316 143.974L57.0567 127.037Z" fill="url(#paint1_linear_10_21)"/>
<path d="M57.5054 126.816L57.0567 125.903L56.608 126.816L48.4016 143.512L32.0184 145.595L31.0843 145.714L31.7058 146.421L43.0099 159.284L39.9134 177.766L39.7496 178.744L40.6332 178.294L57.0567 169.941L73.4802 178.294L74.3623 178.743L74.2001 177.767L71.1309 159.284L82.408 146.421L83.0278 145.714L82.0951 145.595L65.7118 143.512L57.5054 126.816Z" stroke="#A36D1D" stroke-opacity="0.2"/>
</g>
<path id="Rectangle 25" opacity="0.5" d="M95.8115 50.3882L17.4407 50.3882L17.4407 15.9396L95.8115 15.9396L95.8115 50.3882Z" fill="url(#paint2_linear_10_21)"/>
</g>
<defs>
<filter id="filter0_d_10_21" x="0.758494" y="0.515361" width="122.405" height="221.32" filterUnits="userSpaceOnUse" color-interpolation-filters="sRGB">
<feFlood flood-opacity="0" result="BackgroundImageFix"/>
<feColorMatrix in="SourceAlpha" type="matrix" values="0 0 0 0 0 0 0 0 0 0 0 0 0 0 0 0 0 0 127 0" result="hardAlpha"/>
<feOffset dx="5.48449" dy="5.48449"/>
<feGaussianBlur stdDeviation="3.13399"/>
<feComposite in2="hardAlpha" operator="out"/>
<feColorMatrix type="matrix" values="0 0 0 0 0 0 0 0 0 0 0 0 0 0 0 0 0 0 0.3 0"/>
<feBlend mode="normal" in2="BackgroundImageFix" result="effect1_dropShadow_10_21"/>
<feBlend mode="normal" in="SourceGraphic" in2="effect1_dropShadow_10_21" result="shape"/>
</filter>
<linearGradient id="paint0_linear_10_21" x1="56.4765" y1="100.214" x2="56.4765" y2="210.083" gradientUnits="userSpaceOnUse">
<stop stop-color="#E7CD73"/>
<stop offset="1" stop-color="#EA8C00"/>
</linearGradient>
<linearGradient id="paint1_linear_10_21" x1="57.0567" y1="127.037" x2="57.0567" y2="177.848" gradientUnits="userSpaceOnUse">
<stop stop-color="white"/>
<stop offset="0.0001" stop-color="#FFFFFD"/>
<stop offset="1" stop-color="#FFE86D"/>
</linearGradient>
<linearGradient id="paint2_linear_10_21" x1="56.6261" y1="50.3882" x2="56.6261" y2="15.9396" gradientUnits="userSpaceOnUse">
<stop stop-color="#A21D1D" stop-opacity="0"/>
<stop offset="1" stop-color="#5A1414"/>
</linearGradient>
</defs>
</svg>
