<svg width="40" height="43" viewBox="0 0 40 43" fill="none" xmlns="http://www.w3.org/2000/svg">
<g filter="url(#filter0_d_2_253)">
<circle cx="19.8431" cy="19.8431" r="19.8431" fill="#FFF635"/>
<circle cx="19.8431" cy="19.8431" r="18.3431" stroke="white" stroke-width="3"/>
</g>
<path d="M17.5964 9.59558L17.5963 9.5956L9.59075 17.657C9.59058 17.6572 9.59042 17.6574 9.59025 17.6575C8.89969 18.3495 8.51959 19.2738 8.51959 20.2553V20.3287C8.51959 21.3075 8.89755 22.2305 9.58489 22.9223L17.5948 30.9871C17.5948 30.9871 17.5948 30.9871 17.5949 30.9872C18.2834 31.6828 19.2034 32.0686 20.1816 32.0686C21.1578 32.0686 22.0781 31.6835 22.7623 30.9933C23.4521 30.2998 23.8347 29.3756 23.8347 28.3941C23.8347 27.4146 23.4547 26.4916 22.7655 25.7964L22.7653 25.7961L20.9869 24.0046H29.3289C31.3478 24.0046 32.9706 22.3296 32.9706 20.2921V20.2921C32.9703 18.256 31.3475 16.5809 29.3287 16.5809H20.9849L22.7645 14.7884C22.7646 14.7884 22.7646 14.7884 22.7646 14.7883C23.4536 14.0963 23.8345 13.1714 23.8345 12.192C23.8345 11.2128 23.4537 10.2881 22.7651 9.59568C21.3408 8.16084 19.0212 8.16099 17.5964 9.59558Z" fill="white" stroke="#FFC90C"/>
<defs>
<filter id="filter0_d_2_253" x="0" y="0" width="39.6863" height="42.6863" filterUnits="userSpaceOnUse" color-interpolation-filters="sRGB">
<feFlood flood-opacity="0" result="BackgroundImageFix"/>
<feColorMatrix in="SourceAlpha" type="matrix" values="0 0 0 0 0 0 0 0 0 0 0 0 0 0 0 0 0 0 127 0" result="hardAlpha"/>
<feOffset dy="3"/>
<feComposite in2="hardAlpha" operator="out"/>
<feColorMatrix type="matrix" values="0 0 0 0 1 0 0 0 0 0.801083 0 0 0 0 0.0958334 0 0 0 1 0"/>
<feBlend mode="normal" in2="BackgroundImageFix" result="effect1_dropShadow_2_253"/>
<feBlend mode="normal" in="SourceGraphic" in2="effect1_dropShadow_2_253" result="shape"/>
</filter>
</defs>
</svg>
