<svg width="31" height="31" viewBox="0 0 31 31" fill="none" xmlns="http://www.w3.org/2000/svg">
<g id="Group" filter="url(#filter0_d_1_159)">
<g id="Group_2">
<g id="Group_3">
<path id="Vector" d="M2.34229 27.7165C2.34229 28.4224 2.91984 28.9999 3.62574 28.9999H26.792C27.53 28.9999 28.0755 28.4224 28.0755 27.7165V14.0798H2.34229V27.7165Z" fill="white"/>
<path id="Vector_2" d="M29.1985 5.6733H25.5727C25.9257 4.87114 25.9899 3.94064 25.7653 3.07431C25.4123 1.6946 24.3855 0.603671 23.0058 0.18655C21.6582 -0.230571 20.1823 0.0582049 19.0913 0.988706L15.241 4.2615L11.3906 0.988706C10.2997 0.0582049 8.82372 -0.230571 7.4761 0.18655C6.12847 0.603671 5.10171 1.6946 4.71668 3.07431C4.49208 3.97273 4.58833 4.87114 4.9092 5.6733H1.28345C0.577552 5.6733 0 6.25085 0 6.95675V10.3579C0 11.0638 0.577552 11.6413 1.28345 11.6413H29.1664C29.8723 11.6413 30.4499 11.0638 30.4499 10.3579V6.98884C30.4819 6.28294 29.9044 5.6733 29.1985 5.6733ZM20.7919 2.94597C21.209 2.59302 21.7224 2.49676 22.2358 2.65719C22.7492 2.81762 23.1021 3.20266 23.2625 3.71604C23.3909 4.16524 23.2946 4.64654 23.0058 5.03157C22.7171 5.41661 22.2679 5.60913 21.8186 5.60913H17.6795L20.7919 2.94597ZM7.25149 3.71604C7.37984 3.20266 7.76487 2.81762 8.27825 2.65719C8.43868 2.59302 8.59911 2.59302 8.75955 2.59302C9.11249 2.59302 9.46544 2.72136 9.72213 2.94597L12.8666 5.60913H8.72746C8.24617 5.60913 7.82904 5.38452 7.54027 5.03157C7.21941 4.67863 7.12315 4.19733 7.25149 3.71604Z" fill="white"/>
</g>
</g>
</g>
<defs>
<filter id="filter0_d_1_159" x="0" y="0" width="30.4512" height="30.9999" filterUnits="userSpaceOnUse" color-interpolation-filters="sRGB">
<feFlood flood-opacity="0" result="BackgroundImageFix"/>
<feColorMatrix in="SourceAlpha" type="matrix" values="0 0 0 0 0 0 0 0 0 0 0 0 0 0 0 0 0 0 127 0" result="hardAlpha"/>
<feOffset dy="2"/>
<feComposite in2="hardAlpha" operator="out"/>
<feColorMatrix type="matrix" values="0 0 0 0 0 0 0 0 0 0 0 0 0 0 0 0 0 0 0.15 0"/>
<feBlend mode="normal" in2="BackgroundImageFix" result="effect1_dropShadow_1_159"/>
<feBlend mode="normal" in="SourceGraphic" in2="effect1_dropShadow_1_159" result="shape"/>
</filter>
</defs>
</svg>
