<svg width="16" height="17" viewBox="0 0 16 17" fill="none" xmlns="http://www.w3.org/2000/svg">
<path d="M10.8643 1.58645L8.54707 1.12122L8.41312 1.78469C6.25302 2.55801 4.39922 4.86187 3.80003 7.8435C3.20085 10.8251 4.02417 13.663 5.71635 15.2132L5.5833 15.8776L7.90502 16.3428C10.9876 16.9625 14.1505 14.1604 14.9693 10.0858C15.7882 6.01113 13.9469 2.20528 10.8643 1.58645Z" fill="#E86124"/>
<path d="M8.33811 14.1666L6.02085 13.6969L6.1539 13.0334C4.67157 11.6752 3.85718 9.3303 4.07953 6.76569C3.96605 7.11938 3.87273 7.47923 3.80003 7.8435C3.20085 10.826 4.02417 13.663 5.71635 15.2132L5.5833 15.8776L7.90502 16.3428C10.9876 16.9625 14.1505 14.1604 14.9693 10.0858C15.0404 9.72269 15.0917 9.35603 15.1229 8.9874C14.0094 12.4611 11.1411 14.7256 8.33811 14.1666Z" fill="#DC4A26"/>
<path d="M12.6465 9.6215C13.4652 5.54645 11.6297 1.74087 8.54686 1.12149C5.46399 0.502117 2.30112 3.30349 1.48241 7.37853C0.663698 11.4536 2.49916 15.2592 5.58204 15.8785C8.66491 16.4979 11.8278 13.6965 12.6465 9.6215Z" fill="#F0E92D"/>
<path d="M11.1039 9.31154C11.6964 6.3626 10.3682 3.60867 8.13724 3.16045C5.90631 2.71224 3.6175 4.73948 3.02503 7.68842C2.43256 10.6374 3.76079 13.3913 5.99172 13.8395C8.22265 14.2877 10.5115 12.2605 11.1039 9.31154Z" fill="#EF8521"/>
<path d="M7.00759 12.4128C4.7573 11.961 3.19907 9.88036 3.07851 7.44434C3.05946 7.5247 3.0416 7.60596 3.02494 7.68812C2.4329 10.6349 3.76164 13.3906 5.99228 13.8389C7.42818 14.1273 8.88729 13.3924 9.90349 12.0413C9.00385 12.4754 7.98765 12.6057 7.00759 12.4128Z" fill="#E86124"/>
</svg>
