<svg width="40" height="31" viewBox="0 0 40 31" fill="none" xmlns="http://www.w3.org/2000/svg">
<g filter="url(#filter0_d_4_14)">
<path d="M26.5392 19.1029V16.6923H25.8482C24.6382 14.6881 21.9651 13.2952 18.8629 13.2952C15.7607 13.2952 13.0869 14.6881 11.8768 16.6923H11.1859V19.1029C11.1859 22.3113 14.6229 24.9113 18.8629 24.9113C23.1029 24.9113 26.5392 22.315 26.5392 19.1029Z" fill="#E86124"/>
<path d="M13.4541 19.1029V16.6923H14.1451C15.2054 14.9366 17.3896 13.6506 19.997 13.3579C19.6204 13.316 19.2418 13.2951 18.8629 13.2952C15.76 13.2952 13.0869 14.6881 11.8768 16.6923H11.1859V19.1029C11.1859 22.3113 14.6229 24.9113 18.8629 24.9113C19.2418 24.9116 19.6205 24.8904 19.997 24.8479C16.2946 24.4335 13.4541 22.02 13.4541 19.1029Z" fill="#DC4A26"/>
<path d="M18.8629 22.5008C23.1028 22.5008 26.5399 19.9003 26.5399 16.6924C26.5399 13.4845 23.1028 10.8839 18.8629 10.8839C14.623 10.8839 11.1859 13.4845 11.1859 16.6924C11.1859 19.9003 14.623 22.5008 18.8629 22.5008Z" fill="#F0E92D"/>
<path d="M18.863 20.8956C21.9312 20.8956 24.4185 19.0137 24.4185 16.6924C24.4185 14.3711 21.9312 12.4893 18.863 12.4893C15.7948 12.4893 13.3075 14.3711 13.3075 16.6924C13.3075 19.0137 15.7948 20.8956 18.863 20.8956Z" fill="#EF8521"/>
<path d="M14.9373 17.4209C14.9373 15.0797 16.707 13.1071 19.1168 12.4936C19.0327 12.4936 18.9479 12.4885 18.8631 12.4885C15.7941 12.4885 13.3069 14.3703 13.3069 16.6916C13.3069 18.1856 14.3392 19.4937 15.8878 20.2422C15.2741 19.4293 14.9406 18.4394 14.9373 17.4209Z" fill="#E86124"/>
<path d="M25.7286 15.6128V13.2015H25.0377C23.8269 11.1973 21.1546 9.80433 18.0516 9.80433C14.9487 9.80433 12.2764 11.1973 11.0656 13.2015H10.3746V15.6128C10.3746 18.8204 13.8116 21.4212 18.0516 21.4212C22.2916 21.4212 25.7286 18.8204 25.7286 15.6128Z" fill="#E86124"/>
<path d="M12.6436 15.6128V13.2015H13.3345C14.3942 11.4465 16.5791 10.1605 19.1857 9.86775C18.8092 9.82561 18.4306 9.80444 18.0516 9.80433C14.9487 9.80433 12.2764 11.1973 11.0656 13.2015H10.3746V15.6128C10.3746 18.8204 13.8116 21.4212 18.0516 21.4212C18.4306 21.4211 18.8092 21.3999 19.1857 21.3578C15.484 20.9434 12.6436 18.5292 12.6436 15.6128Z" fill="#DC4A26"/>
<path d="M18.0516 19.01C22.2915 19.01 25.7286 16.4095 25.7286 13.2015C25.7286 9.99363 22.2915 7.3931 18.0516 7.3931C13.8117 7.3931 10.3746 9.99363 10.3746 13.2015C10.3746 16.4095 13.8117 19.01 18.0516 19.01Z" fill="#F0E92D"/>
<path d="M18.0517 17.4047C21.12 17.4047 23.6073 15.5229 23.6073 13.2016C23.6073 10.8802 21.12 8.99843 18.0517 8.99843C14.9835 8.99843 12.4962 10.8802 12.4962 13.2016C12.4962 15.5229 14.9835 17.4047 18.0517 17.4047Z" fill="#EF8521"/>
<path d="M14.1266 13.9309C14.1266 11.5896 15.8963 9.61711 18.3061 9.0036C18.2213 9.0036 18.1373 8.99843 18.0517 8.99843C14.9834 8.99843 12.4962 10.8803 12.4962 13.2016C12.4962 14.6955 13.5286 16.0037 15.0771 16.7521C14.4629 15.9395 14.1294 14.9494 14.1266 13.9309V13.9309Z" fill="#E86124"/>
<path d="M26.5392 12.0896V9.67832H25.8482C24.6382 7.67409 21.9651 6.28115 18.8629 6.28115C15.7607 6.28115 13.0869 7.67409 11.8768 9.67832H11.1859V12.0896C11.1859 15.2973 14.6229 17.8973 18.8629 17.8973C23.1029 17.8973 26.5392 15.2973 26.5392 12.0896Z" fill="#E86124"/>
<path d="M13.4541 12.0896V9.67833H14.1451C15.2054 7.92259 17.3896 6.63658 19.997 6.34457C19.6205 6.30208 19.2418 6.28091 18.8629 6.28115C15.76 6.28115 13.0869 7.67409 11.8768 9.67833H11.1859V12.0896C11.1859 15.2973 14.6229 17.8973 18.8629 17.8973C19.2418 17.8974 19.6204 17.8765 19.997 17.8346C16.2946 17.4195 13.4541 15.0053 13.4541 12.0896Z" fill="#DC4A26"/>
<path d="M18.8629 15.4867C23.1028 15.4867 26.5399 12.8862 26.5399 9.67824C26.5399 6.47032 23.1028 3.86979 18.8629 3.86979C14.623 3.86979 11.1859 6.47032 11.1859 9.67824C11.1859 12.8862 14.623 15.4867 18.8629 15.4867Z" fill="#F0E92D"/>
<path d="M18.863 13.8814C21.9312 13.8814 24.4185 11.9996 24.4185 9.67826C24.4185 7.35693 21.9312 5.47512 18.863 5.47512C15.7948 5.47512 13.3075 7.35693 13.3075 9.67826C13.3075 11.9996 15.7948 13.8814 18.863 13.8814Z" fill="#EF8521"/>
<path d="M14.9373 10.4068C14.9373 8.06632 16.707 6.09305 19.1168 5.47954C19.0327 5.47954 18.9479 5.47512 18.8631 5.47512C15.7941 5.47512 13.3069 7.35695 13.3069 9.67826C13.3069 11.1722 14.3392 12.4804 15.8878 13.2288C15.274 12.4157 14.9405 11.4255 14.9373 10.4068V10.4068Z" fill="#E86124"/>
<path d="M25.7286 8.59944V6.18816H25.0377C23.8269 4.18392 21.1546 2.79099 18.0516 2.79099C14.9487 2.79099 12.2764 4.18392 11.0656 6.18816H10.3746V8.59944C10.3746 11.8071 13.8116 14.4071 18.0516 14.4071C22.2916 14.4071 25.7286 11.8071 25.7286 8.59944Z" fill="#E86124"/>
<path d="M12.6436 8.59944V6.18816H13.3345C14.3942 4.43243 16.5791 3.14642 19.1857 2.85367C18.8092 2.81178 18.4305 2.79085 18.0516 2.79099C14.9487 2.79099 12.2764 4.18393 11.0656 6.18816H10.3746V8.59944C10.3746 11.8071 13.8116 14.4071 18.0516 14.4071C18.4306 14.4074 18.8092 14.3862 19.1857 14.3437C15.484 13.9293 12.6436 11.5151 12.6436 8.59944Z" fill="#DC4A26"/>
<path d="M18.0516 11.9966C22.2915 11.9966 25.7286 9.39612 25.7286 6.1882C25.7286 2.98029 22.2915 0.379761 18.0516 0.379761C13.8117 0.379761 10.3746 2.98029 10.3746 6.1882C10.3746 9.39612 13.8117 11.9966 18.0516 11.9966Z" fill="#F0E92D"/>
<path d="M18.0517 10.3914C21.12 10.3914 23.6073 8.50956 23.6073 6.18823C23.6073 3.8669 21.12 1.98509 18.0517 1.98509C14.9835 1.98509 12.4962 3.8669 12.4962 6.18823C12.4962 8.50956 14.9835 10.3914 18.0517 10.3914Z" fill="#EF8521"/>
<path d="M14.1266 6.9167C14.1266 4.57548 15.8963 2.60295 18.3061 1.98944C18.2213 1.98944 18.1373 1.98428 18.0517 1.98428C14.9834 1.98428 12.4962 3.86611 12.4962 6.18742C12.4962 7.68138 13.5286 8.98952 15.0771 9.73797C14.4632 8.92526 14.1296 7.93523 14.1266 6.9167V6.9167Z" fill="#E86124"/>
<path d="M39.7723 20.2156V17.8043H39.0814C37.8706 15.8001 35.1983 14.4071 32.0953 14.4071C28.9924 14.4071 26.3193 15.8001 25.1093 17.8043H24.4183V20.2156C24.4183 23.4232 27.8553 26.024 32.0953 26.024C36.3353 26.024 39.7723 23.421 39.7723 20.2156Z" fill="#E86124"/>
<path d="M26.6866 20.2156V17.8043H27.3775C28.4379 16.0493 30.622 14.7625 33.2294 14.4705C32.8529 14.4281 32.4743 14.4069 32.0953 14.4071C28.9924 14.4071 26.3193 15.8001 25.1093 17.8043H24.4183V20.2156C24.4183 23.4232 27.8553 26.024 32.0953 26.024C32.4743 26.0239 32.8529 26.0027 33.2294 25.9606C29.5277 25.5454 26.6866 23.132 26.6866 20.2156Z" fill="#DC4A26"/>
<path d="M32.0953 23.6128C36.3352 23.6128 39.7723 21.0123 39.7723 17.8043C39.7723 14.5964 36.3352 11.9959 32.0953 11.9959C27.8554 11.9959 24.4183 14.5964 24.4183 17.8043C24.4183 21.0123 27.8554 23.6128 32.0953 23.6128Z" fill="#F0E92D"/>
<path d="M32.0956 22.0075C35.1638 22.0075 37.6511 20.1257 37.6511 17.8044C37.6511 15.483 35.1638 13.6012 32.0956 13.6012C29.0273 13.6012 26.54 15.483 26.54 17.8044C26.54 20.1257 29.0273 22.0075 32.0956 22.0075Z" fill="#EF8521"/>
<path d="M28.1697 18.5329C28.1697 16.1924 29.9394 14.2192 32.3492 13.6056C32.2652 13.6056 32.1804 13.6012 32.0956 13.6012C29.0273 13.6012 26.5393 15.483 26.5393 17.8044C26.5393 19.2983 27.5717 20.6065 29.1202 21.3549C28.5063 20.5419 28.1728 19.5517 28.1697 18.5329Z" fill="#E86124"/>
<path d="M38.6008 16.1998V13.7885H37.9099C36.6998 11.7843 34.0268 10.3914 30.9238 10.3914C27.8209 10.3914 25.1486 11.7843 23.9385 13.7885H23.2476V16.1998C23.2476 19.4075 26.6845 22.0075 30.9238 22.0075C35.1631 22.0075 38.6008 19.4075 38.6008 16.1998Z" fill="#E86124"/>
<path d="M25.5158 16.1998V13.7885H26.2045C27.2649 12.0328 29.449 10.7468 32.0565 10.4541C31.6804 10.4122 31.3022 10.3913 30.9238 10.3914C27.8216 10.3914 25.1486 11.7843 23.9385 13.7885H23.2476V16.1998C23.2476 19.4075 26.6845 22.0075 30.9238 22.0075C31.303 22.0077 31.6818 21.9867 32.0587 21.9448C28.3562 21.5297 25.5158 19.1155 25.5158 16.1998Z" fill="#DC4A26"/>
<path d="M30.9237 19.5969C35.1636 19.5969 38.6007 16.9964 38.6007 13.7885C38.6007 10.5805 35.1636 7.98001 30.9237 7.98001C26.6838 7.98001 23.2467 10.5805 23.2467 13.7885C23.2467 16.9964 26.6838 19.5969 30.9237 19.5969Z" fill="#F0E92D"/>
<path d="M30.9237 17.9916C33.9919 17.9916 36.4792 16.1098 36.4792 13.7885C36.4792 11.4671 33.9919 9.58534 30.9237 9.58534C27.8555 9.58534 25.3682 11.4671 25.3682 13.7885C25.3682 16.1098 27.8555 17.9916 30.9237 17.9916Z" fill="#EF8521"/>
<path d="M26.9985 14.517C26.9985 12.1765 28.7683 10.2033 31.1781 9.58976C31.094 9.58681 31.0092 9.58534 30.9237 9.58534C27.8554 9.58534 25.3682 11.4672 25.3682 13.7885C25.3682 15.2824 26.4005 16.5906 27.949 17.339C27.3352 16.526 27.0017 15.5357 26.9985 14.517V14.517Z" fill="#E86124"/>
<path d="M16.3913 15.6703L14.5943 14.0628L14.1334 14.579C11.8327 14.1446 9.01294 15.2087 6.94455 17.5212C4.87617 19.8336 4.13214 22.7574 4.82012 24.9924L4.35925 25.5086L6.15628 27.1161C8.54765 29.2546 12.7773 28.4265 15.6038 25.266C18.4302 22.1055 18.7827 17.8088 16.3913 15.6703Z" fill="#E86124"/>
<path d="M7.66794 25.4238L5.87091 23.8163L6.33178 23.3001C5.73007 21.3394 6.2256 18.8558 7.74758 16.7159C7.46492 16.9692 7.19682 17.2383 6.94456 17.5219C4.87986 19.8351 4.13214 22.7574 4.81939 24.9939L4.35852 25.5101L6.15555 27.1176C8.54691 29.256 12.7766 28.4279 15.603 25.2675C15.8557 24.9861 16.0923 24.6907 16.3117 24.3826C13.5346 26.8595 9.84177 27.3683 7.66794 25.4238Z" fill="#DC4A26"/>
<path d="M13.8052 23.6577C16.6317 20.4975 16.9848 16.2019 14.5938 14.0633C12.2027 11.9247 7.97299 12.7529 5.14641 15.9132C2.31983 19.0734 1.96677 23.369 4.35782 25.5076C6.74888 27.6462 10.9786 26.8179 13.8052 23.6577Z" fill="#F0E92D"/>
<path d="M12.6088 22.5875C14.6542 20.3006 14.9098 17.1922 13.1796 15.6446C11.4493 14.0971 8.38853 14.6965 6.34306 16.9834C4.29759 19.2703 4.04203 22.3788 5.77226 23.9263C7.50248 25.4739 10.5633 24.8745 12.6088 22.5875Z" fill="#EF8521"/>
<path d="M7.4008 23.1999C5.65612 21.6395 5.36338 19.007 6.51592 16.8C6.45742 16.8605 6.39991 16.9224 6.34337 16.9858C4.29785 19.2718 4.04197 22.3813 5.77263 23.9291C6.8861 24.9254 8.55113 25.0308 10.1417 24.3716C9.12518 24.2885 8.16321 23.8773 7.4008 23.1999Z" fill="#E86124"/>
</g>
<defs>
<filter id="filter0_d_4_14" x="2.77209" y="0.379761" width="37.0002" height="29.9255" filterUnits="userSpaceOnUse" color-interpolation-filters="sRGB">
<feFlood flood-opacity="0" result="BackgroundImageFix"/>
<feColorMatrix in="SourceAlpha" type="matrix" values="0 0 0 0 0 0 0 0 0 0 0 0 0 0 0 0 0 0 127 0" result="hardAlpha"/>
<feOffset dy="2"/>
<feComposite in2="hardAlpha" operator="out"/>
<feColorMatrix type="matrix" values="0 0 0 0 0 0 0 0 0 0 0 0 0 0 0 0 0 0 0.15 0"/>
<feBlend mode="normal" in2="BackgroundImageFix" result="effect1_dropShadow_4_14"/>
<feBlend mode="normal" in="SourceGraphic" in2="effect1_dropShadow_4_14" result="shape"/>
</filter>
</defs>
</svg>
