<svg width="91" height="41" viewBox="0 0 91 41" fill="none" xmlns="http://www.w3.org/2000/svg">
<g filter="url(#filter0_d_3_396)">
<rect x="2" y="2" width="86.0417" height="35" rx="8" fill="#4EC407"/>
<rect x="1" y="1" width="88.0417" height="37" rx="9" stroke="white" stroke-width="2"/>
</g>
<rect x="2" y="2" width="86.0417" height="31.3542" rx="8" fill="#67EB00"/>
<path opacity="0.5" fill-rule="evenodd" clip-rule="evenodd" d="M32.7917 2H10C5.58172 2 2 5.58172 2 10V25.3542C2 29.7724 5.58171 33.3542 9.99999 33.3542H60.0135L32.7917 2Z" fill="#A6F208"/>
<g filter="url(#filter1_d_3_396)">
<path d="M14.416 18.2C14.416 22.2 16.096 23.032 18.784 23.032C19.44 23.032 19.968 22.984 20.624 22.856L20.288 20.328L18.816 20.44C18.16 20.472 17.744 20.104 17.744 18.2C17.744 16.296 18.224 15.944 18.816 15.976L20.288 16.072L20.64 13.56C19.984 13.416 19.472 13.288 18.816 13.288C16.112 13.288 14.416 14.44 14.416 18.2ZM21.6966 18.2C21.6966 21.912 23.0886 23.096 26.1446 23.096C28.4006 22.984 29.8246 21.352 29.8246 18.2C29.8246 14.504 28.3846 13.288 25.3446 13.288C23.0886 13.4 21.6966 15.064 21.6966 18.2ZM25.0246 18.2C25.0246 16.296 25.2966 16.088 25.7286 16.088C26.1606 16.088 26.4806 16.296 26.4806 18.2C26.4806 20.104 26.2086 20.312 25.7766 20.312C25.3446 20.312 25.0246 20.104 25.0246 18.2ZM31.2973 18.2C31.2973 19.8 31.3293 21.336 31.3613 22.84C31.3613 22.936 31.4253 23 31.5213 23C32.0333 23.032 32.5293 23.048 33.0733 23.048C33.6013 23.048 33.8893 23.032 34.4013 23L34.3373 18.76L36.0013 22.84C36.0333 22.936 36.0813 23 36.1773 23C36.6893 23.032 37.1533 23.048 37.6333 23.048C38.1613 23.048 38.4333 23.032 38.8813 23C38.9133 21.4 38.9453 19.8 38.9453 18.2C38.9453 16.6 38.9133 15.064 38.8813 13.56C38.8813 13.48 38.8013 13.416 38.7213 13.4C38.2413 13.384 37.7773 13.368 37.2333 13.368C36.7053 13.368 36.3373 13.384 35.8413 13.4L35.8893 17.656L34.2413 13.56C34.1933 13.48 34.1453 13.416 34.0653 13.4C33.5533 13.384 33.1373 13.368 32.6733 13.368C32.1453 13.368 31.8573 13.384 31.3613 13.4C31.3133 15 31.2973 16.6 31.2973 18.2ZM40.2381 14.616C40.2381 15.048 40.2381 15.48 40.2541 15.928C40.2541 16.024 40.3181 16.088 40.4141 16.088C40.6861 16.104 41.4541 16.12 42.1741 16.136C42.1741 16.808 42.1741 17.464 42.1741 18.2C42.1741 19.8 42.2061 21.336 42.2381 22.84C42.2381 22.936 42.3021 23 42.3981 23C42.9261 23.032 43.4861 23.048 44.0301 23.048C44.5581 23.048 44.9261 23.032 45.4381 23C45.4701 21.4 45.5021 19.8 45.5021 18.2C45.5021 17.464 45.4861 16.808 45.4701 16.152C46.3021 16.152 47.1501 16.136 47.4221 16.12C47.4221 15.72 47.4221 15.32 47.4221 14.936C47.4221 14.472 47.4221 14.024 47.4221 13.56C47.4061 13.48 47.3421 13.4 47.2621 13.4C46.7181 13.384 44.4941 13.368 43.9501 13.368C43.4221 13.368 40.7501 13.384 40.2541 13.4C40.2381 13.832 40.2381 14.232 40.2381 14.616ZM48.7335 18.2C48.7335 19.8 48.7655 21.336 48.7975 22.84C48.7975 22.936 48.8615 23 48.9575 23C49.4855 23.032 50.0455 23.048 50.5895 23.048C51.1175 23.048 51.4855 23.032 51.9975 23C52.0295 21.4 52.0615 19.8 52.0615 18.2C52.0615 16.6 52.0295 15.064 51.9975 13.56C51.9975 13.48 51.9175 13.4 51.8375 13.4C51.2935 13.384 50.7335 13.368 50.1895 13.368C49.6615 13.368 49.2935 13.384 48.7975 13.4C48.7495 15 48.7335 16.6 48.7335 18.2ZM53.8579 18.2C53.8579 19.8 53.8899 21.336 53.9219 22.84C53.9219 22.936 53.9859 23 54.0819 23C54.5939 23.032 55.0899 23.048 55.6339 23.048C56.1619 23.048 56.4499 23.032 56.9619 23L56.8979 18.76L58.5619 22.84C58.5939 22.936 58.6419 23 58.7379 23C59.2499 23.032 59.7139 23.048 60.1939 23.048C60.7219 23.048 60.9939 23.032 61.4419 23C61.4739 21.4 61.5059 19.8 61.5059 18.2C61.5059 16.6 61.4739 15.064 61.4419 13.56C61.4419 13.48 61.3619 13.416 61.2819 13.4C60.8019 13.384 60.3379 13.368 59.7939 13.368C59.2659 13.368 58.8979 13.384 58.4019 13.4L58.4499 17.656L56.8019 13.56C56.7539 13.48 56.7059 13.416 56.6259 13.4C56.1139 13.384 55.6979 13.368 55.2339 13.368C54.7059 13.368 54.4179 13.384 53.9219 13.4C53.8739 15 53.8579 16.6 53.8579 18.2ZM62.9908 18.264C62.9908 22.296 64.4308 23.16 67.3268 23.16C69.5828 23.048 70.8948 21.736 70.8948 18.264C70.8948 16.664 70.8628 15.064 70.8308 13.56C70.8308 13.48 70.7508 13.4 70.6708 13.4C70.1268 13.384 69.5668 13.368 69.0228 13.368C68.4948 13.368 68.1268 13.384 67.6308 13.4C67.5828 15 67.5668 17.144 67.5668 18.744C67.5668 20.168 67.3908 20.376 66.9588 20.376C66.5268 20.376 66.3188 20.168 66.3188 18.744C66.3188 17.144 66.2868 15.064 66.2548 13.56C66.2548 13.48 66.1748 13.4 66.0948 13.4C65.5508 13.384 64.9908 13.368 64.4468 13.368C63.9188 13.368 63.5508 13.384 63.0548 13.4C63.0068 15 62.9908 16.664 62.9908 18.264ZM72.3879 18.2C72.3879 19.8 72.4199 21.336 72.4519 22.84C72.4519 22.936 72.5159 23 72.6119 23C73.1399 23.032 75.4599 23.08 76.0039 23.08C76.5319 23.08 78.2439 23.064 78.7559 23.032C78.7559 22.632 78.7559 22.248 78.7559 21.864C78.7559 21.416 78.7559 20.968 78.7559 20.472C78.7399 20.392 78.6759 20.312 78.5959 20.312C78.0519 20.296 76.3079 20.28 75.7639 20.28H75.5559C75.5559 20.008 75.5559 19.736 75.5559 19.448H77.6359C77.6359 19.064 77.6359 18.728 77.6359 18.392C77.6359 18.008 77.6359 17.624 77.6359 17.176C77.6199 17.096 77.5559 17.016 77.4759 17.016C77.0599 17.016 76.1959 17 75.5559 17C75.5559 16.712 75.5559 16.424 75.5559 16.152C75.8279 16.152 76.0519 16.152 76.1799 16.152C76.7079 16.152 78.2119 16.152 78.7239 16.12C78.7239 15.72 78.7239 15.336 78.7239 14.952C78.7239 14.504 78.7239 14.056 78.7239 13.56C78.7079 13.48 78.6439 13.4 78.5639 13.4C78.0199 13.384 76.3079 13.368 75.7639 13.368C75.2359 13.368 72.9479 13.384 72.4519 13.4C72.4039 15 72.3879 16.6 72.3879 18.2Z" fill="white"/>
</g>
<defs>
<filter id="filter0_d_3_396" x="0" y="0" width="90.0416" height="41" filterUnits="userSpaceOnUse" color-interpolation-filters="sRGB">
<feFlood flood-opacity="0" result="BackgroundImageFix"/>
<feColorMatrix in="SourceAlpha" type="matrix" values="0 0 0 0 0 0 0 0 0 0 0 0 0 0 0 0 0 0 127 0" result="hardAlpha"/>
<feOffset dy="2"/>
<feComposite in2="hardAlpha" operator="out"/>
<feColorMatrix type="matrix" values="0 0 0 0 0 0 0 0 0 0 0 0 0 0 0 0 0 0 0.15 0"/>
<feBlend mode="normal" in2="BackgroundImageFix" result="effect1_dropShadow_3_396"/>
<feBlend mode="normal" in="SourceGraphic" in2="effect1_dropShadow_3_396" result="shape"/>
</filter>
<filter id="filter1_d_3_396" x="14.416" y="13.288" width="64.3398" height="10.872" filterUnits="userSpaceOnUse" color-interpolation-filters="sRGB">
<feFlood flood-opacity="0" result="BackgroundImageFix"/>
<feColorMatrix in="SourceAlpha" type="matrix" values="0 0 0 0 0 0 0 0 0 0 0 0 0 0 0 0 0 0 127 0" result="hardAlpha"/>
<feOffset dy="1"/>
<feComposite in2="hardAlpha" operator="out"/>
<feColorMatrix type="matrix" values="0 0 0 0 0 0 0 0 0 0 0 0 0 0 0 0 0 0 0.15 0"/>
<feBlend mode="normal" in2="BackgroundImageFix" result="effect1_dropShadow_3_396"/>
<feBlend mode="normal" in="SourceGraphic" in2="effect1_dropShadow_3_396" result="shape"/>
</filter>
</defs>
</svg>
