<svg width="49" height="52" viewBox="0 0 49 52" fill="none" xmlns="http://www.w3.org/2000/svg">
<path d="M9.80678 2.37973H44.0284C46.2376 2.37973 48.0284 4.17059 48.0284 6.37973V47.3797C48.0284 49.5889 46.2376 51.3797 44.0284 51.3797H9.80678C6.22616 51.3797 4.44929 47.036 7.00335 44.5265L22.0596 29.7329C23.6551 28.1653 23.6551 25.5941 22.0596 24.0265L7.00335 9.23294C4.44929 6.72344 6.22616 2.37973 9.80678 2.37973Z" fill="#B30D78"/>
<path d="M9.80678 0.37973H44.0284C46.2376 0.37973 48.0284 2.17059 48.0284 4.37973V45.3797C48.0284 47.5889 46.2376 49.3797 44.0284 49.3797H9.80678C6.22616 49.3797 4.44929 45.036 7.00335 42.5265L22.0596 27.7329C23.6551 26.1653 23.6551 23.5941 22.0596 22.0265L7.00335 7.23294C4.44929 4.72344 6.22616 0.37973 9.80678 0.37973Z" fill="url(#paint0_linear_4_62)"/>
<defs>
<linearGradient id="paint0_linear_4_62" x1="24.0284" y1="0.37973" x2="24.0284" y2="49.3797" gradientUnits="userSpaceOnUse">
<stop stop-color="#FE56E1"/>
<stop offset="1" stop-color="#D81091"/>
</linearGradient>
</defs>
</svg>
