<svg width="40" height="43" viewBox="0 0 40 43" fill="none" xmlns="http://www.w3.org/2000/svg">
<g filter="url(#filter0_d_2_233)">
<circle cx="20" cy="20" r="20" fill="#FF60D2"/>
<circle cx="20" cy="20" r="18.5" stroke="white" stroke-width="3"/>
</g>
<path d="M27.3643 17.3371H14.6357C12.8984 17.3371 11.5 18.7703 11.5 20.5139C11.5 22.2585 12.8989 23.6892 14.6357 23.6892H27.3643C29.1011 23.6892 30.5 22.2585 30.5 20.5139C30.5 18.7703 29.1016 17.3371 27.3643 17.3371Z" fill="white" stroke="#FF29C3"/>
<path d="M21.9676 30.6805V30.5277C23.2347 30.1176 24.1493 28.9154 24.1493 27.5043V27.5043C24.1491 26.0721 23.2066 24.857 21.9102 24.465V24.3293H21.4102H21.0137H15.0594H14.6357C12.8988 24.3293 11.5 25.7606 11.5 27.5043C11.5 29.249 12.8987 30.6805 14.6357 30.6805H15.1161H21.0137H21.4676H21.9676Z" fill="white" stroke="#FF29C3"/>
<path d="M17.9749 16.7034H14.6364C12.8996 16.7034 11.5008 15.2721 11.501 13.5281L17.9749 16.7034ZM17.9749 16.7034H21.4682M17.9749 16.7034H21.4682M21.4682 16.7034H23.8727M21.4682 16.7034H23.8727M23.8727 16.7034C25.6093 16.7034 27.0073 15.2718 27.0073 13.5281M23.8727 16.7034L27.0073 13.5281M27.0073 13.5281C27.0073 11.784 25.6094 10.3524 23.8727 10.3524M27.0073 13.5281L23.8727 10.3524M23.8727 10.3524H21.411M23.8727 10.3524H21.411M21.411 10.3524H17.9182M21.411 10.3524H17.9182M17.9182 10.3524H14.6366M17.9182 10.3524H14.6366M14.6366 10.3524C12.8997 10.3524 11.501 11.7838 11.501 13.5281L14.6366 10.3524Z" fill="white" stroke="#FF29C3"/>
<defs>
<filter id="filter0_d_2_233" x="0" y="0" width="40" height="43" filterUnits="userSpaceOnUse" color-interpolation-filters="sRGB">
<feFlood flood-opacity="0" result="BackgroundImageFix"/>
<feColorMatrix in="SourceAlpha" type="matrix" values="0 0 0 0 0 0 0 0 0 0 0 0 0 0 0 0 0 0 127 0" result="hardAlpha"/>
<feOffset dy="3"/>
<feComposite in2="hardAlpha" operator="out"/>
<feColorMatrix type="matrix" values="0 0 0 0 1 0 0 0 0 0.1625 0 0 0 0 0.762972 0 0 0 1 0"/>
<feBlend mode="normal" in2="BackgroundImageFix" result="effect1_dropShadow_2_233"/>
<feBlend mode="normal" in="SourceGraphic" in2="effect1_dropShadow_2_233" result="shape"/>
</filter>
</defs>
</svg>
