<svg width="91" height="41" viewBox="0 0 91 41" fill="none" xmlns="http://www.w3.org/2000/svg">
<g filter="url(#filter0_d_3_388)">
<rect x="2" y="2" width="86.0417" height="35" rx="8" fill="#4EC407"/>
<rect x="1" y="1" width="88.0417" height="37" rx="9" stroke="white" stroke-width="2"/>
</g>
<rect x="2" y="2" width="86.0417" height="31.3542" rx="8" fill="#67EB00"/>
<path opacity="0.5" fill-rule="evenodd" clip-rule="evenodd" d="M32.7917 2H10C5.58172 2 2 5.58172 2 10V25.3542C2 29.7724 5.58171 33.3542 9.99999 33.3542H60.0135L32.7917 2Z" fill="#A6F208"/>
<g filter="url(#filter1_d_3_388)">
<path d="M25.874 17.3C25.874 19.2 25.912 21.024 25.95 22.81C25.95 22.924 26.026 23 26.14 23C26.748 23.038 27.337 23.057 27.983 23.057C28.61 23.057 28.952 23.038 29.56 23L29.484 17.965L31.46 22.81C31.498 22.924 31.555 23 31.669 23C32.277 23.038 32.828 23.057 33.398 23.057C34.025 23.057 34.348 23.038 34.88 23C34.918 21.1 34.956 19.2 34.956 17.3C34.956 15.4 34.918 13.576 34.88 11.79C34.88 11.695 34.785 11.619 34.69 11.6C34.12 11.581 33.569 11.562 32.923 11.562C32.296 11.562 31.859 11.581 31.27 11.6L31.327 16.654L29.37 11.79C29.313 11.695 29.256 11.619 29.161 11.6C28.553 11.581 28.059 11.562 27.508 11.562C26.881 11.562 26.539 11.581 25.95 11.6C25.893 13.5 25.874 15.4 25.874 17.3ZM37.0803 17.3C37.0803 19.2 37.1183 21.024 37.1563 22.81C37.1563 22.924 37.2323 23 37.3463 23C37.9733 23.038 40.7283 23.095 41.3743 23.095C42.0013 23.095 44.0343 23.076 44.6423 23.038C44.6423 22.563 44.6423 22.107 44.6423 21.651C44.6423 21.119 44.6423 20.587 44.6423 19.998C44.6233 19.903 44.5473 19.808 44.4523 19.808C43.8063 19.789 41.7353 19.77 41.0893 19.77H40.8423C40.8423 19.447 40.8423 19.124 40.8423 18.782H43.3123C43.3123 18.326 43.3123 17.927 43.3123 17.528C43.3123 17.072 43.3123 16.616 43.3123 16.084C43.2933 15.989 43.2173 15.894 43.1223 15.894C42.6283 15.894 41.6023 15.875 40.8423 15.875C40.8423 15.533 40.8423 15.191 40.8423 14.868C41.1653 14.868 41.4313 14.868 41.5833 14.868C42.2103 14.868 43.9963 14.868 44.6043 14.83C44.6043 14.355 44.6043 13.899 44.6043 13.443C44.6043 12.911 44.6043 12.379 44.6043 11.79C44.5853 11.695 44.5093 11.6 44.4143 11.6C43.7683 11.581 41.7353 11.562 41.0893 11.562C40.4623 11.562 37.7453 11.581 37.1563 11.6C37.0993 13.5 37.0803 15.4 37.0803 17.3ZM45.9552 23C46.5822 23.076 47.2472 23.114 47.9312 23.114C48.4442 23.114 48.9572 23.095 49.4702 23.057C49.5652 23.057 49.7172 22.981 49.7552 22.867C50.1162 21.784 50.4962 20.302 50.8192 19.029C51.1422 20.302 51.5222 21.784 51.8832 22.867C51.9212 22.981 52.0732 23.057 52.1682 23.057C52.6812 23.095 53.1942 23.114 53.7072 23.114C54.3722 23.114 55.0562 23.076 55.6832 23C55.2652 21.328 54.6192 17.87 52.8332 16.768V16.749C54.0682 16.426 55.3222 13.006 55.6452 11.619C55.0182 11.543 54.4292 11.505 53.7642 11.505C53.2512 11.505 52.7382 11.524 52.2252 11.562C52.1302 11.562 51.9782 11.638 51.9402 11.752C51.5602 12.892 51.1612 13.956 50.8002 14.906C50.4582 13.956 50.0782 12.892 49.6982 11.752C49.6602 11.638 49.5082 11.562 49.4132 11.562C48.9002 11.524 48.3872 11.505 47.8742 11.505C47.1902 11.505 46.6202 11.543 45.9932 11.619C46.3162 13.006 47.6272 16.388 48.8052 16.749V16.768C47.1142 17.585 46.2972 21.366 45.9552 23ZM56.7144 13.044C56.7144 13.557 56.7144 14.07 56.7334 14.602C56.7334 14.716 56.8094 14.792 56.9234 14.792C57.2464 14.811 58.1584 14.83 59.0134 14.849C59.0134 15.647 59.0134 16.426 59.0134 17.3C59.0134 19.2 59.0514 21.024 59.0894 22.81C59.0894 22.924 59.1654 23 59.2794 23C59.9064 23.038 60.5714 23.057 61.2174 23.057C61.8444 23.057 62.2814 23.038 62.8894 23C62.9274 21.1 62.9654 19.2 62.9654 17.3C62.9654 16.426 62.9464 15.647 62.9274 14.868C63.9154 14.868 64.9224 14.849 65.2454 14.83C65.2454 14.355 65.2454 13.88 65.2454 13.424C65.2454 12.873 65.2454 12.341 65.2454 11.79C65.2264 11.695 65.1504 11.6 65.0554 11.6C64.4094 11.581 61.7684 11.562 61.1224 11.562C60.4954 11.562 57.3224 11.581 56.7334 11.6C56.7144 12.113 56.7144 12.588 56.7144 13.044Z" fill="white"/>
</g>
<defs>
<filter id="filter0_d_3_388" x="0" y="0" width="90.0416" height="41" filterUnits="userSpaceOnUse" color-interpolation-filters="sRGB">
<feFlood flood-opacity="0" result="BackgroundImageFix"/>
<feColorMatrix in="SourceAlpha" type="matrix" values="0 0 0 0 0 0 0 0 0 0 0 0 0 0 0 0 0 0 127 0" result="hardAlpha"/>
<feOffset dy="2"/>
<feComposite in2="hardAlpha" operator="out"/>
<feColorMatrix type="matrix" values="0 0 0 0 0 0 0 0 0 0 0 0 0 0 0 0 0 0 0.15 0"/>
<feBlend mode="normal" in2="BackgroundImageFix" result="effect1_dropShadow_3_388"/>
<feBlend mode="normal" in="SourceGraphic" in2="effect1_dropShadow_3_388" result="shape"/>
</filter>
<filter id="filter1_d_3_388" x="25.874" y="11.505" width="39.3713" height="12.609" filterUnits="userSpaceOnUse" color-interpolation-filters="sRGB">
<feFlood flood-opacity="0" result="BackgroundImageFix"/>
<feColorMatrix in="SourceAlpha" type="matrix" values="0 0 0 0 0 0 0 0 0 0 0 0 0 0 0 0 0 0 127 0" result="hardAlpha"/>
<feOffset dy="1"/>
<feComposite in2="hardAlpha" operator="out"/>
<feColorMatrix type="matrix" values="0 0 0 0 0 0 0 0 0 0 0 0 0 0 0 0 0 0 0.15 0"/>
<feBlend mode="normal" in2="BackgroundImageFix" result="effect1_dropShadow_3_388"/>
<feBlend mode="normal" in="SourceGraphic" in2="effect1_dropShadow_3_388" result="shape"/>
</filter>
</defs>
</svg>
