<svg width="121" height="66" viewBox="0 0 121 66" fill="none" xmlns="http://www.w3.org/2000/svg">
<mask id="path-1-outside-1_4_175" maskUnits="userSpaceOnUse" x="38.5479" y="0" width="48" height="49" fill="black">
<rect fill="white" x="38.5479" width="48" height="49"/>
<path fill-rule="evenodd" clip-rule="evenodd" d="M65.8388 4.22974C64.3715 1.25675 60.1321 1.25675 58.6649 4.22974L55.0568 11.5406C54.4741 12.7211 53.3478 13.5394 52.045 13.7287L43.977 14.9011C41.3684 15.2801 40.0057 17.9067 40.7501 20.1304C40.3063 21.4887 40.5712 23.0784 41.7602 24.2373L47.5982 29.928C48.0882 30.4056 48.4397 30.9926 48.6331 31.6285L47.3704 38.9904C47.2571 39.6509 47.3069 40.2797 47.4826 40.8499L47.3704 41.5039C46.81 44.7715 50.2397 47.2634 53.1742 45.7206L60.3904 41.9268C61.5557 41.3142 62.9479 41.3142 64.1132 41.9268L71.3294 45.7206C74.2639 47.2634 77.6936 44.7715 77.1332 41.5039L77.021 40.8499C77.1967 40.2797 77.2465 39.6509 77.1332 38.9904L75.8705 31.6285C76.0639 30.9926 76.4154 30.4056 76.9054 29.928L82.7434 24.2373C83.9324 23.0784 84.1973 21.4887 83.7535 20.1304C84.4979 17.9067 83.1352 15.2801 80.5266 14.9011L72.4586 13.7287C71.1558 13.5394 70.0295 12.7211 69.4469 11.5406L65.8388 4.22974Z"/>
</mask>
<path fill-rule="evenodd" clip-rule="evenodd" d="M65.8388 4.22974C64.3715 1.25675 60.1321 1.25675 58.6649 4.22974L55.0568 11.5406C54.4741 12.7211 53.3478 13.5394 52.045 13.7287L43.977 14.9011C41.3684 15.2801 40.0057 17.9067 40.7501 20.1304C40.3063 21.4887 40.5712 23.0784 41.7602 24.2373L47.5982 29.928C48.0882 30.4056 48.4397 30.9926 48.6331 31.6285L47.3704 38.9904C47.2571 39.6509 47.3069 40.2797 47.4826 40.8499L47.3704 41.5039C46.81 44.7715 50.2397 47.2634 53.1742 45.7206L60.3904 41.9268C61.5557 41.3142 62.9479 41.3142 64.1132 41.9268L71.3294 45.7206C74.2639 47.2634 77.6936 44.7715 77.1332 41.5039L77.021 40.8499C77.1967 40.2797 77.2465 39.6509 77.1332 38.9904L75.8705 31.6285C76.0639 30.9926 76.4154 30.4056 76.9054 29.928L82.7434 24.2373C83.9324 23.0784 84.1973 21.4887 83.7535 20.1304C84.4979 17.9067 83.1352 15.2801 80.5266 14.9011L72.4586 13.7287C71.1558 13.5394 70.0295 12.7211 69.4469 11.5406L65.8388 4.22974Z" fill="#7A54FD"/>
<path d="M58.6649 4.22974L60.4583 5.11487L60.4583 5.11487L58.6649 4.22974ZM65.8388 4.22974L67.6322 3.34461L67.6322 3.34461L65.8388 4.22974ZM55.0568 11.5406L53.2633 10.6554L53.2633 10.6554L55.0568 11.5406ZM52.045 13.7287L51.7574 11.7495L51.7574 11.7495L52.045 13.7287ZM43.977 14.9011L44.2646 16.8803L44.2646 16.8803L43.977 14.9011ZM40.7501 20.1304L42.6512 20.7516L42.8567 20.1228L42.6467 19.4955L40.7501 20.1304ZM41.7602 24.2373L43.1562 22.8052L43.1562 22.8052L41.7602 24.2373ZM47.5982 29.928L48.9942 28.4959L48.9942 28.4958L47.5982 29.928ZM48.6331 31.6285L50.6043 31.9666L50.6844 31.4997L50.5466 31.0465L48.6331 31.6285ZM47.3704 38.9904L49.3416 39.3285L49.3416 39.3285L47.3704 38.9904ZM47.4826 40.8499L49.4538 41.188L49.5346 40.7172L49.3939 40.2608L47.4826 40.8499ZM47.3704 41.5039L45.3992 41.1658L45.3992 41.1658L47.3704 41.5039ZM53.1742 45.7206L54.1049 47.4909L54.1049 47.4909L53.1742 45.7206ZM60.3904 41.9268L59.4598 40.1566L59.4598 40.1566L60.3904 41.9268ZM64.1132 41.9268L63.1825 43.6971L63.1825 43.6971L64.1132 41.9268ZM71.3294 45.7206L70.3987 47.4909L70.3987 47.4909L71.3294 45.7206ZM77.1332 41.5039L75.162 41.842L75.162 41.842L77.1332 41.5039ZM77.021 40.8499L75.1097 40.2608L74.9691 40.7172L75.0498 41.188L77.021 40.8499ZM77.1332 38.9904L79.1044 38.6523L79.1044 38.6523L77.1332 38.9904ZM75.8705 31.6285L73.9571 31.0465L73.8192 31.4997L73.8993 31.9666L75.8705 31.6285ZM76.9054 29.928L75.5094 28.4959L75.5094 28.4959L76.9054 29.928ZM82.7434 24.2373L84.1395 25.6695L84.1395 25.6695L82.7434 24.2373ZM83.7535 20.1304L81.8569 19.4955L81.6469 20.1228L81.8524 20.7516L83.7535 20.1304ZM80.5266 14.9011L80.239 16.8803L80.239 16.8803L80.5266 14.9011ZM72.4586 13.7287L72.171 15.7079L72.171 15.7079L72.4586 13.7287ZM69.4469 11.5406L67.6534 12.4257L67.6534 12.4257L69.4469 11.5406ZM60.4583 5.11487C61.192 3.62838 63.3117 3.62838 64.0453 5.11487L67.6322 3.34461C65.4313 -1.11487 59.0723 -1.11487 56.8714 3.34461L60.4583 5.11487ZM56.8502 12.4257L60.4583 5.11487L56.8714 3.34461L53.2633 10.6554L56.8502 12.4257ZM52.3326 15.7079C54.2869 15.424 55.9763 14.1966 56.8502 12.4257L53.2633 10.6554C52.972 11.2457 52.4088 11.6549 51.7574 11.7495L52.3326 15.7079ZM44.2646 16.8803L52.3326 15.7079L51.7574 11.7495L43.6894 12.9219L44.2646 16.8803ZM42.6467 19.4955C42.2674 18.3627 42.9836 17.0664 44.2646 16.8803L43.6894 12.9219C39.7531 13.4938 37.7439 17.4507 38.8536 20.7653L42.6467 19.4955ZM43.1562 22.8052C42.5597 22.2237 42.4234 21.4488 42.6512 20.7516L38.8491 19.5092C38.1892 21.5285 38.5828 23.9331 40.3642 25.6695L43.1562 22.8052ZM48.9942 28.4958L43.1562 22.8052L40.3642 25.6695L46.2022 31.3602L48.9942 28.4958ZM50.5466 31.0465C50.2566 30.093 49.7292 29.2122 48.9942 28.4959L46.2022 31.3602C46.4472 31.599 46.6229 31.8922 46.7196 32.2105L50.5466 31.0465ZM49.3416 39.3285L50.6043 31.9666L46.6619 31.2904L45.3992 38.6523L49.3416 39.3285ZM49.3939 40.2608C49.3103 39.9896 49.2816 39.6784 49.3416 39.3285L45.3992 38.6523C45.2327 39.6235 45.3035 40.5698 45.5713 41.4389L49.3939 40.2608ZM49.3416 41.842L49.4538 41.188L45.5114 40.5118L45.3992 41.1658L49.3416 41.842ZM52.2435 43.9504C50.7763 44.7217 49.0614 43.4758 49.3416 41.842L45.3992 41.1658C44.5585 46.0673 49.7031 49.805 54.1049 47.4909L52.2435 43.9504ZM59.4598 40.1566L52.2435 43.9504L54.1049 47.4909L61.3211 43.6971L59.4598 40.1566ZM65.0439 40.1566C63.2959 39.2376 61.2077 39.2376 59.4598 40.1566L61.3211 43.6971C61.9038 43.3908 62.5998 43.3908 63.1825 43.6971L65.0439 40.1566ZM72.2601 43.9504L65.0439 40.1566L63.1825 43.6971L70.3987 47.4909L72.2601 43.9504ZM75.162 41.842C75.4422 43.4758 73.7273 44.7217 72.2601 43.9504L70.3987 47.4909C74.8005 49.805 79.9451 46.0673 79.1044 41.1658L75.162 41.842ZM75.0498 41.188L75.162 41.842L79.1044 41.1658L78.9922 40.5118L75.0498 41.188ZM75.162 39.3285C75.222 39.6784 75.1933 39.9896 75.1097 40.2608L78.9323 41.4389C79.2001 40.5698 79.271 39.6235 79.1044 38.6523L75.162 39.3285ZM73.8993 31.9666L75.162 39.3285L79.1044 38.6523L77.8417 31.2904L73.8993 31.9666ZM75.5094 28.4959C74.7744 29.2122 74.247 30.093 73.9571 31.0465L77.784 32.2105C77.8808 31.8922 78.0564 31.599 78.3014 31.3602L75.5094 28.4959ZM81.3474 22.8052L75.5094 28.4959L78.3014 31.3602L84.1395 25.6695L81.3474 22.8052ZM81.8524 20.7516C82.0802 21.4488 81.9439 22.2237 81.3474 22.8052L84.1395 25.6695C85.9208 23.9331 86.3144 21.5285 85.6546 19.5092L81.8524 20.7516ZM80.239 16.8803C81.52 17.0664 82.2362 18.3627 81.8569 19.4955L85.65 20.7653C86.7597 17.4507 84.7505 13.4938 80.8142 12.9219L80.239 16.8803ZM72.171 15.7079L80.239 16.8803L80.8142 12.9219L72.7462 11.7495L72.171 15.7079ZM67.6534 12.4257C68.5274 14.1966 70.2168 15.424 72.171 15.7079L72.7462 11.7495C72.0948 11.6549 71.5317 11.2457 71.2403 10.6554L67.6534 12.4257ZM64.0453 5.11487L67.6534 12.4257L71.2403 10.6554L67.6322 3.34461L64.0453 5.11487Z" fill="white" mask="url(#path-1-outside-1_4_175)"/>
<mask id="path-3-outside-2_4_175" maskUnits="userSpaceOnUse" x="82" y="17.0055" width="39" height="40" fill="black">
<rect fill="white" x="82" y="17.0055" width="39" height="40"/>
<path fill-rule="evenodd" clip-rule="evenodd" d="M104.908 21.2352C103.441 18.2622 99.2017 18.2623 97.7344 21.2352L95.4806 25.802C94.898 26.9825 93.7717 27.8008 92.4689 27.9901L87.4292 28.7224C84.9011 29.0898 83.5432 31.568 84.1393 33.7447C83.7882 35.0539 84.0847 36.5406 85.2123 37.6398L88.8591 41.1945C89.3895 41.7115 89.7577 42.3568 89.9386 43.0534L89.1486 47.6598C89.0456 48.2601 89.0773 48.8342 89.2159 49.3619L89.1486 49.7543C88.5881 53.022 92.0179 55.5138 94.9524 53.971L99.46 51.6012C100.625 50.9886 102.017 50.9886 103.183 51.6012L107.69 53.971C110.625 55.5138 114.055 53.0219 113.494 49.7543L113.427 49.3619C113.565 48.8342 113.597 48.2601 113.494 47.6598L112.704 43.0534C112.885 42.3568 113.253 41.7115 113.784 41.1945L117.43 37.6398C118.558 36.5406 118.855 35.0539 118.503 33.7446C119.1 31.568 117.742 29.0898 115.214 28.7224L110.174 27.9901C108.871 27.8008 107.745 26.9825 107.162 25.802L104.908 21.2352Z"/>
</mask>
<path fill-rule="evenodd" clip-rule="evenodd" d="M104.908 21.2352C103.441 18.2622 99.2017 18.2623 97.7344 21.2352L95.4806 25.802C94.898 26.9825 93.7717 27.8008 92.4689 27.9901L87.4292 28.7224C84.9011 29.0898 83.5432 31.568 84.1393 33.7447C83.7882 35.0539 84.0847 36.5406 85.2123 37.6398L88.8591 41.1945C89.3895 41.7115 89.7577 42.3568 89.9386 43.0534L89.1486 47.6598C89.0456 48.2601 89.0773 48.8342 89.2159 49.3619L89.1486 49.7543C88.5881 53.022 92.0179 55.5138 94.9524 53.971L99.46 51.6012C100.625 50.9886 102.017 50.9886 103.183 51.6012L107.69 53.971C110.625 55.5138 114.055 53.0219 113.494 49.7543L113.427 49.3619C113.565 48.8342 113.597 48.2601 113.494 47.6598L112.704 43.0534C112.885 42.3568 113.253 41.7115 113.784 41.1945L117.43 37.6398C118.558 36.5406 118.855 35.0539 118.503 33.7446C119.1 31.568 117.742 29.0898 115.214 28.7224L110.174 27.9901C108.871 27.8008 107.745 26.9825 107.162 25.802L104.908 21.2352Z" fill="#7A54FD"/>
<path d="M97.7344 21.2352L99.5279 22.1204L99.5279 22.1204L97.7344 21.2352ZM104.908 21.2352L103.115 22.1204L103.115 22.1204L104.908 21.2352ZM95.4806 25.802L97.2741 26.6871L97.2741 26.6871L95.4806 25.802ZM92.4689 27.9901L92.1813 26.0109L92.1813 26.0109L92.4689 27.9901ZM87.4292 28.7224L87.7168 30.7017L87.4292 28.7224ZM84.1393 33.7447L86.0711 34.2627L86.2115 33.7392L86.0683 33.2164L84.1393 33.7447ZM85.2123 37.6398L83.8163 39.0719L83.8163 39.0719L85.2123 37.6398ZM88.8591 41.1945L90.2551 39.7623L90.2551 39.7623L88.8591 41.1945ZM89.9386 43.0534L91.9098 43.3915L91.9826 42.9673L91.8744 42.5507L89.9386 43.0534ZM89.1486 47.6598L87.1774 47.3217L87.1774 47.3217L89.1486 47.6598ZM89.2159 49.3619L91.1871 49.7L91.2603 49.273L91.1503 48.854L89.2159 49.3619ZM89.1486 49.7543L87.1774 49.4162L87.1774 49.4162L89.1486 49.7543ZM94.9524 53.971L94.0217 52.2008L94.0217 52.2008L94.9524 53.971ZM99.46 51.6012L100.391 53.3715L100.391 53.3715L99.46 51.6012ZM103.183 51.6012L102.252 53.3715L102.252 53.3715L103.183 51.6012ZM107.69 53.971L108.621 52.2008L108.621 52.2008L107.69 53.971ZM113.494 49.7543L115.465 49.4162L115.465 49.4162L113.494 49.7543ZM113.427 49.3619L111.492 48.854L111.382 49.273L111.456 49.7L113.427 49.3619ZM113.494 47.6598L111.523 47.9979L111.523 47.9979L113.494 47.6598ZM112.704 43.0534L110.768 42.5507L110.66 42.9673L110.733 43.3915L112.704 43.0534ZM113.784 41.1945L115.18 42.6266L115.18 42.6266L113.784 41.1945ZM117.43 37.6398L116.034 36.2076L116.034 36.2076L117.43 37.6398ZM118.503 33.7446L116.574 33.2164L116.431 33.7392L116.572 34.2627L118.503 33.7446ZM115.214 28.7224L115.501 26.7432L115.501 26.7432L115.214 28.7224ZM110.174 27.9901L110.461 26.0109L110.174 27.9901ZM107.162 25.802L108.956 24.9168L108.956 24.9168L107.162 25.802ZM99.5279 22.1204C100.262 20.6339 102.381 20.6339 103.115 22.1204L106.702 20.3501C104.501 15.8906 98.1418 15.8906 95.941 20.3501L99.5279 22.1204ZM97.2741 26.6871L99.5279 22.1204L95.941 20.3501L93.6871 24.9168L97.2741 26.6871ZM92.7565 29.9693C94.7107 29.6854 96.4001 28.458 97.2741 26.6871L93.6871 24.9168C93.3958 25.5071 92.8327 25.9163 92.1813 26.0109L92.7565 29.9693ZM87.7168 30.7017L92.7565 29.9693L92.1813 26.0109L87.1416 26.7432L87.7168 30.7017ZM86.0683 33.2164C85.7629 32.1014 86.476 30.8819 87.7168 30.7017L87.1416 26.7432C83.3262 27.2976 81.3235 31.0345 82.2103 34.2729L86.0683 33.2164ZM86.6083 36.2076C86.0402 35.6538 85.8921 34.9301 86.0711 34.2627L82.2076 33.2266C81.6844 35.1776 82.1292 37.4274 83.8163 39.0719L86.6083 36.2076ZM90.2551 39.7623L86.6083 36.2076L83.8163 39.0719L87.4631 42.6266L90.2551 39.7623ZM91.8744 42.5507C91.6031 41.5061 91.0508 40.5379 90.2551 39.7623L87.4631 42.6266C87.7282 42.8851 87.9123 43.2075 88.0029 43.5562L91.8744 42.5507ZM91.1198 47.9979L91.9098 43.3915L87.9674 42.7154L87.1774 47.3217L91.1198 47.9979ZM91.1503 48.854C91.0843 48.6024 91.0651 48.3167 91.1198 47.9979L87.1774 47.3217C87.0261 48.2034 87.0704 49.066 87.2815 49.8698L91.1503 48.854ZM91.1198 50.0924L91.1871 49.7L87.2447 49.0238L87.1774 49.4162L91.1198 50.0924ZM94.0217 52.2008C92.5544 52.9722 90.8396 51.7262 91.1198 50.0924L87.1774 49.4162C86.3367 54.3177 91.4813 58.0554 95.8831 55.7413L94.0217 52.2008ZM98.5293 49.831L94.0217 52.2008L95.8831 55.7413L100.391 53.3715L98.5293 49.831ZM104.113 49.831C102.365 48.912 100.277 48.912 98.5293 49.831L100.391 53.3715C100.973 53.0652 101.669 53.0652 102.252 53.3715L104.113 49.831ZM108.621 52.2008L104.113 49.831L102.252 53.3715L106.76 55.7413L108.621 52.2008ZM111.523 50.0924C111.803 51.7262 110.088 52.9722 108.621 52.2008L106.76 55.7413C111.161 58.0554 116.306 54.3177 115.465 49.4162L111.523 50.0924ZM111.456 49.7L111.523 50.0924L115.465 49.4162L115.398 49.0238L111.456 49.7ZM111.523 47.9979C111.578 48.3167 111.559 48.6023 111.492 48.854L115.361 49.8698C115.572 49.066 115.617 48.2034 115.465 47.3217L111.523 47.9979ZM110.733 43.3915L111.523 47.9979L115.465 47.3217L114.675 42.7154L110.733 43.3915ZM112.388 39.7623C111.592 40.5379 111.04 41.5061 110.768 42.5507L114.64 43.5562C114.73 43.2075 114.915 42.8851 115.18 42.6266L112.388 39.7623ZM116.034 36.2076L112.388 39.7623L115.18 42.6266L118.826 39.0719L116.034 36.2076ZM116.572 34.2627C116.751 34.9301 116.603 35.6538 116.034 36.2076L118.826 39.0719C120.514 37.4274 120.958 35.1776 120.435 33.2266L116.572 34.2627ZM114.926 30.7017C116.167 30.8819 116.88 32.1014 116.574 33.2164L120.432 34.2729C121.319 31.0345 119.317 27.2976 115.501 26.7432L114.926 30.7017ZM109.886 29.9693L114.926 30.7017L115.501 26.7432L110.461 26.0109L109.886 29.9693ZM105.369 26.6871C106.243 28.458 107.932 29.6854 109.886 29.9693L110.461 26.0109C109.81 25.9163 109.247 25.5071 108.956 24.9168L105.369 26.6871ZM103.115 22.1204L105.369 26.6871L108.956 24.9168L106.702 20.3501L103.115 22.1204Z" fill="white" mask="url(#path-3-outside-2_4_175)"/>
<g filter="url(#filter0_d_4_175)">
<path d="M19.4536 26.2679C20.9208 23.295 25.1602 23.295 26.6275 26.2679L28.8813 30.8347C29.464 32.0153 30.5902 32.8335 31.8931 33.0228L36.9328 33.7552C40.2136 34.2319 41.5237 38.2638 39.1496 40.5779L35.5028 44.1326C34.5601 45.0516 34.1299 46.3756 34.3525 47.6732L35.2133 52.6925C35.7738 55.9601 32.3441 58.452 29.4095 56.9092L24.9019 54.5394C23.7366 53.9268 22.3445 53.9268 21.1792 54.5394L16.6715 56.9092C13.737 58.452 10.3073 55.9601 10.8677 52.6925L11.7286 47.6732C11.9512 46.3756 11.521 45.0516 10.5782 44.1326L6.93149 40.5779C4.55742 38.2638 5.86745 34.2319 9.14834 33.7552L14.188 33.0228C15.4909 32.8335 16.6171 32.0153 17.1998 30.8347L19.4536 26.2679Z" fill="url(#paint0_linear_4_175)"/>
</g>
<defs>
<filter id="filter0_d_4_175" x="5.71924" y="24.0382" width="34.6426" height="36.3394" filterUnits="userSpaceOnUse" color-interpolation-filters="sRGB">
<feFlood flood-opacity="0" result="BackgroundImageFix"/>
<feColorMatrix in="SourceAlpha" type="matrix" values="0 0 0 0 0 0 0 0 0 0 0 0 0 0 0 0 0 0 127 0" result="hardAlpha"/>
<feOffset dy="3"/>
<feComposite in2="hardAlpha" operator="out"/>
<feColorMatrix type="matrix" values="0 0 0 0 1 0 0 0 0 0.392 0 0 0 0 0.2 0 0 0 1 0"/>
<feBlend mode="normal" in2="BackgroundImageFix" result="effect1_dropShadow_4_175"/>
<feBlend mode="normal" in="SourceGraphic" in2="effect1_dropShadow_4_175" result="shape"/>
</filter>
<linearGradient id="paint0_linear_4_175" x1="23.0405" y1="19" x2="23.0405" y2="65.0811" gradientUnits="userSpaceOnUse">
<stop offset="0.25" stop-color="#FFEE37"/>
<stop offset="1" stop-color="#F78A3B"/>
</linearGradient>
</defs>
</svg>
