<svg width="91" height="41" viewBox="0 0 91 41" fill="none" xmlns="http://www.w3.org/2000/svg">
<g filter="url(#filter0_d_3_380)">
<rect x="2" y="2" width="86.0417" height="35" rx="8" fill="#4EC407"/>
<rect x="1" y="1" width="88.0417" height="37" rx="9" stroke="white" stroke-width="2"/>
</g>
<rect x="2" y="2" width="86.0417" height="31.3542" rx="8" fill="#67EB00"/>
<path opacity="0.5" fill-rule="evenodd" clip-rule="evenodd" d="M32.7917 2H10C5.58172 2 2 5.58172 2 10V25.3542C2 29.7724 5.58171 33.3542 9.99999 33.3542H60.0135L32.7917 2Z" fill="#A6F208"/>
<g filter="url(#filter1_d_3_380)">
<path d="M25.912 17.3C25.912 19.2 25.95 21.024 25.95 22.81C25.95 22.924 26.026 23 26.14 23C26.786 23.038 27.432 23.038 28.078 23.038C28.629 23.038 29.18 23.038 29.75 23C29.731 22.126 29.712 21.252 29.712 20.378C32.885 20.378 34.804 19.58 34.804 15.97C34.804 11.885 32.866 11.467 29.655 11.467C28.591 11.467 27.204 11.6 25.95 11.79C25.95 13.652 25.912 15.4 25.912 17.3ZM29.674 17.281V14.716H30.092C30.852 14.716 30.947 14.849 30.947 16.027C30.947 17.148 30.472 17.281 29.959 17.281H29.674ZM36.4309 17.3C36.4309 19.2 36.4689 21.024 36.5069 22.81C36.5069 22.924 36.5829 23 36.6969 23C37.3239 23.038 40.0789 23.095 40.7249 23.095C41.3519 23.095 42.9289 23.076 43.5369 23.038C43.5369 22.563 43.5369 22.107 43.5369 21.651C43.5369 21.119 43.5369 20.587 43.5369 19.998C43.5179 19.903 43.4419 19.808 43.3469 19.808C42.7009 19.789 41.0859 19.77 40.4399 19.77H40.3639C40.3639 18.972 40.3829 18.155 40.3829 17.3C40.3829 15.4 40.3449 13.576 40.3069 11.79C40.3069 11.695 40.2119 11.6 40.1169 11.6C39.4709 11.581 38.8059 11.562 38.1599 11.562C37.5329 11.562 37.0959 11.581 36.5069 11.6C36.4499 13.5 36.4309 15.4 36.4309 17.3ZM44.2808 22.848C44.2808 22.943 44.3568 23 44.4518 23C45.0788 23.038 45.7438 23.057 46.3898 23.057C47.0168 23.057 47.3588 23.038 47.9668 23C48.0998 22.316 48.2138 21.613 48.3278 20.91H50.0948C50.1898 21.556 50.3038 22.202 50.4368 22.81C50.4558 22.924 50.5508 23 50.6458 23C51.3108 23.057 51.8618 23.057 52.5078 23.057C53.1538 23.057 53.5718 23.038 54.1608 23C53.6098 19.314 52.7168 15.438 51.9948 11.79C51.9758 11.695 51.8808 11.6 51.7858 11.6C50.8738 11.581 49.9808 11.562 49.0688 11.562C48.1758 11.562 47.3018 11.562 46.4468 11.6C45.7438 15.115 44.9458 18.782 44.3758 22.259C44.3378 22.449 44.2808 22.81 44.2808 22.848ZM48.6508 18.44C48.8028 17.015 48.9548 15.59 49.1258 14.184C49.3158 15.609 49.5058 17.034 49.7148 18.44H48.6508ZM54.1693 11.676C54.4923 13.12 55.0053 15.058 55.7463 16.521C56.1833 17.262 56.7153 17.851 57.2853 18.307C57.2663 19.846 57.2663 21.347 57.2663 22.81C57.2663 22.924 57.3423 23 57.4563 23C58.0833 23.038 58.7863 23.057 59.4323 23.057C60.0593 23.057 60.5343 23.038 61.1423 23C61.1233 21.442 61.1043 19.884 61.0853 18.307C61.6553 17.851 62.1873 17.262 62.6243 16.521C63.3653 15.058 63.8783 13.12 64.2013 11.676C63.5743 11.6 62.8903 11.562 62.2253 11.562C61.7123 11.562 61.1993 11.581 60.6863 11.619C60.5913 11.619 60.4393 11.695 60.4013 11.809C59.9833 13.082 59.5273 14.659 59.1853 15.951C58.8243 14.659 58.3873 13.082 57.9693 11.809C57.9313 11.695 57.7793 11.619 57.6843 11.619C57.1713 11.581 56.6583 11.562 56.1453 11.562C55.4613 11.562 54.7963 11.6 54.1693 11.676Z" fill="white"/>
</g>
<defs>
<filter id="filter0_d_3_380" x="0" y="0" width="90.0416" height="41" filterUnits="userSpaceOnUse" color-interpolation-filters="sRGB">
<feFlood flood-opacity="0" result="BackgroundImageFix"/>
<feColorMatrix in="SourceAlpha" type="matrix" values="0 0 0 0 0 0 0 0 0 0 0 0 0 0 0 0 0 0 127 0" result="hardAlpha"/>
<feOffset dy="2"/>
<feComposite in2="hardAlpha" operator="out"/>
<feColorMatrix type="matrix" values="0 0 0 0 0 0 0 0 0 0 0 0 0 0 0 0 0 0 0.15 0"/>
<feBlend mode="normal" in2="BackgroundImageFix" result="effect1_dropShadow_3_380"/>
<feBlend mode="normal" in="SourceGraphic" in2="effect1_dropShadow_3_380" result="shape"/>
</filter>
<filter id="filter1_d_3_380" x="25.912" y="11.467" width="38.2893" height="12.628" filterUnits="userSpaceOnUse" color-interpolation-filters="sRGB">
<feFlood flood-opacity="0" result="BackgroundImageFix"/>
<feColorMatrix in="SourceAlpha" type="matrix" values="0 0 0 0 0 0 0 0 0 0 0 0 0 0 0 0 0 0 127 0" result="hardAlpha"/>
<feOffset dy="1"/>
<feComposite in2="hardAlpha" operator="out"/>
<feColorMatrix type="matrix" values="0 0 0 0 0 0 0 0 0 0 0 0 0 0 0 0 0 0 0.15 0"/>
<feBlend mode="normal" in2="BackgroundImageFix" result="effect1_dropShadow_3_380"/>
<feBlend mode="normal" in="SourceGraphic" in2="effect1_dropShadow_3_380" result="shape"/>
</filter>
</defs>
</svg>
