<svg width="49" height="52" viewBox="0 0 49 52" fill="none" xmlns="http://www.w3.org/2000/svg">
<path d="M38.2501 2.37973H4.02844C1.81931 2.37973 0.0284424 4.17059 0.0284424 6.37973V47.3797C0.0284424 49.5889 1.81931 51.3797 4.02844 51.3797H38.2501C41.8307 51.3797 43.6076 47.036 41.0535 44.5265L25.9973 29.7329C24.4018 28.1653 24.4018 25.5941 25.9973 24.0265L41.0535 9.23294C43.6076 6.72344 41.8307 2.37973 38.2501 2.37973Z" fill="#B30D78"/>
<path d="M38.2501 0.37973H4.02844C1.81931 0.37973 0.0284424 2.17059 0.0284424 4.37973V45.3797C0.0284424 47.5889 1.81931 49.3797 4.02844 49.3797H38.2501C41.8307 49.3797 43.6076 45.036 41.0535 42.5265L25.9973 27.7329C24.4018 26.1653 24.4018 23.5941 25.9973 22.0265L41.0535 7.23294C43.6076 4.72344 41.8307 0.37973 38.2501 0.37973Z" fill="url(#paint0_linear_4_65)"/>
<defs>
<linearGradient id="paint0_linear_4_65" x1="24.0284" y1="0.37973" x2="24.0284" y2="49.3797" gradientUnits="userSpaceOnUse">
<stop stop-color="#FE56E1"/>
<stop offset="1" stop-color="#D81091"/>
</linearGradient>
</defs>
</svg>
