<svg width="40" height="43" viewBox="0 0 40 43" fill="none" xmlns="http://www.w3.org/2000/svg">
<g filter="url(#filter0_d_2_243)">
<circle cx="19.8431" cy="19.8431" r="19.8431" fill="#B169FA"/>
<circle cx="19.8431" cy="19.8431" r="18.3431" stroke="white" stroke-width="3"/>
</g>
<path d="M27.9361 12.1548L27.938 12.1581L30.0979 15.9097C30.0983 15.9103 30.0987 15.911 30.0991 15.9116C30.3845 16.4009 30.2955 17.0169 29.8749 17.4063C29.8745 17.4066 29.8742 17.4069 29.8739 17.4072L28.0691 19.0927L28.0646 19.8055L29.85 21.5116C29.8501 21.5117 29.8502 21.5119 29.8504 21.512C30.2593 21.9015 30.3475 22.5154 30.0613 23.0041L30.0594 23.0073L27.8408 26.7301C27.8404 26.7307 27.8401 26.7313 27.8397 26.7319C27.5544 27.2172 26.9753 27.4449 26.4356 27.2888C26.4353 27.2887 26.435 27.2886 26.4347 27.2885L24.0357 26.6053L23.3925 26.9667L22.786 29.3414C22.6485 29.8812 22.1545 30.2647 21.5906 30.2647H17.1936C16.6296 30.2647 16.1357 29.8812 15.9983 29.3414M27.9361 12.1548L22.9611 26.6357L22.3015 29.218C22.2209 29.5345 21.9278 29.7647 21.5906 29.7647H17.1936C16.8565 29.7647 16.5634 29.5345 16.4828 29.218L15.8232 26.6357M27.9361 12.1548C27.651 11.6682 27.0828 11.4444 26.5426 11.5858L26.5426 11.5858L26.5375 11.5871L24.1294 12.2445L23.3933 11.8206L22.786 9.44286L27.9361 12.1548ZM15.9983 29.3414L16.4815 29.2183L15.9983 29.3417L15.9983 29.3414ZM15.9983 29.3414L15.3917 26.9667M15.3917 26.9667L15.5783 27.0716L15.8232 26.6357M15.3917 26.9667L15.3388 26.7594L15.8232 26.6357M15.3917 26.9667L14.7486 26.6053M15.8232 26.6357L14.8119 26.0674M14.8119 26.0674L14.9489 26.5483L14.7486 26.6053M14.8119 26.0674L12.2104 26.8083C11.8879 26.9018 11.5435 26.7651 11.3749 26.4774M14.8119 26.0674L14.567 26.5033L14.7486 26.6053M14.7486 26.6053L12.3496 27.2885L12.2104 26.8083L12.3473 27.2892L12.3482 27.2889C11.8086 27.4447 11.2298 27.217 10.9445 26.7319L10.9454 26.7334L11.3749 26.4774M11.3749 26.4774L10.9435 26.7301M11.3749 26.4774L9.15443 22.7514C8.98587 22.4636 9.03717 22.104 9.27901 21.8738L10.9435 26.7301M10.9435 26.7301L8.72491 23.0073L8.72299 23.0041L8.723 23.0041C8.43676 22.5155 8.52498 21.9016 8.93385 21.512C8.93399 21.5119 8.93414 21.5118 8.93429 21.5116L10.7197 19.8055M10.9435 26.7301L10.7197 19.8055M10.7197 19.8055L10.7151 19.0927L8.91041 17.4072C8.91005 17.4069 8.9097 17.4066 8.90934 17.4063C8.48878 17.0168 8.39978 16.4008 8.68528 15.9115L10.8463 12.1581L10.8482 12.1548L10.8482 12.1548C11.1333 11.6682 11.7014 11.4444 12.2417 11.5858L12.2468 11.5871L12.2467 11.5871L14.6548 12.2445L15.391 11.8206L15.9983 9.44286L15.9983 9.44254L16.4828 9.56627C16.5634 9.24977 16.8565 9.01959 17.1936 9.01959H21.5906C21.9278 9.01959 22.2209 9.24977 22.3015 9.56627L10.7197 19.8055ZM19.3921 22.9707C17.373 22.9707 15.737 21.3515 15.737 19.3921C15.737 17.4328 17.373 15.8136 19.3921 15.8136C21.4113 15.8136 23.0473 17.4328 23.0473 19.3921C23.0473 21.3515 21.4113 22.9707 19.3921 22.9707Z" fill="white" stroke="#8014EE"/>
<defs>
<filter id="filter0_d_2_243" x="0" y="0" width="39.6863" height="42.6863" filterUnits="userSpaceOnUse" color-interpolation-filters="sRGB">
<feFlood flood-opacity="0" result="BackgroundImageFix"/>
<feColorMatrix in="SourceAlpha" type="matrix" values="0 0 0 0 0 0 0 0 0 0 0 0 0 0 0 0 0 0 127 0" result="hardAlpha"/>
<feOffset dy="3"/>
<feComposite in2="hardAlpha" operator="out"/>
<feColorMatrix type="matrix" values="0 0 0 0 0.469182 0 0 0 0 0.180278 0 0 0 0 0.983333 0 0 0 1 0"/>
<feBlend mode="normal" in2="BackgroundImageFix" result="effect1_dropShadow_2_243"/>
<feBlend mode="normal" in="SourceGraphic" in2="effect1_dropShadow_2_243" result="shape"/>
</filter>
</defs>
</svg>
