<svg width="126" height="64" viewBox="0 0 126 64" fill="none" xmlns="http://www.w3.org/2000/svg">
<mask id="path-1-outside-1_4_151" maskUnits="userSpaceOnUse" x="39.1227" y="3.0061" width="48" height="49" fill="black">
<rect fill="white" x="39.1227" y="3.0061" width="48" height="49"/>
<path fill-rule="evenodd" clip-rule="evenodd" d="M66.4136 7.23584C64.9463 4.26286 60.7069 4.26286 59.2397 7.23584L55.6316 14.5467C55.0489 15.7272 53.9227 16.5455 52.6198 16.7348L44.5519 17.9072C41.9432 18.2862 40.5805 20.9128 41.325 23.1365C40.8811 24.4948 41.1461 26.0845 42.335 27.2434L48.173 32.9341C48.663 33.4117 49.0145 33.9987 49.2079 34.6346L47.9453 41.9965C47.832 42.657 47.8817 43.2858 48.0574 43.856L47.9453 44.51C47.3848 47.7776 50.8145 50.2695 53.7491 48.7267L60.9653 44.9329C62.1306 44.3203 63.5227 44.3203 64.688 44.9329L71.9042 48.7267C74.8387 50.2695 78.2685 47.7776 77.708 44.51L77.5958 43.856C77.7716 43.2858 77.8213 42.657 77.708 41.9965L76.4453 34.6346C76.6387 33.9987 76.9903 33.4117 77.4802 32.9341L83.3183 27.2434C84.5072 26.0845 84.7722 24.4948 84.3283 23.1365C85.0728 20.9128 83.7101 18.2862 81.1014 17.9072L73.0334 16.7348C71.7306 16.5455 70.6043 15.7272 70.0217 14.5467L66.4136 7.23584Z"/>
</mask>
<path fill-rule="evenodd" clip-rule="evenodd" d="M66.4136 7.23584C64.9463 4.26286 60.7069 4.26286 59.2397 7.23584L55.6316 14.5467C55.0489 15.7272 53.9227 16.5455 52.6198 16.7348L44.5519 17.9072C41.9432 18.2862 40.5805 20.9128 41.325 23.1365C40.8811 24.4948 41.1461 26.0845 42.335 27.2434L48.173 32.9341C48.663 33.4117 49.0145 33.9987 49.2079 34.6346L47.9453 41.9965C47.832 42.657 47.8817 43.2858 48.0574 43.856L47.9453 44.51C47.3848 47.7776 50.8145 50.2695 53.7491 48.7267L60.9653 44.9329C62.1306 44.3203 63.5227 44.3203 64.688 44.9329L71.9042 48.7267C74.8387 50.2695 78.2685 47.7776 77.708 44.51L77.5958 43.856C77.7716 43.2858 77.8213 42.657 77.708 41.9965L76.4453 34.6346C76.6387 33.9987 76.9903 33.4117 77.4802 32.9341L83.3183 27.2434C84.5072 26.0845 84.7722 24.4948 84.3283 23.1365C85.0728 20.9128 83.7101 18.2862 81.1014 17.9072L73.0334 16.7348C71.7306 16.5455 70.6043 15.7272 70.0217 14.5467L66.4136 7.23584Z" fill="url(#paint0_linear_4_151)"/>
<path d="M59.2397 7.23584L61.0332 8.12097V8.12097L59.2397 7.23584ZM66.4136 7.23584L68.2071 6.35071V6.35071L66.4136 7.23584ZM55.6316 14.5467L53.8381 13.6615V13.6615L55.6316 14.5467ZM52.6198 16.7348L52.3322 14.7556L52.6198 16.7348ZM44.5519 17.9072L44.8395 19.8864H44.8395L44.5519 17.9072ZM41.325 23.1365L43.226 23.7577L43.4315 23.1289L43.2215 22.5016L41.325 23.1365ZM42.335 27.2434L43.731 25.8113L42.335 27.2434ZM48.173 32.9341L49.5691 31.502L49.5691 31.502L48.173 32.9341ZM49.2079 34.6346L51.1791 34.9727L51.2592 34.5058L51.1214 34.0526L49.2079 34.6346ZM47.9453 41.9965L49.9165 42.3346L47.9453 41.9965ZM48.0574 43.856L50.0287 44.1941L50.1094 43.7233L49.9687 43.2669L48.0574 43.856ZM47.9453 44.51L45.974 44.1719V44.1719L47.9453 44.51ZM53.7491 48.7267L54.6797 50.497L53.7491 48.7267ZM60.9653 44.9329L60.0346 43.1627L60.9653 44.9329ZM64.688 44.9329L63.7573 46.7032H63.7573L64.688 44.9329ZM71.9042 48.7267L70.9735 50.497L71.9042 48.7267ZM77.708 44.51L75.7368 44.8481V44.8481L77.708 44.51ZM77.5958 43.856L75.6845 43.2669L75.5439 43.7233L75.6246 44.1941L77.5958 43.856ZM77.708 41.9965L79.6792 41.6584L77.708 41.9965ZM76.4453 34.6346L74.5319 34.0526L74.394 34.5058L74.4741 34.9727L76.4453 34.6346ZM77.4802 32.9341L76.0842 31.502L77.4802 32.9341ZM83.3183 27.2434L84.7143 28.6756V28.6756L83.3183 27.2434ZM84.3283 23.1365L82.4318 22.5016L82.2218 23.1289L82.4272 23.7577L84.3283 23.1365ZM81.1014 17.9072L80.8138 19.8864L81.1014 17.9072ZM73.0334 16.7348L72.7458 18.714L73.0334 16.7348ZM70.0217 14.5467L68.2282 15.4318V15.4318L70.0217 14.5467ZM61.0332 8.12097C61.7668 6.63448 63.8865 6.63448 64.6201 8.12097L68.2071 6.35071C66.0062 1.89124 59.6471 1.89123 57.4462 6.35071L61.0332 8.12097ZM57.4251 15.4318L61.0332 8.12097L57.4462 6.35071L53.8381 13.6615L57.4251 15.4318ZM52.9074 18.714C54.8617 18.4301 56.5511 17.2027 57.4251 15.4318L53.8381 13.6615C53.5468 14.2518 52.9837 14.661 52.3322 14.7556L52.9074 18.714ZM44.8395 19.8864L52.9074 18.714L52.3322 14.7556L44.2643 15.928L44.8395 19.8864ZM43.2215 22.5016C42.8423 21.3688 43.5585 20.0725 44.8395 19.8864L44.2643 15.928C40.328 16.4999 38.3188 20.4568 39.4284 23.7714L43.2215 22.5016ZM43.731 25.8113C43.1345 25.2298 42.9982 24.4549 43.226 23.7577L39.4239 22.5153C38.764 24.5346 39.1576 26.9392 40.939 28.6756L43.731 25.8113ZM49.5691 31.502L43.731 25.8113L40.939 28.6756L46.777 34.3663L49.5691 31.502ZM51.1214 34.0526C50.8314 33.0992 50.304 32.2183 49.5691 31.502L46.777 34.3663C47.022 34.6051 47.1977 34.8983 47.2945 35.2166L51.1214 34.0526ZM49.9165 42.3346L51.1791 34.9727L47.2367 34.2965L45.974 41.6584L49.9165 42.3346ZM49.9687 43.2669C49.8851 42.9957 49.8565 42.6845 49.9165 42.3346L45.974 41.6584C45.8075 42.6296 45.8783 43.5759 46.1461 44.445L49.9687 43.2669ZM49.9165 44.8481L50.0287 44.1941L46.0862 43.5179L45.974 44.1719L49.9165 44.8481ZM52.8184 46.9565C51.3511 47.7278 49.6363 46.4819 49.9165 44.8481L45.974 44.1719C45.1334 49.0734 50.278 52.8111 54.6797 50.497L52.8184 46.9565ZM60.0346 43.1627L52.8184 46.9565L54.6797 50.497L61.896 46.7032L60.0346 43.1627ZM65.6187 43.1627C63.8707 42.2437 61.7825 42.2437 60.0346 43.1627L61.896 46.7032C62.4786 46.3969 63.1747 46.3969 63.7573 46.7032L65.6187 43.1627ZM72.8349 46.9565L65.6187 43.1627L63.7573 46.7032L70.9735 50.497L72.8349 46.9565ZM75.7368 44.8481C76.017 46.4819 74.3022 47.7279 72.8349 46.9565L70.9735 50.497C75.3753 52.8111 80.5199 49.0734 79.6792 44.1719L75.7368 44.8481ZM75.6246 44.1941L75.7368 44.8481L79.6792 44.1719L79.5671 43.5179L75.6246 44.1941ZM75.7368 42.3346C75.7968 42.6845 75.7681 42.9957 75.6845 43.2669L79.5071 44.445C79.775 43.5759 79.8458 42.6296 79.6792 41.6584L75.7368 42.3346ZM74.4741 34.9727L75.7368 42.3346L79.6792 41.6584L78.4166 34.2965L74.4741 34.9727ZM76.0842 31.502C75.3493 32.2183 74.8219 33.0992 74.5319 34.0526L78.3588 35.2166C78.4556 34.8983 78.6312 34.6051 78.8762 34.3663L76.0842 31.502ZM81.9222 25.8113L76.0842 31.502L78.8762 34.3663L84.7143 28.6756L81.9222 25.8113ZM82.4272 23.7577C82.6551 24.4549 82.5188 25.2298 81.9222 25.8113L84.7143 28.6756C86.4957 26.9392 86.8892 24.5346 86.2294 22.5153L82.4272 23.7577ZM80.8138 19.8864C82.0948 20.0725 82.811 21.3688 82.4318 22.5016L86.2249 23.7714C87.3345 20.4568 85.3253 16.4999 81.389 15.928L80.8138 19.8864ZM72.7458 18.714L80.8138 19.8864L81.389 15.928L73.321 14.7556L72.7458 18.714ZM68.2282 15.4318C69.1022 17.2027 70.7916 18.4301 72.7458 18.714L73.321 14.7556C72.6696 14.661 72.1065 14.2518 71.8152 13.6615L68.2282 15.4318ZM64.6201 8.12097L68.2282 15.4318L71.8152 13.6615L68.2071 6.35071L64.6201 8.12097Z" fill="white" mask="url(#path-1-outside-1_4_151)"/>
<g filter="url(#filter0_d_4_151)">
<path d="M59.413 7.26794C60.8803 4.29496 65.1197 4.29496 66.5869 7.26794L70.195 14.5788C70.7777 15.7593 71.9039 16.5776 73.2068 16.7669L81.2747 17.9393C84.5556 18.416 85.8657 22.4479 83.4916 24.7621L77.6536 30.4527C76.7108 31.3717 76.2806 32.6957 76.5032 33.9933L77.8813 42.0286C78.4418 45.2963 75.0121 47.7881 72.0775 46.2453L64.8613 42.4515C63.696 41.8389 62.3039 41.8389 61.1386 42.4515L53.9224 46.2453C50.9879 47.7881 47.5581 45.2963 48.1186 42.0286L49.4968 33.9933C49.7193 32.6957 49.2891 31.3717 48.3464 30.4527L42.5083 24.7621C40.1343 22.4479 41.4443 18.416 44.7252 17.9393L52.7932 16.7669C54.096 16.5776 55.2223 15.7593 55.8049 14.5788L59.413 7.26794Z" fill="url(#paint1_linear_4_151)"/>
</g>
<mask id="path-4-outside-2_4_151" maskUnits="userSpaceOnUse" x="3.57458" y="20.0116" width="39" height="40" fill="black">
<rect fill="white" x="3.57458" y="20.0116" width="39" height="40"/>
<path fill-rule="evenodd" clip-rule="evenodd" d="M26.4829 24.2413C25.0157 21.2683 20.7763 21.2683 19.309 24.2413L17.0552 28.808C16.4726 29.9886 15.3463 30.8069 14.0434 30.9962L9.00376 31.7285C6.47568 32.0959 5.11778 34.5741 5.7139 36.7507C5.36279 38.0599 5.65926 39.5467 6.78691 40.6458L10.4337 44.2005C10.9641 44.7176 11.3323 45.3629 11.5132 46.0595L10.7232 50.6658C10.6202 51.2661 10.6519 51.8402 10.7905 52.368L10.7232 52.7604C10.1627 56.028 13.5925 58.5199 16.527 56.9771L21.0346 54.6073C22.1999 53.9947 23.592 53.9947 24.7573 54.6073L29.265 56.9771C32.1995 58.5199 35.6292 56.028 35.0688 52.7604L35.0015 52.368C35.14 51.8402 35.1717 51.2661 35.0688 50.6658L34.2787 46.0595C34.4597 45.3629 34.8278 44.7176 35.3583 44.2005L39.005 40.6458C40.1327 39.5467 40.4291 38.0599 40.078 36.7507C40.6742 34.5741 39.3163 32.0959 36.7882 31.7285L31.7485 30.9962C30.4456 30.8069 29.3194 29.9886 28.7367 28.808L26.4829 24.2413Z"/>
</mask>
<path fill-rule="evenodd" clip-rule="evenodd" d="M26.4829 24.2413C25.0157 21.2683 20.7763 21.2683 19.309 24.2413L17.0552 28.808C16.4726 29.9886 15.3463 30.8069 14.0434 30.9962L9.00376 31.7285C6.47568 32.0959 5.11778 34.5741 5.7139 36.7507C5.36279 38.0599 5.65926 39.5467 6.78691 40.6458L10.4337 44.2005C10.9641 44.7176 11.3323 45.3629 11.5132 46.0595L10.7232 50.6658C10.6202 51.2661 10.6519 51.8402 10.7905 52.368L10.7232 52.7604C10.1627 56.028 13.5925 58.5199 16.527 56.9771L21.0346 54.6073C22.1999 53.9947 23.592 53.9947 24.7573 54.6073L29.265 56.9771C32.1995 58.5199 35.6292 56.028 35.0688 52.7604L35.0015 52.368C35.14 51.8402 35.1717 51.2661 35.0688 50.6658L34.2787 46.0595C34.4597 45.3629 34.8278 44.7176 35.3583 44.2005L39.005 40.6458C40.1327 39.5467 40.4291 38.0599 40.078 36.7507C40.6742 34.5741 39.3163 32.0959 36.7882 31.7285L31.7485 30.9962C30.4456 30.8069 29.3194 29.9886 28.7367 28.808L26.4829 24.2413Z" fill="url(#paint2_linear_4_151)"/>
<path d="M19.309 24.2413L21.1025 25.1264V25.1264L19.309 24.2413ZM26.4829 24.2413L24.6894 25.1264V25.1264L26.4829 24.2413ZM17.0552 28.808L18.8487 29.6932L17.0552 28.808ZM14.0434 30.9962L13.7559 29.017L14.0434 30.9962ZM9.00376 31.7285L9.29136 33.7077L9.00376 31.7285ZM5.7139 36.7507L7.64564 37.2688L7.78604 36.7452L7.64286 36.2224L5.7139 36.7507ZM6.78691 40.6458L5.39089 42.078H5.39089L6.78691 40.6458ZM10.4337 44.2005L11.8297 42.7684L10.4337 44.2005ZM11.5132 46.0595L13.4844 46.3976L13.5572 45.9734L13.449 45.5567L11.5132 46.0595ZM10.7232 50.6658L8.75195 50.3278V50.3278L10.7232 50.6658ZM10.7905 52.368L12.7617 52.7061L12.8349 52.2791L12.7249 51.8601L10.7905 52.368ZM10.7232 52.7604L8.75195 52.4223H8.75195L10.7232 52.7604ZM16.527 56.9771L15.5963 55.2068L16.527 56.9771ZM21.0346 54.6073L21.9653 56.3776L21.9653 56.3776L21.0346 54.6073ZM24.7573 54.6073L23.8266 56.3776H23.8266L24.7573 54.6073ZM29.265 56.9771L30.1957 55.2068H30.1956L29.265 56.9771ZM35.0688 52.7604L37.04 52.4223V52.4223L35.0688 52.7604ZM35.0015 52.368L33.067 51.8601L32.957 52.2791L33.0302 52.7061L35.0015 52.368ZM35.0688 50.6658L33.0975 51.0039V51.0039L35.0688 50.6658ZM34.2787 46.0595L32.3429 45.5567L32.2347 45.9734L32.3075 46.3976L34.2787 46.0595ZM35.3583 44.2005L36.7543 45.6327L36.7543 45.6327L35.3583 44.2005ZM39.005 40.6458L37.609 39.2137L39.005 40.6458ZM40.078 36.7507L38.1491 36.2224L38.0059 36.7452L38.1463 37.2688L40.078 36.7507ZM36.7882 31.7285L37.0758 29.7493H37.0758L36.7882 31.7285ZM31.7485 30.9962L32.0361 29.017L31.7485 30.9962ZM28.7367 28.808L30.5302 27.9229V27.9229L28.7367 28.808ZM21.1025 25.1264C21.8361 23.6399 23.9558 23.6399 24.6894 25.1264L28.2764 23.3562C26.0755 18.8967 19.7164 18.8967 17.5155 23.3562L21.1025 25.1264ZM18.8487 29.6932L21.1025 25.1264L17.5155 23.3562L15.2617 27.9229L18.8487 29.6932ZM14.331 32.9754C16.2853 32.6914 17.9747 31.464 18.8487 29.6932L15.2617 27.9229C14.9704 28.5132 14.4073 28.9223 13.7559 29.017L14.331 32.9754ZM9.29136 33.7077L14.331 32.9754L13.7559 29.017L8.71616 29.7493L9.29136 33.7077ZM7.64286 36.2224C7.33752 35.1075 8.05058 33.888 9.29136 33.7077L8.71616 29.7493C4.90079 30.3037 2.89804 34.0406 3.78493 37.279L7.64286 36.2224ZM8.18293 39.2137C7.61478 38.6599 7.46664 37.9362 7.64564 37.2688L3.78215 36.2327C3.25894 38.1837 3.70375 40.4335 5.39089 42.078L8.18293 39.2137ZM11.8297 42.7684L8.18293 39.2137L5.39089 42.078L9.03764 45.6327L11.8297 42.7684ZM13.449 45.5567C13.1777 44.5122 12.6254 43.544 11.8297 42.7684L9.03764 45.6327C9.30281 45.8912 9.48686 46.2136 9.57744 46.5623L13.449 45.5567ZM12.6944 51.0039L13.4844 46.3976L9.542 45.7214L8.75195 50.3278L12.6944 51.0039ZM12.7249 51.8601C12.6588 51.6084 12.6397 51.3228 12.6944 51.0039L8.75195 50.3278C8.60072 51.2095 8.64499 52.0721 8.85604 52.8759L12.7249 51.8601ZM12.6944 53.0985L12.7617 52.7061L8.81926 52.0299L8.75195 52.4223L12.6944 53.0985ZM15.5963 55.2068C14.129 55.9782 12.4142 54.7323 12.6944 53.0985L8.75195 52.4223C7.91129 57.3238 13.0559 61.0615 17.4577 58.7474L15.5963 55.2068ZM20.1039 52.837L15.5963 55.2068L17.4577 58.7474L21.9653 56.3776L20.1039 52.837ZM25.688 52.837C23.9401 51.9181 21.8519 51.9181 20.1039 52.837L21.9653 56.3776C22.5479 56.0713 23.244 56.0713 23.8266 56.3776L25.688 52.837ZM30.1956 55.2068L25.688 52.837L23.8266 56.3776L28.3343 58.7474L30.1956 55.2068ZM33.0975 53.0985C33.3778 54.7323 31.6629 55.9782 30.1957 55.2068L28.3343 58.7474C32.7361 61.0615 37.8806 57.3237 37.04 52.4223L33.0975 53.0985ZM33.0302 52.7061L33.0975 53.0985L37.04 52.4223L36.9727 52.0299L33.0302 52.7061ZM33.0975 51.0039C33.1522 51.3228 33.1331 51.6084 33.067 51.8601L36.9359 52.8759C37.1469 52.0721 37.1912 51.2095 37.04 50.3277L33.0975 51.0039ZM32.3075 46.3976L33.0975 51.0039L37.04 50.3278L36.2499 45.7214L32.3075 46.3976ZM33.9622 42.7684C33.1666 43.544 32.6143 44.5122 32.3429 45.5567L36.2145 46.5623C36.3051 46.2136 36.4891 45.8912 36.7543 45.6327L33.9622 42.7684ZM37.609 39.2137L33.9622 42.7684L36.7543 45.6327L40.401 42.078L37.609 39.2137ZM38.1463 37.2688C38.3253 37.9362 38.1772 38.6599 37.609 39.2137L40.401 42.078C42.0882 40.4335 42.533 38.1837 42.0098 36.2327L38.1463 37.2688ZM36.5006 33.7077C37.7414 33.888 38.4544 35.1075 38.1491 36.2224L42.007 37.279C42.8939 34.0406 40.8911 30.3037 37.0758 29.7493L36.5006 33.7077ZM31.4609 32.9754L36.5006 33.7077L37.0758 29.7493L32.0361 29.017L31.4609 32.9754ZM26.9433 29.6932C27.8172 31.464 29.5066 32.6914 31.4609 32.9754L32.0361 29.017C31.3847 28.9223 30.8215 28.5132 30.5302 27.9229L26.9433 29.6932ZM24.6894 25.1264L26.9433 29.6932L30.5302 27.9229L28.2764 23.3562L24.6894 25.1264Z" fill="white" mask="url(#path-4-outside-2_4_151)"/>
<g filter="url(#filter1_d_4_151)">
<path d="M19.4536 24.2679C20.9208 21.295 25.1602 21.295 26.6275 24.2679L28.8813 28.8347C29.464 30.0153 30.5902 30.8335 31.8931 31.0228L36.9328 31.7552C40.2136 32.2319 41.5237 36.2638 39.1496 38.5779L35.5028 42.1326C34.5601 43.0516 34.1299 44.3756 34.3525 45.6732L35.2133 50.6925C35.7738 53.9601 32.3441 56.452 29.4095 54.9092L24.9019 52.5394C23.7366 51.9268 22.3445 51.9268 21.1792 52.5394L16.6715 54.9092C13.737 56.452 10.3073 53.9601 10.8677 50.6925L11.7286 45.6732C11.9512 44.3756 11.521 43.0516 10.5782 42.1326L6.93149 38.5779C4.55742 36.2638 5.86745 32.2319 9.14834 31.7552L14.188 31.0228C15.4909 30.8335 16.6171 30.0153 17.1998 28.8347L19.4536 24.2679Z" fill="url(#paint3_linear_4_151)"/>
</g>
<mask id="path-7-outside-3_4_151" maskUnits="userSpaceOnUse" x="82.5747" y="20.0116" width="39" height="40" fill="black">
<rect fill="white" x="82.5747" y="20.0116" width="39" height="40"/>
<path fill-rule="evenodd" clip-rule="evenodd" d="M105.483 24.2413C104.016 21.2683 99.7764 21.2683 98.3091 24.2413L96.0553 28.808C95.4727 29.9886 94.3464 30.8069 93.0436 30.9962L88.0039 31.7285C85.4758 32.0959 84.1179 34.5741 84.714 36.7507C84.3629 38.0599 84.6594 39.5467 85.787 40.6458L89.4338 44.2005C89.9642 44.7176 90.3324 45.3629 90.5133 46.0595L89.7233 50.6658C89.6203 51.2661 89.652 51.8402 89.7906 52.368L89.7233 52.7604C89.1628 56.028 92.5926 58.5199 95.5271 56.9771L100.035 54.6073C101.2 53.9947 102.592 53.9947 103.757 54.6073L108.265 56.9771C111.2 58.5199 114.629 56.028 114.069 52.7604L114.002 52.368C114.14 51.8402 114.172 51.2661 114.069 50.6658L113.279 46.0595C113.46 45.3629 113.828 44.7176 114.358 44.2005L118.005 40.6458C119.133 39.5467 119.429 38.0599 119.078 36.7507C119.674 34.5741 118.316 32.0959 115.788 31.7285L110.749 30.9962C109.446 30.8069 108.319 29.9886 107.737 28.808L105.483 24.2413Z"/>
</mask>
<path fill-rule="evenodd" clip-rule="evenodd" d="M105.483 24.2413C104.016 21.2683 99.7764 21.2683 98.3091 24.2413L96.0553 28.808C95.4727 29.9886 94.3464 30.8069 93.0436 30.9962L88.0039 31.7285C85.4758 32.0959 84.1179 34.5741 84.714 36.7507C84.3629 38.0599 84.6594 39.5467 85.787 40.6458L89.4338 44.2005C89.9642 44.7176 90.3324 45.3629 90.5133 46.0595L89.7233 50.6658C89.6203 51.2661 89.652 51.8402 89.7906 52.368L89.7233 52.7604C89.1628 56.028 92.5926 58.5199 95.5271 56.9771L100.035 54.6073C101.2 53.9947 102.592 53.9947 103.757 54.6073L108.265 56.9771C111.2 58.5199 114.629 56.028 114.069 52.7604L114.002 52.368C114.14 51.8402 114.172 51.2661 114.069 50.6658L113.279 46.0595C113.46 45.3629 113.828 44.7176 114.358 44.2005L118.005 40.6458C119.133 39.5467 119.429 38.0599 119.078 36.7507C119.674 34.5741 118.316 32.0959 115.788 31.7285L110.749 30.9962C109.446 30.8069 108.319 29.9886 107.737 28.808L105.483 24.2413Z" fill="url(#paint4_linear_4_151)"/>
<path d="M98.3091 24.2413L100.103 25.1264V25.1264L98.3091 24.2413ZM105.483 24.2413L103.69 25.1264V25.1264L105.483 24.2413ZM96.0553 28.808L97.8488 29.6932L96.0553 28.808ZM93.0436 30.9962L92.756 29.017L93.0436 30.9962ZM88.0039 31.7285L88.2915 33.7077L88.0039 31.7285ZM84.714 36.7507L86.6458 37.2688L86.7862 36.7452L86.643 36.2224L84.714 36.7507ZM85.787 40.6458L84.391 42.078H84.391L85.787 40.6458ZM89.4338 44.2005L90.8298 42.7684L89.4338 44.2005ZM90.5133 46.0595L92.4846 46.3976L92.5573 45.9734L92.4491 45.5567L90.5133 46.0595ZM89.7233 50.6658L87.7521 50.3278V50.3278L89.7233 50.6658ZM89.7906 52.368L91.7618 52.7061L91.835 52.2791L91.725 51.8601L89.7906 52.368ZM89.7233 52.7604L87.7521 52.4223H87.7521L89.7233 52.7604ZM95.5271 56.9771L94.5964 55.2068L95.5271 56.9771ZM100.035 54.6073L100.965 56.3776L100.965 56.3776L100.035 54.6073ZM103.757 54.6073L102.827 56.3776H102.827L103.757 54.6073ZM108.265 56.9771L109.196 55.2068H109.196L108.265 56.9771ZM114.069 52.7604L116.04 52.4223V52.4223L114.069 52.7604ZM114.002 52.368L112.067 51.8601L111.957 52.2791L112.03 52.7061L114.002 52.368ZM114.069 50.6658L112.098 51.0039V51.0039L114.069 50.6658ZM113.279 46.0595L111.343 45.5567L111.235 45.9734L111.308 46.3976L113.279 46.0595ZM114.358 44.2005L115.754 45.6327L115.754 45.6327L114.358 44.2005ZM118.005 40.6458L116.609 39.2137L118.005 40.6458ZM119.078 36.7507L117.149 36.2224L117.006 36.7452L117.146 37.2688L119.078 36.7507ZM115.788 31.7285L116.076 29.7493H116.076L115.788 31.7285ZM110.749 30.9962L111.036 29.017L110.749 30.9962ZM107.737 28.808L109.53 27.9229V27.9229L107.737 28.808ZM100.103 25.1264C100.836 23.6399 102.956 23.6399 103.69 25.1264L107.277 23.3562C105.076 18.8967 98.7165 18.8967 96.5157 23.3562L100.103 25.1264ZM97.8488 29.6932L100.103 25.1264L96.5157 23.3562L94.2619 27.9229L97.8488 29.6932ZM93.3312 32.9754C95.2854 32.6914 96.9748 31.464 97.8488 29.6932L94.2619 27.9229C93.9705 28.5132 93.4074 28.9223 92.756 29.017L93.3312 32.9754ZM88.2915 33.7077L93.3312 32.9754L92.756 29.017L87.7163 29.7493L88.2915 33.7077ZM86.643 36.2224C86.3376 35.1075 87.0507 33.888 88.2915 33.7077L87.7163 29.7493C83.9009 30.3037 81.8982 34.0406 82.785 37.279L86.643 36.2224ZM87.1831 39.2137C86.6149 38.6599 86.4668 37.9362 86.6458 37.2688L82.7823 36.2327C82.2591 38.1837 82.7039 40.4335 84.391 42.078L87.1831 39.2137ZM90.8298 42.7684L87.1831 39.2137L84.391 42.078L88.0378 45.6327L90.8298 42.7684ZM92.4491 45.5567C92.1778 44.5122 91.6255 43.544 90.8298 42.7684L88.0378 45.6327C88.3029 45.8912 88.487 46.2136 88.5776 46.5623L92.4491 45.5567ZM91.6945 51.0039L92.4846 46.3976L88.5421 45.7214L87.7521 50.3278L91.6945 51.0039ZM91.725 51.8601C91.659 51.6084 91.6398 51.3228 91.6945 51.0039L87.7521 50.3278C87.6008 51.2095 87.6451 52.0721 87.8562 52.8759L91.725 51.8601ZM91.6945 53.0985L91.7618 52.7061L87.8194 52.0299L87.7521 52.4223L91.6945 53.0985ZM94.5964 55.2068C93.1291 55.9782 91.4143 54.7323 91.6945 53.0985L87.7521 52.4223C86.9114 57.3238 92.056 61.0615 96.4578 58.7474L94.5964 55.2068ZM99.104 52.837L94.5964 55.2068L96.4578 58.7474L100.965 56.3776L99.104 52.837ZM104.688 52.837C102.94 51.9181 100.852 51.9181 99.104 52.837L100.965 56.3776C101.548 56.0713 102.244 56.0713 102.827 56.3776L104.688 52.837ZM109.196 55.2068L104.688 52.837L102.827 56.3776L107.334 58.7474L109.196 55.2068ZM112.098 53.0985C112.378 54.7323 110.663 55.9782 109.196 55.2068L107.334 58.7474C111.736 61.0615 116.881 57.3237 116.04 52.4223L112.098 53.0985ZM112.03 52.7061L112.098 53.0985L116.04 52.4223L115.973 52.0299L112.03 52.7061ZM112.098 51.0039C112.152 51.3228 112.133 51.6084 112.067 51.8601L115.936 52.8759C116.147 52.0721 116.191 51.2095 116.04 50.3277L112.098 51.0039ZM111.308 46.3976L112.098 51.0039L116.04 50.3278L115.25 45.7214L111.308 46.3976ZM112.962 42.7684C112.167 43.544 111.614 44.5122 111.343 45.5567L115.215 46.5623C115.305 46.2136 115.489 45.8912 115.754 45.6327L112.962 42.7684ZM116.609 39.2137L112.962 42.7684L115.754 45.6327L119.401 42.078L116.609 39.2137ZM117.146 37.2688C117.325 37.9362 117.177 38.6599 116.609 39.2137L119.401 42.078C121.088 40.4335 121.533 38.1837 121.01 36.2327L117.146 37.2688ZM115.501 33.7077C116.741 33.888 117.455 35.1075 117.149 36.2224L121.007 37.279C121.894 34.0406 119.891 30.3037 116.076 29.7493L115.501 33.7077ZM110.461 32.9754L115.501 33.7077L116.076 29.7493L111.036 29.017L110.461 32.9754ZM105.943 29.6932C106.817 31.464 108.507 32.6914 110.461 32.9754L111.036 29.017C110.385 28.9223 109.822 28.5132 109.53 27.9229L105.943 29.6932ZM103.69 25.1264L105.943 29.6932L109.53 27.9229L107.277 23.3562L103.69 25.1264Z" fill="white" mask="url(#path-7-outside-3_4_151)"/>
<g filter="url(#filter2_d_4_151)">
<path d="M98.4536 24.2679C99.9208 21.295 104.16 21.295 105.627 24.2679L107.881 28.8347C108.464 30.0153 109.59 30.8335 110.893 31.0228L115.933 31.7552C119.214 32.2319 120.524 36.2638 118.15 38.5779L114.503 42.1326C113.56 43.0516 113.13 44.3756 113.352 45.6732L114.213 50.6925C114.774 53.9601 111.344 56.452 108.41 54.9092L103.902 52.5394C102.737 51.9268 101.344 51.9268 100.179 52.5394L95.6715 54.9092C92.737 56.452 89.3073 53.9601 89.8677 50.6925L90.7286 45.6732C90.9512 44.3756 90.521 43.0516 89.5782 42.1326L85.9315 38.5779C83.5574 36.2638 84.8675 32.2319 88.1483 31.7552L93.188 31.0228C94.4909 30.8335 95.6171 30.0153 96.1998 28.8347L98.4536 24.2679Z" fill="url(#paint5_linear_4_151)"/>
</g>
<defs>
<filter id="filter0_d_4_151" x="41.296" y="5.03821" width="43.408" height="44.6755" filterUnits="userSpaceOnUse" color-interpolation-filters="sRGB">
<feFlood flood-opacity="0" result="BackgroundImageFix"/>
<feColorMatrix in="SourceAlpha" type="matrix" values="0 0 0 0 0 0 0 0 0 0 0 0 0 0 0 0 0 0 127 0" result="hardAlpha"/>
<feOffset dy="3"/>
<feComposite in2="hardAlpha" operator="out"/>
<feColorMatrix type="matrix" values="0 0 0 0 1 0 0 0 0 0.392 0 0 0 0 0.2 0 0 0 1 0"/>
<feBlend mode="normal" in2="BackgroundImageFix" result="effect1_dropShadow_4_151"/>
<feBlend mode="normal" in="SourceGraphic" in2="effect1_dropShadow_4_151" result="shape"/>
</filter>
<filter id="filter1_d_4_151" x="5.71912" y="22.0382" width="34.6428" height="36.3394" filterUnits="userSpaceOnUse" color-interpolation-filters="sRGB">
<feFlood flood-opacity="0" result="BackgroundImageFix"/>
<feColorMatrix in="SourceAlpha" type="matrix" values="0 0 0 0 0 0 0 0 0 0 0 0 0 0 0 0 0 0 127 0" result="hardAlpha"/>
<feOffset dy="3"/>
<feComposite in2="hardAlpha" operator="out"/>
<feColorMatrix type="matrix" values="0 0 0 0 1 0 0 0 0 0.392 0 0 0 0 0.2 0 0 0 1 0"/>
<feBlend mode="normal" in2="BackgroundImageFix" result="effect1_dropShadow_4_151"/>
<feBlend mode="normal" in="SourceGraphic" in2="effect1_dropShadow_4_151" result="shape"/>
</filter>
<filter id="filter2_d_4_151" x="84.7191" y="22.0382" width="34.6428" height="36.3394" filterUnits="userSpaceOnUse" color-interpolation-filters="sRGB">
<feFlood flood-opacity="0" result="BackgroundImageFix"/>
<feColorMatrix in="SourceAlpha" type="matrix" values="0 0 0 0 0 0 0 0 0 0 0 0 0 0 0 0 0 0 127 0" result="hardAlpha"/>
<feOffset dy="3"/>
<feComposite in2="hardAlpha" operator="out"/>
<feColorMatrix type="matrix" values="0 0 0 0 1 0 0 0 0 0.392 0 0 0 0 0.2 0 0 0 1 0"/>
<feBlend mode="normal" in2="BackgroundImageFix" result="effect1_dropShadow_4_151"/>
<feBlend mode="normal" in="SourceGraphic" in2="effect1_dropShadow_4_151" result="shape"/>
</filter>
<linearGradient id="paint0_linear_4_151" x1="62.8266" y1="0.910281" x2="62.8266" y2="54.5651" gradientUnits="userSpaceOnUse">
<stop offset="0.25" stop-color="#FFEE37"/>
<stop offset="1" stop-color="#F78A3B"/>
</linearGradient>
<linearGradient id="paint1_linear_4_151" x1="63" y1="0" x2="63" y2="55.2973" gradientUnits="userSpaceOnUse">
<stop offset="0.25" stop-color="#FFEE37"/>
<stop offset="1" stop-color="#F78A3B"/>
</linearGradient>
<linearGradient id="paint2_linear_4_151" x1="22.8959" y1="18.7272" x2="22.8959" y2="61.7515" gradientUnits="userSpaceOnUse">
<stop offset="0.25" stop-color="#FFEE37"/>
<stop offset="1" stop-color="#F78A3B"/>
</linearGradient>
<linearGradient id="paint3_linear_4_151" x1="23.0405" y1="17" x2="23.0405" y2="63.0811" gradientUnits="userSpaceOnUse">
<stop offset="0.25" stop-color="#FFEE37"/>
<stop offset="1" stop-color="#F78A3B"/>
</linearGradient>
<linearGradient id="paint4_linear_4_151" x1="101.896" y1="18.7272" x2="101.896" y2="61.7515" gradientUnits="userSpaceOnUse">
<stop offset="0.25" stop-color="#FFEE37"/>
<stop offset="1" stop-color="#F78A3B"/>
</linearGradient>
<linearGradient id="paint5_linear_4_151" x1="102.041" y1="17" x2="102.041" y2="63.0811" gradientUnits="userSpaceOnUse">
<stop offset="0.25" stop-color="#FFEE37"/>
<stop offset="1" stop-color="#F78A3B"/>
</linearGradient>
</defs>
</svg>
