<svg width="119" height="57" viewBox="0 0 119 57" fill="none" xmlns="http://www.w3.org/2000/svg">
<mask id="path-1-outside-1_4_123" maskUnits="userSpaceOnUse" x="36.1511" y="0.385834" width="48" height="49" fill="black">
<rect fill="white" x="36.1511" y="0.385834" width="48" height="49"/>
<path fill-rule="evenodd" clip-rule="evenodd" d="M63.442 4.61557C61.9748 1.64259 57.7354 1.64259 56.2681 4.61557L52.66 11.9264C52.0774 13.107 50.9511 13.9252 49.6483 14.1146L41.5803 15.2869C38.9717 15.666 37.609 18.2926 38.3534 20.5162C37.9096 21.8745 38.1745 23.4642 39.3634 24.6232L45.2015 30.3139C45.6915 30.7915 46.043 31.3785 46.2364 32.0143L44.9737 39.3763C44.8604 40.0367 44.9102 40.6655 45.0859 41.2357L44.9737 41.8898C44.4133 45.1574 47.843 47.6492 50.7775 46.1065L57.9937 42.3127C59.159 41.7 60.5511 41.7 61.7164 42.3127L68.9327 46.1065C71.8672 47.6492 75.2969 45.1574 74.7365 41.8898L74.6243 41.2357C74.8 40.6655 74.8497 40.0367 74.7365 39.3763L73.4738 32.0143C73.6672 31.3785 74.0187 30.7915 74.5087 30.3139L80.3467 24.6232C81.5357 23.4642 81.8006 21.8745 81.3568 20.5162C82.1012 18.2926 80.7385 15.666 78.1299 15.2869L70.0619 14.1146C68.759 13.9252 67.6328 13.107 67.0501 11.9264L63.442 4.61557Z"/>
</mask>
<path fill-rule="evenodd" clip-rule="evenodd" d="M63.442 4.61557C61.9748 1.64259 57.7354 1.64259 56.2681 4.61557L52.66 11.9264C52.0774 13.107 50.9511 13.9252 49.6483 14.1146L41.5803 15.2869C38.9717 15.666 37.609 18.2926 38.3534 20.5162C37.9096 21.8745 38.1745 23.4642 39.3634 24.6232L45.2015 30.3139C45.6915 30.7915 46.043 31.3785 46.2364 32.0143L44.9737 39.3763C44.8604 40.0367 44.9102 40.6655 45.0859 41.2357L44.9737 41.8898C44.4133 45.1574 47.843 47.6492 50.7775 46.1065L57.9937 42.3127C59.159 41.7 60.5511 41.7 61.7164 42.3127L68.9327 46.1065C71.8672 47.6492 75.2969 45.1574 74.7365 41.8898L74.6243 41.2357C74.8 40.6655 74.8497 40.0367 74.7365 39.3763L73.4738 32.0143C73.6672 31.3785 74.0187 30.7915 74.5087 30.3139L80.3467 24.6232C81.5357 23.4642 81.8006 21.8745 81.3568 20.5162C82.1012 18.2926 80.7385 15.666 78.1299 15.2869L70.0619 14.1146C68.759 13.9252 67.6328 13.107 67.0501 11.9264L63.442 4.61557Z" fill="#7A54FD"/>
<path d="M56.2681 4.61557L58.0616 5.5007L58.0616 5.5007L56.2681 4.61557ZM63.442 4.61557L65.2355 3.73044L65.2355 3.73044L63.442 4.61557ZM52.66 11.9264L50.8666 11.0413L50.8666 11.0413L52.66 11.9264ZM49.6483 14.1146L49.3607 12.1353L49.3607 12.1353L49.6483 14.1146ZM41.5803 15.2869L41.8679 17.2661L41.8679 17.2661L41.5803 15.2869ZM38.3534 20.5162L40.2545 21.1374L40.46 20.5086L40.2499 19.8813L38.3534 20.5162ZM39.3634 24.6232L40.7595 23.191L40.7595 23.191L39.3634 24.6232ZM45.2015 30.3139L46.5975 28.8817L46.5975 28.8817L45.2015 30.3139ZM46.2364 32.0143L48.2076 32.3524L48.2877 31.8855L48.1498 31.4324L46.2364 32.0143ZM44.9737 39.3763L46.9449 39.7144L46.9449 39.7144L44.9737 39.3763ZM45.0859 41.2357L47.0571 41.5738L47.1378 41.1031L46.9972 40.6467L45.0859 41.2357ZM44.9737 41.8898L43.0025 41.5517L43.0025 41.5517L44.9737 41.8898ZM50.7775 46.1065L51.7082 47.8767L51.7082 47.8767L50.7775 46.1065ZM57.9937 42.3127L57.063 40.5424L57.063 40.5424L57.9937 42.3127ZM61.7164 42.3127L60.7858 44.0829L60.7858 44.0829L61.7164 42.3127ZM68.9327 46.1065L68.002 47.8767L68.002 47.8767L68.9327 46.1065ZM74.7365 41.8898L72.7652 42.2278L72.7652 42.2278L74.7365 41.8898ZM74.6243 41.2357L72.713 40.6467L72.5723 41.1031L72.6531 41.5738L74.6243 41.2357ZM74.7365 39.3763L76.7077 39.0382L76.7077 39.0382L74.7365 39.3763ZM73.4738 32.0143L71.5603 31.4324L71.4225 31.8855L71.5026 32.3524L73.4738 32.0143ZM74.5087 30.3139L73.1126 28.8817L73.1126 28.8817L74.5087 30.3139ZM80.3467 24.6232L81.7427 26.0553L81.7427 26.0553L80.3467 24.6232ZM81.3568 20.5162L79.4602 19.8813L79.2502 20.5086L79.4557 21.1374L81.3568 20.5162ZM78.1299 15.2869L77.8423 17.2661L77.8423 17.2661L78.1299 15.2869ZM70.0619 14.1146L69.7743 16.0938L69.7743 16.0938L70.0619 14.1146ZM67.0501 11.9264L65.2567 12.8115L65.2567 12.8115L67.0501 11.9264ZM58.0616 5.5007C58.7952 4.01421 60.9149 4.01421 61.6486 5.5007L65.2355 3.73044C63.0346 -0.729034 56.6755 -0.729035 54.4747 3.73044L58.0616 5.5007ZM54.4535 12.8115L58.0616 5.5007L54.4747 3.73044L50.8666 11.0413L54.4535 12.8115ZM49.9359 16.0938C51.8901 15.8098 53.5795 14.5824 54.4535 12.8115L50.8666 11.0413C50.5752 11.6316 50.0121 12.0407 49.3607 12.1353L49.9359 16.0938ZM41.8679 17.2661L49.9359 16.0938L49.3607 12.1353L41.2927 13.3077L41.8679 17.2661ZM40.2499 19.8813C39.8707 18.7485 40.5869 17.4523 41.8679 17.2661L41.2927 13.3077C37.3564 13.8797 35.3472 17.8366 36.4569 21.1511L40.2499 19.8813ZM40.7595 23.191C40.163 22.6095 40.0266 21.8347 40.2545 21.1374L36.4523 19.895C35.7925 21.9143 36.1861 24.3189 37.9674 26.0553L40.7595 23.191ZM46.5975 28.8817L40.7595 23.191L37.9674 26.0553L43.8055 31.746L46.5975 28.8817ZM48.1498 31.4324C47.8598 30.4789 47.3325 29.5981 46.5975 28.8817L43.8055 31.746C44.0505 31.9848 44.2261 32.2781 44.3229 32.5963L48.1498 31.4324ZM46.9449 39.7144L48.2076 32.3524L44.2652 31.6762L43.0025 39.0382L46.9449 39.7144ZM46.9972 40.6467C46.9136 40.3754 46.8849 40.0642 46.9449 39.7144L43.0025 39.0382C42.8359 40.0093 42.9068 40.9557 43.1746 41.8247L46.9972 40.6467ZM46.9449 42.2278L47.0571 41.5738L43.1147 40.8976L43.0025 41.5517L46.9449 42.2278ZM49.8468 44.3362C48.3796 45.1076 46.6647 43.8617 46.9449 42.2278L43.0025 41.5517C42.1618 46.4531 47.3064 50.1909 51.7082 47.8767L49.8468 44.3362ZM57.063 40.5424L49.8468 44.3362L51.7082 47.8767L58.9244 44.0829L57.063 40.5424ZM62.6471 40.5424C60.8992 39.6235 58.811 39.6235 57.063 40.5424L58.9244 44.0829C59.507 43.7766 60.2031 43.7766 60.7858 44.0829L62.6471 40.5424ZM69.8633 44.3362L62.6471 40.5424L60.7858 44.0829L68.002 47.8767L69.8633 44.3362ZM72.7652 42.2278C73.0455 43.8617 71.3306 45.1076 69.8633 44.3362L68.002 47.8767C72.4037 50.1909 77.5483 46.4531 76.7077 41.5517L72.7652 42.2278ZM72.6531 41.5738L72.7652 42.2278L76.7077 41.5517L76.5955 40.8976L72.6531 41.5738ZM72.7652 39.7144C72.8252 40.0642 72.7966 40.3754 72.713 40.6467L76.5356 41.8247C76.8034 40.9557 76.8742 40.0093 76.7077 39.0382L72.7652 39.7144ZM71.5026 32.3524L72.7652 39.7144L76.7077 39.0382L75.445 31.6762L71.5026 32.3524ZM73.1126 28.8817C72.3777 29.5981 71.8503 30.4789 71.5603 31.4324L75.3872 32.5963C75.484 32.2781 75.6597 31.9848 75.9047 31.746L73.1126 28.8817ZM78.9507 23.191L73.1126 28.8817L75.9047 31.746L81.7427 26.0553L78.9507 23.191ZM79.4557 21.1374C79.6835 21.8347 79.5472 22.6095 78.9507 23.191L81.7427 26.0553C83.5241 24.3189 83.9177 21.9143 83.2578 19.895L79.4557 21.1374ZM77.8423 17.2661C79.1233 17.4523 79.8394 18.7485 79.4602 19.8813L83.2533 21.1511C84.3629 17.8366 82.3537 13.8797 78.4175 13.3077L77.8423 17.2661ZM69.7743 16.0938L77.8423 17.2661L78.4175 13.3077L70.3495 12.1353L69.7743 16.0938ZM65.2567 12.8115C66.1306 14.5824 67.82 15.8098 69.7743 16.0938L70.3495 12.1353C69.6981 12.0407 69.1349 11.6316 68.8436 11.0413L65.2567 12.8115ZM61.6486 5.5007L65.2567 12.8115L68.8436 11.0413L65.2355 3.73044L61.6486 5.5007Z" fill="white" mask="url(#path-1-outside-1_4_123)"/>
<mask id="path-3-outside-2_4_123" maskUnits="userSpaceOnUse" x="0.603271" y="17.3913" width="39" height="40" fill="black">
<rect fill="white" x="0.603271" y="17.3913" width="39" height="40"/>
<path fill-rule="evenodd" clip-rule="evenodd" d="M23.5116 21.6211C22.0443 18.6481 17.805 18.6481 16.3377 21.6211L14.0839 26.1878C13.5012 27.3684 12.375 28.1866 11.0721 28.376L6.03245 29.1083C3.50437 29.4756 2.14647 31.9538 2.74258 34.1305C2.39148 35.4397 2.68795 36.9264 3.8156 38.0256L7.46235 41.5803C7.99278 42.0974 8.36096 42.7426 8.5419 43.4393L7.75185 48.0456C7.64889 48.6459 7.6806 49.22 7.81916 49.7477L7.75185 50.1402C7.19141 53.4078 10.6211 55.8996 13.5557 54.3569L18.0633 51.9871C19.2286 51.3744 20.6207 51.3744 21.786 51.9871L26.2937 54.3569C29.2282 55.8996 32.6579 53.4078 32.0975 50.1402L32.0301 49.7477C32.1687 49.22 32.2004 48.6459 32.0975 48.0456L31.3074 43.4393C31.4883 42.7426 31.8565 42.0974 32.387 41.5803L36.0337 38.0256C37.1614 36.9264 37.4578 35.4397 37.1067 34.1305C37.7028 31.9538 36.3449 29.4756 33.8169 29.1083L28.7772 28.376C27.4743 28.1866 26.3481 27.3684 25.7654 26.1878L23.5116 21.6211Z"/>
</mask>
<path fill-rule="evenodd" clip-rule="evenodd" d="M23.5116 21.6211C22.0443 18.6481 17.805 18.6481 16.3377 21.6211L14.0839 26.1878C13.5012 27.3684 12.375 28.1866 11.0721 28.376L6.03245 29.1083C3.50437 29.4756 2.14647 31.9538 2.74258 34.1305C2.39148 35.4397 2.68795 36.9264 3.8156 38.0256L7.46235 41.5803C7.99278 42.0974 8.36096 42.7426 8.5419 43.4393L7.75185 48.0456C7.64889 48.6459 7.6806 49.22 7.81916 49.7477L7.75185 50.1402C7.19141 53.4078 10.6211 55.8996 13.5557 54.3569L18.0633 51.9871C19.2286 51.3744 20.6207 51.3744 21.786 51.9871L26.2937 54.3569C29.2282 55.8996 32.6579 53.4078 32.0975 50.1402L32.0301 49.7477C32.1687 49.22 32.2004 48.6459 32.0975 48.0456L31.3074 43.4393C31.4883 42.7426 31.8565 42.0974 32.387 41.5803L36.0337 38.0256C37.1614 36.9264 37.4578 35.4397 37.1067 34.1305C37.7028 31.9538 36.3449 29.4756 33.8169 29.1083L28.7772 28.376C27.4743 28.1866 26.3481 27.3684 25.7654 26.1878L23.5116 21.6211Z" fill="#7A54FD"/>
<path d="M16.3377 21.6211L18.1312 22.5062L18.1312 22.5062L16.3377 21.6211ZM23.5116 21.6211L21.7181 22.5062L21.7181 22.5062L23.5116 21.6211ZM14.0839 26.1878L15.8774 27.0729L15.8774 27.0729L14.0839 26.1878ZM11.0721 28.376L10.7845 26.3967L10.7845 26.3967L11.0721 28.376ZM6.03245 29.1083L6.32004 31.0875L6.03245 29.1083ZM2.74258 34.1305L4.67432 34.6485L4.81473 34.125L4.67155 33.6022L2.74258 34.1305ZM3.8156 38.0256L2.41957 39.4578L2.41957 39.4578L3.8156 38.0256ZM7.46235 41.5803L8.85837 40.1481L8.85837 40.1481L7.46235 41.5803ZM8.5419 43.4393L10.5131 43.7774L10.5859 43.3531L10.4777 42.9365L8.5419 43.4393ZM7.75185 48.0456L5.78064 47.7075L5.78064 47.7075L7.75185 48.0456ZM7.81916 49.7477L9.79038 50.0858L9.86361 49.6588L9.75359 49.2398L7.81916 49.7477ZM7.75185 50.1402L5.78064 49.8021L5.78064 49.8021L7.75185 50.1402ZM13.5557 54.3569L12.625 52.5866L12.625 52.5866L13.5557 54.3569ZM18.0633 51.9871L18.994 53.7573L18.994 53.7573L18.0633 51.9871ZM21.786 51.9871L20.8553 53.7573L20.8553 53.7573L21.786 51.9871ZM26.2937 54.3569L27.2243 52.5866L27.2243 52.5866L26.2937 54.3569ZM32.0975 50.1402L34.0687 49.8021L34.0687 49.8021L32.0975 50.1402ZM32.0301 49.7477L30.0957 49.2398L29.9857 49.6588L30.0589 50.0858L32.0301 49.7477ZM32.0975 48.0456L30.1262 48.3837L30.1262 48.3837L32.0975 48.0456ZM31.3074 43.4393L29.3716 42.9365L29.2634 43.3531L29.3362 43.7774L31.3074 43.4393ZM32.387 41.5803L33.783 43.0125L33.783 43.0125L32.387 41.5803ZM36.0337 38.0256L34.6377 36.5934L34.6377 36.5934L36.0337 38.0256ZM37.1067 34.1305L35.1778 33.6022L35.0346 34.125L35.175 34.6485L37.1067 34.1305ZM33.8169 29.1083L34.1045 27.1291L34.1045 27.1291L33.8169 29.1083ZM28.7772 28.376L29.0648 26.3967L28.7772 28.376ZM25.7654 26.1878L27.5589 25.3027L27.5589 25.3027L25.7654 26.1878ZM18.1312 22.5062C18.8648 21.0197 20.9845 21.0197 21.7181 22.5062L25.3051 20.7359C23.1042 16.2764 16.7451 16.2765 14.5442 20.7359L18.1312 22.5062ZM15.8774 27.0729L18.1312 22.5062L14.5442 20.7359L12.2904 25.3027L15.8774 27.0729ZM11.3597 30.3552C13.314 30.0712 15.0034 28.8438 15.8774 27.0729L12.2904 25.3027C11.9991 25.893 11.436 26.3021 10.7845 26.3967L11.3597 30.3552ZM6.32004 31.0875L11.3597 30.3552L10.7845 26.3967L5.74485 27.1291L6.32004 31.0875ZM4.67155 33.6022C4.36621 32.4873 5.07926 31.2678 6.32004 31.0875L5.74485 27.1291C1.92947 27.6835 -0.0732708 31.4204 0.813613 34.6588L4.67155 33.6022ZM5.21162 36.5934C4.64346 36.0396 4.49533 35.316 4.67432 34.6485L0.810841 33.6124C0.287628 35.5634 0.732437 37.8132 2.41957 39.4578L5.21162 36.5934ZM8.85837 40.1481L5.21162 36.5934L2.41957 39.4578L6.06632 43.0125L8.85837 40.1481ZM10.4777 42.9365C10.2064 41.8919 9.65406 40.9237 8.85837 40.1481L6.06632 43.0125C6.3315 43.271 6.51555 43.5933 6.60613 43.9421L10.4777 42.9365ZM9.72307 48.3837L10.5131 43.7774L6.57068 43.1012L5.78064 47.7075L9.72307 48.3837ZM9.75359 49.2398C9.68752 48.9882 9.66838 48.7025 9.72307 48.3837L5.78064 47.7075C5.62941 48.5892 5.67368 49.4518 5.88473 50.2556L9.75359 49.2398ZM9.72307 50.4783L9.79038 50.0858L5.84794 49.4096L5.78064 49.8021L9.72307 50.4783ZM12.625 52.5866C11.1577 53.358 9.44285 52.1121 9.72307 50.4783L5.78064 49.8021C4.93997 54.7035 10.0846 58.4413 14.4863 56.1271L12.625 52.5866ZM17.1326 50.2168L12.625 52.5866L14.4863 56.1271L18.994 53.7573L17.1326 50.2168ZM22.7167 50.2168C20.9688 49.2979 18.8805 49.2978 17.1326 50.2168L18.994 53.7573C19.5766 53.451 20.2727 53.451 20.8553 53.7573L22.7167 50.2168ZM27.2243 52.5866L22.7167 50.2168L20.8553 53.7573L25.363 56.1271L27.2243 52.5866ZM30.1262 50.4782C30.4065 52.1121 28.6916 53.358 27.2243 52.5866L25.363 56.1271C29.7647 58.4413 34.9093 54.7035 34.0687 49.8021L30.1262 50.4782ZM30.0589 50.0858L30.1262 50.4783L34.0687 49.8021L34.0014 49.4096L30.0589 50.0858ZM30.1262 48.3837C30.1809 48.7025 30.1618 48.9882 30.0957 49.2398L33.9646 50.2556C34.1756 49.4518 34.2199 48.5892 34.0687 47.7075L30.1262 48.3837ZM29.3362 43.7774L30.1262 48.3837L34.0687 47.7075L33.2786 43.1012L29.3362 43.7774ZM30.9909 40.1481C30.1952 40.9237 29.6429 41.8919 29.3716 42.9365L33.2432 43.9421C33.3338 43.5933 33.5178 43.271 33.783 43.0125L30.9909 40.1481ZM34.6377 36.5934L30.9909 40.1481L33.783 43.0125L37.4297 39.4578L34.6377 36.5934ZM35.175 34.6485C35.354 35.316 35.2058 36.0396 34.6377 36.5934L37.4297 39.4578C39.1169 37.8132 39.5617 35.5634 39.0385 33.6124L35.175 34.6485ZM33.5293 31.0875C34.77 31.2678 35.4831 32.4873 35.1778 33.6022L39.0357 34.6588C39.9226 31.4204 37.9198 27.6835 34.1045 27.1291L33.5293 31.0875ZM28.4896 30.3552L33.5293 31.0875L34.1045 27.1291L29.0648 26.3967L28.4896 30.3552ZM23.9719 27.0729C24.8459 28.8438 26.5353 30.0712 28.4896 30.3552L29.0648 26.3967C28.4133 26.3021 27.8502 25.893 27.5589 25.3027L23.9719 27.0729ZM21.7181 22.5062L23.9719 27.0729L27.5589 25.3027L25.3051 20.7359L21.7181 22.5062Z" fill="white" mask="url(#path-3-outside-2_4_123)"/>
<mask id="path-5-outside-3_4_123" maskUnits="userSpaceOnUse" x="79.6033" y="17.3913" width="39" height="40" fill="black">
<rect fill="white" x="79.6033" y="17.3913" width="39" height="40"/>
<path fill-rule="evenodd" clip-rule="evenodd" d="M102.512 21.6211C101.044 18.6481 96.805 18.6481 95.3377 21.6211L93.0839 26.1878C92.5012 27.3684 91.375 28.1866 90.0721 28.376L85.0324 29.1083C82.5044 29.4756 81.1465 31.9538 81.7426 34.1305C81.3915 35.4397 81.688 36.9264 82.8156 38.0256L86.4623 41.5803C86.9928 42.0974 87.361 42.7426 87.5419 43.4393L86.7519 48.0456C86.6489 48.6459 86.6806 49.22 86.8192 49.7477L86.7519 50.1402C86.1914 53.4078 89.6211 55.8996 92.5557 54.3569L97.0633 51.9871C98.2286 51.3744 99.6207 51.3744 100.786 51.9871L105.294 54.3569C108.228 55.8996 111.658 53.4078 111.097 50.1402L111.03 49.7477C111.169 49.22 111.2 48.6459 111.097 48.0456L110.307 43.4393C110.488 42.7426 110.857 42.0974 111.387 41.5803L115.034 38.0256C116.161 36.9264 116.458 35.4397 116.107 34.1305C116.703 31.9538 115.345 29.4756 112.817 29.1083L107.777 28.376C106.474 28.1866 105.348 27.3684 104.765 26.1878L102.512 21.6211Z"/>
</mask>
<path fill-rule="evenodd" clip-rule="evenodd" d="M102.512 21.6211C101.044 18.6481 96.805 18.6481 95.3377 21.6211L93.0839 26.1878C92.5012 27.3684 91.375 28.1866 90.0721 28.376L85.0324 29.1083C82.5044 29.4756 81.1465 31.9538 81.7426 34.1305C81.3915 35.4397 81.688 36.9264 82.8156 38.0256L86.4623 41.5803C86.9928 42.0974 87.361 42.7426 87.5419 43.4393L86.7519 48.0456C86.6489 48.6459 86.6806 49.22 86.8192 49.7477L86.7519 50.1402C86.1914 53.4078 89.6211 55.8996 92.5557 54.3569L97.0633 51.9871C98.2286 51.3744 99.6207 51.3744 100.786 51.9871L105.294 54.3569C108.228 55.8996 111.658 53.4078 111.097 50.1402L111.03 49.7477C111.169 49.22 111.2 48.6459 111.097 48.0456L110.307 43.4393C110.488 42.7426 110.857 42.0974 111.387 41.5803L115.034 38.0256C116.161 36.9264 116.458 35.4397 116.107 34.1305C116.703 31.9538 115.345 29.4756 112.817 29.1083L107.777 28.376C106.474 28.1866 105.348 27.3684 104.765 26.1878L102.512 21.6211Z" fill="#7A54FD"/>
<path d="M95.3377 21.6211L97.1312 22.5062L97.1312 22.5062L95.3377 21.6211ZM102.512 21.6211L100.718 22.5062L100.718 22.5062L102.512 21.6211ZM93.0839 26.1878L94.8774 27.0729L94.8774 27.0729L93.0839 26.1878ZM90.0721 28.376L89.7845 26.3967L89.7845 26.3967L90.0721 28.376ZM85.0324 29.1083L85.32 31.0875L85.0324 29.1083ZM81.7426 34.1305L83.6743 34.6485L83.8147 34.125L83.6716 33.6022L81.7426 34.1305ZM82.8156 38.0256L81.4196 39.4578L81.4196 39.4578L82.8156 38.0256ZM86.4623 41.5803L87.8584 40.1481L87.8584 40.1481L86.4623 41.5803ZM87.5419 43.4393L89.5131 43.7774L89.5859 43.3531L89.4777 42.9365L87.5419 43.4393ZM86.7519 48.0456L84.7806 47.7075L84.7806 47.7075L86.7519 48.0456ZM86.8192 49.7477L88.7904 50.0858L88.8636 49.6588L88.7536 49.2398L86.8192 49.7477ZM86.7519 50.1402L84.7806 49.8021L84.7806 49.8021L86.7519 50.1402ZM92.5557 54.3569L91.625 52.5866L91.625 52.5866L92.5557 54.3569ZM97.0633 51.9871L97.994 53.7573L97.994 53.7573L97.0633 51.9871ZM100.786 51.9871L99.8553 53.7573L99.8553 53.7573L100.786 51.9871ZM105.294 54.3569L106.224 52.5866L106.224 52.5866L105.294 54.3569ZM111.097 50.1402L113.069 49.8021L113.069 49.8021L111.097 50.1402ZM111.03 49.7477L109.096 49.2398L108.986 49.6588L109.059 50.0858L111.03 49.7477ZM111.097 48.0456L109.126 48.3837L109.126 48.3837L111.097 48.0456ZM110.307 43.4393L108.372 42.9365L108.263 43.3531L108.336 43.7774L110.307 43.4393ZM111.387 41.5803L112.783 43.0125L112.783 43.0125L111.387 41.5803ZM115.034 38.0256L113.638 36.5934L113.638 36.5934L115.034 38.0256ZM116.107 34.1305L114.178 33.6022L114.035 34.125L114.175 34.6485L116.107 34.1305ZM112.817 29.1083L113.104 27.1291L113.104 27.1291L112.817 29.1083ZM107.777 28.376L108.065 26.3967L107.777 28.376ZM104.765 26.1878L106.559 25.3027L106.559 25.3027L104.765 26.1878ZM97.1312 22.5062C97.8648 21.0197 99.9845 21.0197 100.718 22.5062L104.305 20.7359C102.104 16.2764 95.7451 16.2765 93.5442 20.7359L97.1312 22.5062ZM94.8774 27.0729L97.1312 22.5062L93.5442 20.7359L91.2904 25.3027L94.8774 27.0729ZM90.3597 30.3552C92.314 30.0712 94.0034 28.8438 94.8774 27.0729L91.2904 25.3027C90.9991 25.893 90.436 26.3021 89.7845 26.3967L90.3597 30.3552ZM85.32 31.0875L90.3597 30.3552L89.7845 26.3967L84.7448 27.1291L85.32 31.0875ZM83.6716 33.6022C83.3662 32.4873 84.0793 31.2678 85.32 31.0875L84.7448 27.1291C80.9295 27.6835 78.9267 31.4204 79.8136 34.6588L83.6716 33.6022ZM84.2116 36.5934C83.6435 36.0396 83.4953 35.316 83.6743 34.6485L79.8108 33.6124C79.2876 35.5634 79.7324 37.8132 81.4196 39.4578L84.2116 36.5934ZM87.8584 40.1481L84.2116 36.5934L81.4196 39.4578L85.0663 43.0125L87.8584 40.1481ZM89.4777 42.9365C89.2064 41.8919 88.6541 40.9237 87.8584 40.1481L85.0663 43.0125C85.3315 43.271 85.5155 43.5933 85.6061 43.9421L89.4777 42.9365ZM88.7231 48.3837L89.5131 43.7774L85.5707 43.1012L84.7806 47.7075L88.7231 48.3837ZM88.7536 49.2398C88.6875 48.9882 88.6684 48.7025 88.7231 48.3837L84.7806 47.7075C84.6294 48.5892 84.6737 49.4518 84.8847 50.2556L88.7536 49.2398ZM88.7231 50.4783L88.7904 50.0858L84.8479 49.4096L84.7806 49.8021L88.7231 50.4783ZM91.625 52.5866C90.1577 53.358 88.4428 52.1121 88.7231 50.4783L84.7806 49.8021C83.94 54.7035 89.0846 58.4413 93.4863 56.1271L91.625 52.5866ZM96.1326 50.2168L91.625 52.5866L93.4863 56.1271L97.994 53.7573L96.1326 50.2168ZM101.717 50.2168C99.9688 49.2979 97.8805 49.2978 96.1326 50.2168L97.994 53.7573C98.5766 53.451 99.2727 53.451 99.8553 53.7573L101.717 50.2168ZM106.224 52.5866L101.717 50.2168L99.8553 53.7573L104.363 56.1271L106.224 52.5866ZM109.126 50.4782C109.406 52.1121 107.692 53.358 106.224 52.5866L104.363 56.1271C108.765 58.4413 113.909 54.7035 113.069 49.8021L109.126 50.4782ZM109.059 50.0858L109.126 50.4783L113.069 49.8021L113.001 49.4096L109.059 50.0858ZM109.126 48.3837C109.181 48.7025 109.162 48.9882 109.096 49.2398L112.965 50.2556C113.176 49.4518 113.22 48.5892 113.069 47.7075L109.126 48.3837ZM108.336 43.7774L109.126 48.3837L113.069 47.7075L112.279 43.1012L108.336 43.7774ZM109.991 40.1481C109.195 40.9237 108.643 41.8919 108.372 42.9365L112.243 43.9421C112.334 43.5933 112.518 43.271 112.783 43.0125L109.991 40.1481ZM113.638 36.5934L109.991 40.1481L112.783 43.0125L116.43 39.4578L113.638 36.5934ZM114.175 34.6485C114.354 35.316 114.206 36.0396 113.638 36.5934L116.43 39.4578C118.117 37.8132 118.562 35.5634 118.038 33.6124L114.175 34.6485ZM112.529 31.0875C113.77 31.2678 114.483 32.4873 114.178 33.6022L118.036 34.6588C118.923 31.4204 116.92 27.6835 113.104 27.1291L112.529 31.0875ZM107.49 30.3552L112.529 31.0875L113.104 27.1291L108.065 26.3967L107.49 30.3552ZM102.972 27.0729C103.846 28.8438 105.535 30.0712 107.49 30.3552L108.065 26.3967C107.413 26.3021 106.85 25.893 106.559 25.3027L102.972 27.0729ZM100.718 22.5062L102.972 27.0729L106.559 25.3027L104.305 20.7359L100.718 22.5062Z" fill="white" mask="url(#path-5-outside-3_4_123)"/>
</svg>
