<svg width="126" height="64" viewBox="0 0 126 64" fill="none" xmlns="http://www.w3.org/2000/svg">
<mask id="path-1-outside-1_4_73" maskUnits="userSpaceOnUse" x="39.1511" y="3.38582" width="48" height="49" fill="black">
<rect fill="white" x="39.1511" y="3.38582" width="48" height="49"/>
<path fill-rule="evenodd" clip-rule="evenodd" d="M66.442 7.61556C64.9748 4.64257 60.7354 4.64257 59.2681 7.61556L55.66 14.9264C55.0774 16.107 53.9511 16.9252 52.6483 17.1145L44.5803 18.2869C41.9717 18.666 40.609 21.2925 41.3534 23.5162C40.9096 24.8745 41.1745 26.4642 42.3634 27.6232L48.2015 33.3138C48.6915 33.7914 49.043 34.3785 49.2364 35.0143L47.9737 42.3762C47.8604 43.0367 47.9102 43.6655 48.0859 44.2357L47.9737 44.8897C47.4133 48.1574 50.843 50.6492 53.7775 49.1064L60.9937 45.3127C62.159 44.7 63.5511 44.7 64.7164 45.3127L71.9327 49.1064C74.8672 50.6492 78.2969 48.1574 77.7365 44.8897L77.6243 44.2357C77.8 43.6655 77.8497 43.0367 77.7365 42.3762L76.4738 35.0143C76.6672 34.3785 77.0187 33.7914 77.5087 33.3138L83.3467 27.6232C84.5357 26.4642 84.8006 24.8745 84.3568 23.5162C85.1012 21.2925 83.7385 18.666 81.1299 18.2869L73.0619 17.1145C71.759 16.9252 70.6328 16.107 70.0501 14.9264L66.442 7.61556Z"/>
</mask>
<path fill-rule="evenodd" clip-rule="evenodd" d="M66.442 7.61556C64.9748 4.64257 60.7354 4.64257 59.2681 7.61556L55.66 14.9264C55.0774 16.107 53.9511 16.9252 52.6483 17.1145L44.5803 18.2869C41.9717 18.666 40.609 21.2925 41.3534 23.5162C40.9096 24.8745 41.1745 26.4642 42.3634 27.6232L48.2015 33.3138C48.6915 33.7914 49.043 34.3785 49.2364 35.0143L47.9737 42.3762C47.8604 43.0367 47.9102 43.6655 48.0859 44.2357L47.9737 44.8897C47.4133 48.1574 50.843 50.6492 53.7775 49.1064L60.9937 45.3127C62.159 44.7 63.5511 44.7 64.7164 45.3127L71.9327 49.1064C74.8672 50.6492 78.2969 48.1574 77.7365 44.8897L77.6243 44.2357C77.8 43.6655 77.8497 43.0367 77.7365 42.3762L76.4738 35.0143C76.6672 34.3785 77.0187 33.7914 77.5087 33.3138L83.3467 27.6232C84.5357 26.4642 84.8006 24.8745 84.3568 23.5162C85.1012 21.2925 83.7385 18.666 81.1299 18.2869L73.0619 17.1145C71.759 16.9252 70.6328 16.107 70.0501 14.9264L66.442 7.61556Z" fill="url(#paint0_linear_4_73)"/>
<path d="M59.2681 7.61556L61.0616 8.50069L61.0616 8.50069L59.2681 7.61556ZM66.442 7.61556L68.2355 6.73042L68.2355 6.73042L66.442 7.61556ZM55.66 14.9264L53.8666 14.0412L53.8666 14.0413L55.66 14.9264ZM52.6483 17.1145L52.3607 15.1353L52.3607 15.1353L52.6483 17.1145ZM44.5803 18.2869L44.8679 20.2661L44.8679 20.2661L44.5803 18.2869ZM41.3534 23.5162L43.2545 24.1374L43.46 23.5086L43.2499 22.8813L41.3534 23.5162ZM42.3634 27.6232L43.7595 26.191L43.7595 26.191L42.3634 27.6232ZM48.2015 33.3138L49.5975 31.8817L49.5975 31.8817L48.2015 33.3138ZM49.2364 35.0143L51.2076 35.3524L51.2877 34.8855L51.1498 34.4323L49.2364 35.0143ZM47.9737 42.3762L49.9449 42.7143L49.9449 42.7143L47.9737 42.3762ZM48.0859 44.2357L50.0571 44.5738L50.1378 44.1031L49.9972 43.6466L48.0859 44.2357ZM47.9737 44.8897L46.0025 44.5516L46.0025 44.5516L47.9737 44.8897ZM53.7775 49.1064L54.7082 50.8767L54.7082 50.8767L53.7775 49.1064ZM60.9937 45.3127L60.063 43.5424L60.063 43.5424L60.9937 45.3127ZM64.7164 45.3127L63.7858 47.0829L63.7858 47.0829L64.7164 45.3127ZM71.9327 49.1064L71.002 50.8767L71.002 50.8767L71.9327 49.1064ZM77.7365 44.8897L75.7652 45.2278L75.7652 45.2278L77.7365 44.8897ZM77.6243 44.2357L75.713 43.6467L75.5723 44.1031L75.6531 44.5738L77.6243 44.2357ZM77.7365 42.3762L79.7077 42.0382L79.7077 42.0382L77.7365 42.3762ZM76.4738 35.0143L74.5603 34.4323L74.4225 34.8855L74.5026 35.3524L76.4738 35.0143ZM77.5087 33.3138L76.1126 31.8817L76.1126 31.8817L77.5087 33.3138ZM83.3467 27.6232L84.7427 29.0553L84.7427 29.0553L83.3467 27.6232ZM84.3568 23.5162L82.4602 22.8813L82.2502 23.5086L82.4557 24.1374L84.3568 23.5162ZM81.1299 18.2869L80.8423 20.2661L80.8423 20.2661L81.1299 18.2869ZM73.0619 17.1145L72.7743 19.0938L72.7743 19.0938L73.0619 17.1145ZM70.0501 14.9264L68.2567 15.8115L68.2567 15.8115L70.0501 14.9264ZM61.0616 8.50069C61.7952 7.0142 63.9149 7.0142 64.6486 8.50069L68.2355 6.73042C66.0346 2.27095 59.6755 2.27095 57.4747 6.73042L61.0616 8.50069ZM57.4535 15.8115L61.0616 8.50069L57.4747 6.73042L53.8666 14.0412L57.4535 15.8115ZM52.9359 19.0938C54.8901 18.8098 56.5795 17.5824 57.4535 15.8115L53.8666 14.0413C53.5752 14.6315 53.0121 15.0407 52.3607 15.1353L52.9359 19.0938ZM44.8679 20.2661L52.9359 19.0938L52.3607 15.1353L44.2927 16.3077L44.8679 20.2661ZM43.2499 22.8813C42.8707 21.7485 43.5869 20.4522 44.8679 20.2661L44.2927 16.3077C40.3564 16.8797 38.3472 20.8366 39.4569 24.1511L43.2499 22.8813ZM43.7595 26.191C43.163 25.6095 43.0266 24.8346 43.2545 24.1374L39.4523 22.895C38.7925 24.9143 39.1861 27.3189 40.9674 29.0553L43.7595 26.191ZM49.5975 31.8817L43.7595 26.191L40.9674 29.0553L46.8055 34.746L49.5975 31.8817ZM51.1498 34.4323C50.8598 33.4789 50.3325 32.5981 49.5975 31.8817L46.8055 34.746C47.0505 34.9848 47.2261 35.278 47.3229 35.5963L51.1498 34.4323ZM49.9449 42.7143L51.2076 35.3524L47.2652 34.6762L46.0025 42.0382L49.9449 42.7143ZM49.9972 43.6466C49.9136 43.3754 49.8849 43.0642 49.9449 42.7143L46.0025 42.0382C45.8359 43.0093 45.9068 43.9556 46.1746 44.8247L49.9972 43.6466ZM49.9449 45.2278L50.0571 44.5738L46.1147 43.8976L46.0025 44.5516L49.9449 45.2278ZM52.8468 47.3362C51.3796 48.1076 49.6647 46.8616 49.9449 45.2278L46.0025 44.5516C45.1618 49.4531 50.3064 53.1909 54.7082 50.8767L52.8468 47.3362ZM60.063 43.5424L52.8468 47.3362L54.7082 50.8767L61.9244 47.0829L60.063 43.5424ZM65.6471 43.5424C63.8992 42.6234 61.811 42.6234 60.063 43.5424L61.9244 47.0829C62.507 46.7766 63.2031 46.7766 63.7858 47.0829L65.6471 43.5424ZM72.8633 47.3362L65.6471 43.5424L63.7858 47.0829L71.002 50.8767L72.8633 47.3362ZM75.7652 45.2278C76.0455 46.8616 74.3306 48.1076 72.8633 47.3362L71.002 50.8767C75.4037 53.1909 80.5483 49.4531 79.7077 44.5516L75.7652 45.2278ZM75.6531 44.5738L75.7652 45.2278L79.7077 44.5516L79.5955 43.8976L75.6531 44.5738ZM75.7652 42.7143C75.8252 43.0642 75.7966 43.3754 75.713 43.6467L79.5356 44.8247C79.8034 43.9556 79.8742 43.0093 79.7077 42.0382L75.7652 42.7143ZM74.5026 35.3524L75.7652 42.7143L79.7077 42.0382L78.445 34.6762L74.5026 35.3524ZM76.1126 31.8817C75.3777 32.5981 74.8503 33.4789 74.5603 34.4323L78.3872 35.5963C78.484 35.2781 78.6597 34.9848 78.9047 34.746L76.1126 31.8817ZM81.9507 26.191L76.1126 31.8817L78.9047 34.746L84.7427 29.0553L81.9507 26.191ZM82.4557 24.1374C82.6835 24.8346 82.5472 25.6095 81.9507 26.191L84.7427 29.0553C86.5241 27.3189 86.9177 24.9143 86.2578 22.895L82.4557 24.1374ZM80.8423 20.2661C82.1233 20.4522 82.8394 21.7485 82.4602 22.8813L86.2533 24.1511C87.3629 20.8366 85.3537 16.8797 81.4175 16.3077L80.8423 20.2661ZM72.7743 19.0938L80.8423 20.2661L81.4175 16.3077L73.3495 15.1353L72.7743 19.0938ZM68.2567 15.8115C69.1306 17.5824 70.82 18.8098 72.7743 19.0938L73.3495 15.1353C72.6981 15.0407 72.1349 14.6315 71.8436 14.0412L68.2567 15.8115ZM64.6486 8.50069L68.2567 15.8115L71.8436 14.0413L68.2355 6.73042L64.6486 8.50069Z" fill="white" mask="url(#path-1-outside-1_4_73)"/>
<g filter="url(#filter0_d_4_73)">
<path d="M59.4415 7.64767C60.9087 4.67469 65.1481 4.67469 66.6154 7.64767L70.2235 14.9585C70.8061 16.1391 71.9324 16.9573 73.2352 17.1467L81.3032 18.319C84.5841 18.7957 85.8941 22.8276 83.52 25.1418L77.682 30.8325C76.7393 31.7514 76.3091 33.0754 76.5316 34.373L77.9098 42.4084C78.4702 45.676 75.0405 48.1678 72.106 46.6251L64.8898 42.8313C63.7245 42.2186 62.3323 42.2186 61.167 42.8313L53.9508 46.6251C51.0163 48.1678 47.5866 45.676 48.147 42.4084L49.5252 34.373C49.7478 33.0754 49.3176 31.7514 48.3748 30.8325L42.5368 25.1418C40.1627 22.8276 41.4728 18.7957 44.7536 18.319L52.8216 17.1467C54.1244 16.9573 55.2507 16.1391 55.8334 14.9585L59.4415 7.64767Z" fill="url(#paint1_linear_4_73)"/>
</g>
<mask id="path-4-outside-2_4_73" maskUnits="userSpaceOnUse" x="3.60303" y="20.3913" width="39" height="40" fill="black">
<rect fill="white" x="3.60303" y="20.3913" width="39" height="40"/>
<path fill-rule="evenodd" clip-rule="evenodd" d="M26.5114 24.621C25.0441 21.648 20.8047 21.648 19.3375 24.621L17.0836 29.1878C16.501 30.3683 15.3747 31.1866 14.0719 31.3759L9.0322 32.1082C6.50412 32.4756 5.14623 34.9538 5.74234 37.1304C5.39123 38.4397 5.68771 39.9264 6.81535 41.0256L10.4621 44.5803C10.9925 45.0973 11.3607 45.7426 11.5417 46.4392L10.7516 51.0456C10.6487 51.6458 10.6804 52.22 10.8189 52.7477L10.7516 53.1401C10.1912 56.4077 13.6209 58.8996 16.5554 57.3568L21.063 54.987C22.2283 54.3744 23.6205 54.3744 24.7858 54.987L29.2934 57.3568C32.2279 58.8996 35.6576 56.4077 35.0972 53.1401L35.0299 52.7477C35.1685 52.22 35.2002 51.6458 35.0972 51.0456L34.3072 46.4392C34.4881 45.7426 34.8563 45.0973 35.3867 44.5803L39.0335 41.0256C40.1611 39.9264 40.4576 38.4397 40.1065 37.1304C40.7026 34.9538 39.3447 32.4756 36.8166 32.1082L31.7769 31.3759C30.4741 31.1866 29.3478 30.3683 28.7652 29.1877L26.5114 24.621Z"/>
</mask>
<path fill-rule="evenodd" clip-rule="evenodd" d="M26.5114 24.621C25.0441 21.648 20.8047 21.648 19.3375 24.621L17.0836 29.1878C16.501 30.3683 15.3747 31.1866 14.0719 31.3759L9.0322 32.1082C6.50412 32.4756 5.14623 34.9538 5.74234 37.1304C5.39123 38.4397 5.68771 39.9264 6.81535 41.0256L10.4621 44.5803C10.9925 45.0973 11.3607 45.7426 11.5417 46.4392L10.7516 51.0456C10.6487 51.6458 10.6804 52.22 10.8189 52.7477L10.7516 53.1401C10.1912 56.4077 13.6209 58.8996 16.5554 57.3568L21.063 54.987C22.2283 54.3744 23.6205 54.3744 24.7858 54.987L29.2934 57.3568C32.2279 58.8996 35.6576 56.4077 35.0972 53.1401L35.0299 52.7477C35.1685 52.22 35.2002 51.6458 35.0972 51.0456L34.3072 46.4392C34.4881 45.7426 34.8563 45.0973 35.3867 44.5803L39.0335 41.0256C40.1611 39.9264 40.4576 38.4397 40.1065 37.1304C40.7026 34.9538 39.3447 32.4756 36.8166 32.1082L31.7769 31.3759C30.4741 31.1866 29.3478 30.3683 28.7652 29.1877L26.5114 24.621Z" fill="url(#paint2_linear_4_73)"/>
<path d="M19.3375 24.621L21.1309 25.5062L21.1309 25.5062L19.3375 24.621ZM26.5114 24.621L24.7179 25.5061L24.7179 25.5061L26.5114 24.621ZM17.0836 29.1878L18.8771 30.0729L18.8771 30.0729L17.0836 29.1878ZM14.0719 31.3759L13.7843 29.3967L13.7843 29.3967L14.0719 31.3759ZM9.0322 32.1082L9.3198 34.0874L9.0322 32.1082ZM5.74234 37.1304L7.67408 37.6485L7.81448 37.125L7.67131 36.6022L5.74234 37.1304ZM6.81535 41.0256L5.41933 42.4577L5.41933 42.4577L6.81535 41.0256ZM10.4621 44.5803L11.8581 43.1481L11.8581 43.1481L10.4621 44.5803ZM11.5417 46.4392L13.5129 46.7773L13.5856 46.3531L13.4774 45.9365L11.5417 46.4392ZM10.7516 51.0456L8.78039 50.7075L8.78039 50.7075L10.7516 51.0456ZM10.8189 52.7477L12.7901 53.0858L12.8634 52.6588L12.7533 52.2398L10.8189 52.7477ZM10.7516 53.1401L8.78039 52.802L8.78039 52.802L10.7516 53.1401ZM16.5554 57.3568L15.6247 55.5866L15.6247 55.5866L16.5554 57.3568ZM21.063 54.987L21.9937 56.7573L21.9937 56.7573L21.063 54.987ZM24.7858 54.987L23.8551 56.7573L23.8551 56.7573L24.7858 54.987ZM29.2934 57.3568L30.2241 55.5866L30.2241 55.5866L29.2934 57.3568ZM35.0972 53.1401L37.0684 52.802L37.0684 52.802L35.0972 53.1401ZM35.0299 52.7477L33.0955 52.2398L32.9854 52.6588L33.0587 53.0858L35.0299 52.7477ZM35.0972 51.0456L33.126 51.3836L33.126 51.3836L35.0972 51.0456ZM34.3072 46.4392L32.3714 45.9365L32.2632 46.3531L32.3359 46.7773L34.3072 46.4392ZM35.3867 44.5803L36.7827 46.0124L36.7827 46.0124L35.3867 44.5803ZM39.0335 41.0256L37.6374 39.5934L37.6374 39.5934L39.0335 41.0256ZM40.1065 37.1304L38.1775 36.6022L38.0343 37.1249L38.1747 37.6485L40.1065 37.1304ZM36.8166 32.1082L37.1042 30.129L37.1042 30.129L36.8166 32.1082ZM31.7769 31.3759L32.0645 29.3967L31.7769 31.3759ZM28.7652 29.1877L30.5586 28.3026L30.5586 28.3026L28.7652 29.1877ZM21.1309 25.5062C21.8646 24.0197 23.9843 24.0197 24.7179 25.5061L28.3048 23.7359C26.1039 19.2764 19.7449 19.2764 17.544 23.7359L21.1309 25.5062ZM18.8771 30.0729L21.1309 25.5062L17.544 23.7359L15.2902 28.3026L18.8771 30.0729ZM14.3595 33.3551C16.3137 33.0712 18.0031 31.8437 18.8771 30.0729L15.2902 28.3026C14.9988 28.8929 14.4357 29.302 13.7843 29.3967L14.3595 33.3551ZM9.3198 34.0874L14.3595 33.3551L13.7843 29.3967L8.74461 30.129L9.3198 34.0874ZM7.67131 36.6022C7.36597 35.4872 8.07902 34.2677 9.3198 34.0874L8.74461 30.129C4.92923 30.6834 2.92649 34.4203 3.81337 37.6587L7.67131 36.6022ZM8.21138 39.5934C7.64322 39.0396 7.49508 38.3159 7.67408 37.6485L3.8106 36.6124C3.28738 38.5634 3.73219 40.8132 5.41933 42.4577L8.21138 39.5934ZM11.8581 43.1481L8.21138 39.5934L5.41933 42.4577L9.06608 46.0124L11.8581 43.1481ZM13.4774 45.9365C13.2061 44.8919 12.6538 43.9237 11.8581 43.1481L9.06608 46.0124C9.33126 46.2709 9.5153 46.5933 9.60588 46.942L13.4774 45.9365ZM12.7228 51.3836L13.5129 46.7773L9.57044 46.1011L8.78039 50.7075L12.7228 51.3836ZM12.7533 52.2398C12.6873 51.9881 12.6681 51.7025 12.7228 51.3836L8.78039 50.7075C8.62916 51.5892 8.67343 52.4518 8.88448 53.2556L12.7533 52.2398ZM12.7228 53.4782L12.7901 53.0858L8.8477 52.4096L8.78039 52.802L12.7228 53.4782ZM15.6247 55.5866C14.1575 56.3579 12.4426 55.112 12.7228 53.4782L8.78039 52.802C7.93973 57.7035 13.0843 61.4412 17.4861 59.1271L15.6247 55.5866ZM20.1324 53.2168L15.6247 55.5866L17.4861 59.1271L21.9937 56.7573L20.1324 53.2168ZM25.7165 53.2168C23.9685 52.2978 21.8803 52.2978 20.1324 53.2168L21.9937 56.7573C22.5764 56.451 23.2724 56.451 23.8551 56.7573L25.7165 53.2168ZM30.2241 55.5866L25.7165 53.2168L23.8551 56.7573L28.3627 59.1271L30.2241 55.5866ZM33.126 53.4782C33.4062 55.112 31.6913 56.3579 30.2241 55.5866L28.3627 59.1271C32.7645 61.4412 37.9091 57.7035 37.0684 52.802L33.126 53.4782ZM33.0587 53.0858L33.126 53.4782L37.0684 52.802L37.0011 52.4096L33.0587 53.0858ZM33.126 51.3836C33.1807 51.7025 33.1615 51.9881 33.0955 52.2398L36.9643 53.2556C37.1754 52.4518 37.2197 51.5892 37.0684 50.7075L33.126 51.3836ZM32.3359 46.7773L33.126 51.3836L37.0684 50.7075L36.2784 46.1011L32.3359 46.7773ZM33.9907 43.1481C33.195 43.9237 32.6427 44.8919 32.3714 45.9365L36.2429 46.942C36.3335 46.5933 36.5176 46.2709 36.7827 46.0124L33.9907 43.1481ZM37.6374 39.5934L33.9907 43.1481L36.7827 46.0124L40.4295 42.4577L37.6374 39.5934ZM38.1747 37.6485C38.3537 38.3159 38.2056 39.0396 37.6374 39.5934L40.4295 42.4577C42.1166 40.8132 42.5614 38.5634 42.0382 36.6124L38.1747 37.6485ZM36.529 34.0874C37.7698 34.2677 38.4829 35.4872 38.1775 36.6022L42.0355 37.6587C42.9223 34.4203 40.9196 30.6834 37.1042 30.129L36.529 34.0874ZM31.4893 33.3551L36.529 34.0874L37.1042 30.129L32.0645 29.3967L31.4893 33.3551ZM26.9717 30.0729C27.8457 31.8437 29.5351 33.0712 31.4893 33.3551L32.0645 29.3967C31.4131 29.302 30.85 28.8929 30.5586 28.3026L26.9717 30.0729ZM24.7179 25.5061L26.9717 30.0729L30.5586 28.3026L28.3048 23.7359L24.7179 25.5061Z" fill="white" mask="url(#path-4-outside-2_4_73)"/>
<g filter="url(#filter1_d_4_73)">
<path d="M19.482 24.6477C20.9493 21.6747 25.1887 21.6747 26.6559 24.6477L28.9097 29.2144C29.4924 30.395 30.6187 31.2133 31.9215 31.4026L36.9612 32.1349C40.2421 32.6116 41.5521 36.6435 39.178 38.9577L35.5313 42.5124C34.5885 43.4313 34.1584 44.7553 34.3809 46.0529L35.2418 51.0722C35.8022 54.3398 32.3725 56.8317 29.438 55.2889L24.9303 52.9191C23.7651 52.3065 22.3729 52.3065 21.2076 52.9191L16.7 55.2889C13.7655 56.8317 10.3357 54.3398 10.8962 51.0722L11.7571 46.0529C11.9796 44.7553 11.5494 43.4313 10.6067 42.5124L6.95993 38.9577C4.58586 36.6435 5.8959 32.6116 9.17678 32.1349L14.2165 31.4026C15.5193 31.2133 16.6456 30.395 17.2282 29.2144L19.482 24.6477Z" fill="url(#paint3_linear_4_73)"/>
</g>
<mask id="path-7-outside-3_4_73" maskUnits="userSpaceOnUse" x="82.6031" y="20.3913" width="39" height="40" fill="black">
<rect fill="white" x="82.6031" y="20.3913" width="39" height="40"/>
<path fill-rule="evenodd" clip-rule="evenodd" d="M105.511 24.621C104.044 21.648 99.8048 21.648 98.3376 24.621L96.0838 29.1878C95.5011 30.3683 94.3749 31.1866 93.072 31.3759L88.0323 32.1082C85.5042 32.4756 84.1463 34.9538 84.7425 37.1304C84.3914 38.4397 84.6878 39.9264 85.8155 41.0256L89.4622 44.5803C89.9927 45.0973 90.3608 45.7426 90.5418 46.4392L89.7517 51.0456C89.6488 51.6458 89.6805 52.22 89.819 52.7477L89.7517 53.1401C89.1913 56.4077 92.621 58.8996 95.5555 57.3568L100.063 54.987C101.228 54.3744 102.621 54.3744 103.786 54.987L108.294 57.3568C111.228 58.8996 114.658 56.4077 114.097 53.1401L114.03 52.7477C114.169 52.22 114.2 51.6458 114.097 51.0456L113.307 46.4392C113.488 45.7426 113.856 45.0973 114.387 44.5803L118.034 41.0256C119.161 39.9264 119.458 38.4397 119.107 37.1304C119.703 34.9538 118.345 32.4756 115.817 32.1082L110.777 31.3759C109.474 31.1866 108.348 30.3683 107.765 29.1877L105.511 24.621Z"/>
</mask>
<path fill-rule="evenodd" clip-rule="evenodd" d="M105.511 24.621C104.044 21.648 99.8048 21.648 98.3376 24.621L96.0838 29.1878C95.5011 30.3683 94.3749 31.1866 93.072 31.3759L88.0323 32.1082C85.5042 32.4756 84.1463 34.9538 84.7425 37.1304C84.3914 38.4397 84.6878 39.9264 85.8155 41.0256L89.4622 44.5803C89.9927 45.0973 90.3608 45.7426 90.5418 46.4392L89.7517 51.0456C89.6488 51.6458 89.6805 52.22 89.819 52.7477L89.7517 53.1401C89.1913 56.4077 92.621 58.8996 95.5555 57.3568L100.063 54.987C101.228 54.3744 102.621 54.3744 103.786 54.987L108.294 57.3568C111.228 58.8996 114.658 56.4077 114.097 53.1401L114.03 52.7477C114.169 52.22 114.2 51.6458 114.097 51.0456L113.307 46.4392C113.488 45.7426 113.856 45.0973 114.387 44.5803L118.034 41.0256C119.161 39.9264 119.458 38.4397 119.107 37.1304C119.703 34.9538 118.345 32.4756 115.817 32.1082L110.777 31.3759C109.474 31.1866 108.348 30.3683 107.765 29.1877L105.511 24.621Z" fill="url(#paint4_linear_4_73)"/>
<path d="M98.3376 24.621L100.131 25.5062L100.131 25.5062L98.3376 24.621ZM105.511 24.621L103.718 25.5061L103.718 25.5061L105.511 24.621ZM96.0838 29.1878L97.8772 30.0729L97.8772 30.0729L96.0838 29.1878ZM93.072 31.3759L92.7844 29.3967L92.7844 29.3967L93.072 31.3759ZM88.0323 32.1082L88.3199 34.0874L88.0323 32.1082ZM84.7425 37.1304L86.6742 37.6485L86.8146 37.125L86.6714 36.6022L84.7425 37.1304ZM85.8155 41.0256L84.4195 42.4577L84.4195 42.4577L85.8155 41.0256ZM89.4622 44.5803L90.8582 43.1481L90.8582 43.1481L89.4622 44.5803ZM90.5418 46.4392L92.513 46.7773L92.5858 46.3531L92.4775 45.9365L90.5418 46.4392ZM89.7517 51.0456L87.7805 50.7075L87.7805 50.7075L89.7517 51.0456ZM89.819 52.7477L91.7903 53.0858L91.8635 52.6588L91.7535 52.2398L89.819 52.7477ZM89.7517 53.1401L87.7805 52.802L87.7805 52.802L89.7517 53.1401ZM95.5555 57.3568L94.6249 55.5866L94.6249 55.5866L95.5555 57.3568ZM100.063 54.987L100.994 56.7573L100.994 56.7573L100.063 54.987ZM103.786 54.987L102.855 56.7573L102.855 56.7573L103.786 54.987ZM108.294 57.3568L109.224 55.5866L109.224 55.5866L108.294 57.3568ZM114.097 53.1401L116.069 52.802L116.069 52.802L114.097 53.1401ZM114.03 52.7477L112.096 52.2398L111.986 52.6588L112.059 53.0858L114.03 52.7477ZM114.097 51.0456L112.126 51.3836L112.126 51.3836L114.097 51.0456ZM113.307 46.4392L111.372 45.9365L111.263 46.3531L111.336 46.7773L113.307 46.4392ZM114.387 44.5803L115.783 46.0124L115.783 46.0124L114.387 44.5803ZM118.034 41.0256L116.638 39.5934L116.638 39.5934L118.034 41.0256ZM119.107 37.1304L117.178 36.6022L117.034 37.1249L117.175 37.6485L119.107 37.1304ZM115.817 32.1082L116.104 30.129L116.104 30.129L115.817 32.1082ZM110.777 31.3759L111.065 29.3967L110.777 31.3759ZM107.765 29.1877L109.559 28.3026L109.559 28.3026L107.765 29.1877ZM100.131 25.5062C100.865 24.0197 102.984 24.0197 103.718 25.5061L107.305 23.7359C105.104 19.2764 98.745 19.2764 96.5441 23.7359L100.131 25.5062ZM97.8772 30.0729L100.131 25.5062L96.5441 23.7359L94.2903 28.3026L97.8772 30.0729ZM93.3596 33.3551C95.3139 33.0712 97.0033 31.8437 97.8772 30.0729L94.2903 28.3026C93.999 28.8929 93.4358 29.302 92.7844 29.3967L93.3596 33.3551ZM88.3199 34.0874L93.3596 33.3551L92.7844 29.3967L87.7447 30.129L88.3199 34.0874ZM86.6714 36.6022C86.3661 35.4872 87.0791 34.2677 88.3199 34.0874L87.7447 30.129C83.9294 30.6834 81.9266 34.4203 82.8135 37.6587L86.6714 36.6022ZM87.2115 39.5934C86.6433 39.0396 86.4952 38.3159 86.6742 37.6485L82.8107 36.6124C82.2875 38.5634 82.7323 40.8132 84.4195 42.4577L87.2115 39.5934ZM90.8582 43.1481L87.2115 39.5934L84.4195 42.4577L88.0662 46.0124L90.8582 43.1481ZM92.4775 45.9365C92.2062 44.8919 91.6539 43.9237 90.8582 43.1481L88.0662 46.0124C88.3314 46.2709 88.5154 46.5933 88.606 46.942L92.4775 45.9365ZM91.7229 51.3836L92.513 46.7773L88.5706 46.1011L87.7805 50.7075L91.7229 51.3836ZM91.7535 52.2398C91.6874 51.9881 91.6683 51.7025 91.7229 51.3836L87.7805 50.7075C87.6293 51.5892 87.6736 52.4518 87.8846 53.2556L91.7535 52.2398ZM91.7229 53.4782L91.7903 53.0858L87.8478 52.4096L87.7805 52.802L91.7229 53.4782ZM94.6249 55.5866C93.1576 56.3579 91.4427 55.112 91.7229 53.4782L87.7805 52.802C86.9398 57.7035 92.0845 61.4412 96.4862 59.1271L94.6249 55.5866ZM99.1325 53.2168L94.6249 55.5866L96.4862 59.1271L100.994 56.7573L99.1325 53.2168ZM104.717 53.2168C102.969 52.2978 100.88 52.2978 99.1325 53.2168L100.994 56.7573C101.576 56.451 102.273 56.451 102.855 56.7573L104.717 53.2168ZM109.224 55.5866L104.717 53.2168L102.855 56.7573L107.363 59.1271L109.224 55.5866ZM112.126 53.4782C112.406 55.112 110.691 56.3579 109.224 55.5866L107.363 59.1271C111.765 61.4412 116.909 57.7035 116.069 52.802L112.126 53.4782ZM112.059 53.0858L112.126 53.4782L116.069 52.802L116.001 52.4096L112.059 53.0858ZM112.126 51.3836C112.181 51.7025 112.162 51.9881 112.096 52.2398L115.964 53.2556C116.176 52.4518 116.22 51.5892 116.069 50.7075L112.126 51.3836ZM111.336 46.7773L112.126 51.3836L116.069 50.7075L115.279 46.1011L111.336 46.7773ZM112.991 43.1481C112.195 43.9237 111.643 44.8919 111.372 45.9365L115.243 46.942C115.334 46.5933 115.518 46.2709 115.783 46.0124L112.991 43.1481ZM116.638 39.5934L112.991 43.1481L115.783 46.0124L119.43 42.4577L116.638 39.5934ZM117.175 37.6485C117.354 38.3159 117.206 39.0396 116.638 39.5934L119.43 42.4577C121.117 40.8132 121.562 38.5634 121.038 36.6124L117.175 37.6485ZM115.529 34.0874C116.77 34.2677 117.483 35.4872 117.178 36.6022L121.036 37.6587C121.922 34.4203 119.92 30.6834 116.104 30.129L115.529 34.0874ZM110.489 33.3551L115.529 34.0874L116.104 30.129L111.065 29.3967L110.489 33.3551ZM105.972 30.0729C106.846 31.8437 108.535 33.0712 110.489 33.3551L111.065 29.3967C110.413 29.302 109.85 28.8929 109.559 28.3026L105.972 30.0729ZM103.718 25.5061L105.972 30.0729L109.559 28.3026L107.305 23.7359L103.718 25.5061Z" fill="white" mask="url(#path-7-outside-3_4_73)"/>
<g filter="url(#filter2_d_4_73)">
<path d="M98.482 24.6477C99.9493 21.6747 104.189 21.6747 105.656 24.6477L107.91 29.2144C108.492 30.395 109.619 31.2133 110.921 31.4026L115.961 32.1349C119.242 32.6116 120.552 36.6435 118.178 38.9577L114.531 42.5124C113.589 43.4313 113.158 44.7553 113.381 46.0529L114.242 51.0722C114.802 54.3398 111.372 56.8317 108.438 55.2889L103.93 52.9191C102.765 52.3065 101.373 52.3065 100.208 52.9191L95.7 55.2889C92.7655 56.8317 89.3357 54.3398 89.8962 51.0722L90.7571 46.0529C90.9796 44.7553 90.5494 43.4313 89.6067 42.5124L85.9599 38.9577C83.5859 36.6435 84.8959 32.6116 88.1768 32.1349L93.2165 31.4026C94.5193 31.2133 95.6456 30.395 96.2282 29.2144L98.482 24.6477Z" fill="url(#paint5_linear_4_73)"/>
</g>
<defs>
<filter id="filter0_d_4_73" x="41.3245" y="5.41794" width="43.408" height="44.6755" filterUnits="userSpaceOnUse" color-interpolation-filters="sRGB">
<feFlood flood-opacity="0" result="BackgroundImageFix"/>
<feColorMatrix in="SourceAlpha" type="matrix" values="0 0 0 0 0 0 0 0 0 0 0 0 0 0 0 0 0 0 127 0" result="hardAlpha"/>
<feOffset dy="3"/>
<feComposite in2="hardAlpha" operator="out"/>
<feColorMatrix type="matrix" values="0 0 0 0 1 0 0 0 0 0.392 0 0 0 0 0.2 0 0 0 1 0"/>
<feBlend mode="normal" in2="BackgroundImageFix" result="effect1_dropShadow_4_73"/>
<feBlend mode="normal" in="SourceGraphic" in2="effect1_dropShadow_4_73" result="shape"/>
</filter>
<filter id="filter1_d_4_73" x="5.74756" y="22.4179" width="34.6428" height="36.3393" filterUnits="userSpaceOnUse" color-interpolation-filters="sRGB">
<feFlood flood-opacity="0" result="BackgroundImageFix"/>
<feColorMatrix in="SourceAlpha" type="matrix" values="0 0 0 0 0 0 0 0 0 0 0 0 0 0 0 0 0 0 127 0" result="hardAlpha"/>
<feOffset dy="3"/>
<feComposite in2="hardAlpha" operator="out"/>
<feColorMatrix type="matrix" values="0 0 0 0 1 0 0 0 0 0.392 0 0 0 0 0.2 0 0 0 1 0"/>
<feBlend mode="normal" in2="BackgroundImageFix" result="effect1_dropShadow_4_73"/>
<feBlend mode="normal" in="SourceGraphic" in2="effect1_dropShadow_4_73" result="shape"/>
</filter>
<filter id="filter2_d_4_73" x="84.7476" y="22.4179" width="34.6428" height="36.3393" filterUnits="userSpaceOnUse" color-interpolation-filters="sRGB">
<feFlood flood-opacity="0" result="BackgroundImageFix"/>
<feColorMatrix in="SourceAlpha" type="matrix" values="0 0 0 0 0 0 0 0 0 0 0 0 0 0 0 0 0 0 127 0" result="hardAlpha"/>
<feOffset dy="3"/>
<feComposite in2="hardAlpha" operator="out"/>
<feColorMatrix type="matrix" values="0 0 0 0 1 0 0 0 0 0.392 0 0 0 0 0.2 0 0 0 1 0"/>
<feBlend mode="normal" in2="BackgroundImageFix" result="effect1_dropShadow_4_73"/>
<feBlend mode="normal" in="SourceGraphic" in2="effect1_dropShadow_4_73" result="shape"/>
</filter>
<linearGradient id="paint0_linear_4_73" x1="62.855" y1="1.29" x2="62.855" y2="54.9448" gradientUnits="userSpaceOnUse">
<stop offset="0.25" stop-color="#FFEE37"/>
<stop offset="1" stop-color="#F78A3B"/>
</linearGradient>
<linearGradient id="paint1_linear_4_73" x1="63.0284" y1="0.37973" x2="63.0284" y2="55.677" gradientUnits="userSpaceOnUse">
<stop offset="0.25" stop-color="#FFEE37"/>
<stop offset="1" stop-color="#F78A3B"/>
</linearGradient>
<linearGradient id="paint2_linear_4_73" x1="22.9244" y1="19.107" x2="22.9244" y2="62.1313" gradientUnits="userSpaceOnUse">
<stop offset="0.25" stop-color="#FFEE37"/>
<stop offset="1" stop-color="#F78A3B"/>
</linearGradient>
<linearGradient id="paint3_linear_4_73" x1="23.069" y1="17.3797" x2="23.069" y2="63.4608" gradientUnits="userSpaceOnUse">
<stop offset="0.25" stop-color="#FFEE37"/>
<stop offset="1" stop-color="#F78A3B"/>
</linearGradient>
<linearGradient id="paint4_linear_4_73" x1="101.924" y1="19.107" x2="101.924" y2="62.1313" gradientUnits="userSpaceOnUse">
<stop offset="0.25" stop-color="#FFEE37"/>
<stop offset="1" stop-color="#F78A3B"/>
</linearGradient>
<linearGradient id="paint5_linear_4_73" x1="102.069" y1="17.3797" x2="102.069" y2="63.4608" gradientUnits="userSpaceOnUse">
<stop offset="0.25" stop-color="#FFEE37"/>
<stop offset="1" stop-color="#F78A3B"/>
</linearGradient>
</defs>
</svg>
