<svg width="24" height="30" viewBox="0 0 24 30" fill="none" xmlns="http://www.w3.org/2000/svg">
<g id="Vector" filter="url(#filter0_d_1_168)">
<path d="M23.9767 3.9548C23.9376 3.28249 23.8596 2.53107 23.4304 1.89831C23.0792 1.38418 22.494 0.9887 21.8307 0.870056C21.3624 0.79096 20.8552 0.830508 20.426 1.02825C20.3479 1.0678 20.2309 0.988701 20.2309 0.909605C20.2309 0.39548 19.8407 0 19.3335 0H4.66254C4.1553 0 3.76511 0.39548 3.76511 0.909605C3.76511 1.02825 3.64806 1.0678 3.57002 1.02825C3.14082 0.830508 2.63358 0.79096 2.16536 0.870056C1.50204 0.9887 0.916768 1.34463 0.565602 1.85876C0.136399 2.53107 0.0193436 3.28249 0.0193436 3.9548C-0.0196748 4.50847 -0.0196749 5.25989 0.214436 6.0113C0.487565 6.96045 1.07284 7.75141 1.58008 8.34463C2.24339 9.09605 2.94573 9.80791 3.7261 10.4407C3.88217 10.5593 3.99922 10.678 4.1553 10.7966C4.23334 10.8362 4.27235 10.9153 4.31137 10.9943C4.89665 12.6158 5.98916 14 7.35481 14.9492C7.66696 15.1864 7.78401 15.5819 7.62794 15.9379C7.27677 16.8079 7.19874 17.7571 7.35481 18.6667C7.43285 19.1412 7.08168 19.6158 6.57444 19.6158H5.05272C4.70156 19.6158 4.38941 19.8531 4.31137 20.209L2.86769 27.0508C2.75063 27.5254 3.14082 28 3.60904 28H20.465C20.9332 28 21.3234 27.565 21.2064 27.0508L19.7627 20.209C19.6846 19.8531 19.3725 19.6158 19.0213 19.6158H17.4996C16.9924 19.6158 16.6412 19.1412 16.7192 18.6667C16.8753 17.7571 16.7973 16.8079 16.4461 15.9379C16.29 15.5819 16.4071 15.1469 16.7192 14.9492C18.1239 13.9605 19.2164 12.5367 19.8017 10.8757C19.8017 10.8757 19.8017 10.8362 19.8407 10.8362C19.9968 10.678 20.1529 10.5593 20.348 10.4011H20.387C21.1283 9.76836 21.8307 9.09605 22.494 8.34463C23.0012 7.75141 23.6255 6.96045 23.8986 5.97175C24.0157 5.25989 24.0157 4.50847 23.9767 3.9548ZM2.78965 7.35593C2.39947 6.88136 1.89223 6.24859 1.69714 5.57627C1.54106 5.06215 1.54106 4.46893 1.58008 4.0339C1.58008 3.55932 1.65812 3.12429 1.85321 2.80791C1.97027 2.61017 2.20438 2.49153 2.43849 2.45198C2.71162 2.41243 2.94573 2.45198 3.14082 2.57062C3.37493 2.72881 3.57002 3.0452 3.76511 3.40113C3.76511 3.44068 3.76511 3.44068 3.76511 3.48023C3.76511 3.75706 3.76511 5.73446 3.76511 7.0791C3.76511 7.55367 3.17984 7.79096 2.82867 7.43503C2.82867 7.39548 2.82867 7.35593 2.78965 7.35593ZM22.2989 5.53672C22.1038 6.20904 21.5965 6.84181 21.2064 7.31638C20.9332 7.63277 20.6991 7.9096 20.387 8.18644C20.3089 8.26554 20.1919 8.18644 20.1919 8.10734C20.1919 7.0791 20.1919 3.44068 20.1919 3.44068C20.1919 3.40113 20.1919 3.40113 20.1919 3.36158C20.387 3.00565 20.5821 2.68927 20.8162 2.49153C21.0113 2.37288 21.2454 2.33333 21.5185 2.37288C21.7916 2.41243 21.9867 2.57062 22.1038 2.72881C22.2989 3.0452 22.3769 3.51977 22.3769 3.9548C22.4549 4.46893 22.4549 5.0226 22.2989 5.53672Z" fill="white"/>
</g>
<defs>
<filter id="filter0_d_1_168" x="0" y="0" width="24" height="30" filterUnits="userSpaceOnUse" color-interpolation-filters="sRGB">
<feFlood flood-opacity="0" result="BackgroundImageFix"/>
<feColorMatrix in="SourceAlpha" type="matrix" values="0 0 0 0 0 0 0 0 0 0 0 0 0 0 0 0 0 0 127 0" result="hardAlpha"/>
<feOffset dy="2"/>
<feComposite in2="hardAlpha" operator="out"/>
<feColorMatrix type="matrix" values="0 0 0 0 0 0 0 0 0 0 0 0 0 0 0 0 0 0 0.15 0"/>
<feBlend mode="normal" in2="BackgroundImageFix" result="effect1_dropShadow_1_168"/>
<feBlend mode="normal" in="SourceGraphic" in2="effect1_dropShadow_1_168" result="shape"/>
</filter>
</defs>
</svg>
