<svg width="125" height="66" viewBox="0 0 125 66" fill="none" xmlns="http://www.w3.org/2000/svg">
<mask id="path-1-outside-1_4_181" maskUnits="userSpaceOnUse" x="81.5747" y="22.0116" width="39" height="40" fill="black">
<rect fill="white" x="81.5747" y="22.0116" width="39" height="40"/>
<path fill-rule="evenodd" clip-rule="evenodd" d="M104.483 26.2413C103.016 23.2683 98.7764 23.2683 97.3091 26.2413L95.0553 30.808C94.4727 31.9886 93.3464 32.8069 92.0436 32.9962L87.0039 33.7285C84.4758 34.0959 83.1179 36.5741 83.714 38.7507C83.3629 40.0599 83.6594 41.5467 84.787 42.6458L88.4338 46.2005C88.9642 46.7176 89.3324 47.3629 89.5133 48.0595L88.7233 52.6658C88.6203 53.2661 88.652 53.8402 88.7906 54.368L88.7233 54.7604C88.1628 58.028 91.5926 60.5199 94.5271 58.9771L99.0347 56.6073C100.2 55.9947 101.592 55.9947 102.757 56.6073L107.265 58.9771C110.2 60.5199 113.629 58.028 113.069 54.7604L113.002 54.368C113.14 53.8402 113.172 53.2661 113.069 52.6658L112.279 48.0595C112.46 47.3629 112.828 46.7176 113.358 46.2005L117.005 42.6458C118.133 41.5467 118.429 40.0599 118.078 38.7507C118.674 36.5741 117.316 34.0959 114.788 33.7285L109.749 32.9962C108.446 32.8069 107.319 31.9886 106.737 30.808L104.483 26.2413Z"/>
</mask>
<path fill-rule="evenodd" clip-rule="evenodd" d="M104.483 26.2413C103.016 23.2683 98.7764 23.2683 97.3091 26.2413L95.0553 30.808C94.4727 31.9886 93.3464 32.8069 92.0436 32.9962L87.0039 33.7285C84.4758 34.0959 83.1179 36.5741 83.714 38.7507C83.3629 40.0599 83.6594 41.5467 84.787 42.6458L88.4338 46.2005C88.9642 46.7176 89.3324 47.3629 89.5133 48.0595L88.7233 52.6658C88.6203 53.2661 88.652 53.8402 88.7906 54.368L88.7233 54.7604C88.1628 58.028 91.5926 60.5199 94.5271 58.9771L99.0347 56.6073C100.2 55.9947 101.592 55.9947 102.757 56.6073L107.265 58.9771C110.2 60.5199 113.629 58.028 113.069 54.7604L113.002 54.368C113.14 53.8402 113.172 53.2661 113.069 52.6658L112.279 48.0595C112.46 47.3629 112.828 46.7176 113.358 46.2005L117.005 42.6458C118.133 41.5467 118.429 40.0599 118.078 38.7507C118.674 36.5741 117.316 34.0959 114.788 33.7285L109.749 32.9962C108.446 32.8069 107.319 31.9886 106.737 30.808L104.483 26.2413Z" fill="url(#paint0_linear_4_181)"/>
<path d="M97.3091 26.2413L99.1026 27.1264L99.1026 27.1264L97.3091 26.2413ZM104.483 26.2413L102.69 27.1264L102.69 27.1264L104.483 26.2413ZM95.0553 30.808L96.8488 31.6932L96.8488 31.6932L95.0553 30.808ZM92.0436 32.9962L91.756 31.017L91.756 31.017L92.0436 32.9962ZM87.0039 33.7285L87.2915 35.7077L87.0039 33.7285ZM83.714 38.7507L85.6458 39.2688L85.7862 38.7452L85.643 38.2224L83.714 38.7507ZM84.787 42.6458L83.391 44.078L83.391 44.078L84.787 42.6458ZM88.4338 46.2005L89.8298 44.7684L89.8298 44.7684L88.4338 46.2005ZM89.5133 48.0595L91.4846 48.3976L91.5573 47.9734L91.4491 47.5567L89.5133 48.0595ZM88.7233 52.6658L86.7521 52.3278L86.7521 52.3278L88.7233 52.6658ZM88.7906 54.368L90.7618 54.7061L90.835 54.2791L90.725 53.8601L88.7906 54.368ZM88.7233 54.7604L86.7521 54.4223L86.7521 54.4223L88.7233 54.7604ZM94.5271 58.9771L93.5964 57.2068L93.5964 57.2068L94.5271 58.9771ZM99.0347 56.6073L99.9654 58.3776L99.9654 58.3776L99.0347 56.6073ZM102.757 56.6073L101.827 58.3776L101.827 58.3776L102.757 56.6073ZM107.265 58.9771L108.196 57.2068L108.196 57.2068L107.265 58.9771ZM113.069 54.7604L115.04 54.4223L115.04 54.4223L113.069 54.7604ZM113.002 54.368L111.067 53.8601L110.957 54.2791L111.03 54.7061L113.002 54.368ZM113.069 52.6658L111.098 53.0039L111.098 53.0039L113.069 52.6658ZM112.279 48.0595L110.343 47.5567L110.235 47.9734L110.308 48.3976L112.279 48.0595ZM113.358 46.2005L114.754 47.6327L114.754 47.6327L113.358 46.2005ZM117.005 42.6458L115.609 41.2137L115.609 41.2137L117.005 42.6458ZM118.078 38.7507L116.149 38.2224L116.006 38.7452L116.146 39.2688L118.078 38.7507ZM114.788 33.7285L115.076 31.7493L115.076 31.7493L114.788 33.7285ZM109.749 32.9962L110.036 31.017L109.749 32.9962ZM106.737 30.808L108.53 29.9229L108.53 29.9229L106.737 30.808ZM99.1026 27.1264C99.8362 25.6399 101.956 25.6399 102.69 27.1264L106.277 25.3562C104.076 20.8967 97.7165 20.8967 95.5157 25.3562L99.1026 27.1264ZM96.8488 31.6932L99.1026 27.1264L95.5157 25.3562L93.2619 29.9229L96.8488 31.6932ZM92.3312 34.9754C94.2854 34.6914 95.9748 33.464 96.8488 31.6932L93.2619 29.9229C92.9705 30.5132 92.4074 30.9223 91.756 31.017L92.3312 34.9754ZM87.2915 35.7077L92.3312 34.9754L91.756 31.017L86.7163 31.7493L87.2915 35.7077ZM85.643 38.2224C85.3376 37.1075 86.0507 35.888 87.2915 35.7077L86.7163 31.7493C82.9009 32.3037 80.8982 36.0406 81.785 39.279L85.643 38.2224ZM86.1831 41.2137C85.6149 40.6599 85.4668 39.9362 85.6458 39.2688L81.7823 38.2327C81.2591 40.1837 81.7039 42.4335 83.391 44.078L86.1831 41.2137ZM89.8298 44.7684L86.1831 41.2137L83.391 44.078L87.0378 47.6327L89.8298 44.7684ZM91.4491 47.5567C91.1778 46.5122 90.6255 45.544 89.8298 44.7684L87.0378 47.6327C87.3029 47.8912 87.487 48.2136 87.5776 48.5623L91.4491 47.5567ZM90.6945 53.0039L91.4846 48.3976L87.5421 47.7214L86.7521 52.3278L90.6945 53.0039ZM90.725 53.8601C90.659 53.6084 90.6398 53.3228 90.6945 53.0039L86.7521 52.3278C86.6008 53.2095 86.6451 54.0721 86.8562 54.8759L90.725 53.8601ZM90.6945 55.0985L90.7618 54.7061L86.8194 54.0299L86.7521 54.4223L90.6945 55.0985ZM93.5964 57.2068C92.1291 57.9782 90.4143 56.7323 90.6945 55.0985L86.7521 54.4223C85.9114 59.3238 91.056 63.0615 95.4578 60.7474L93.5964 57.2068ZM98.104 54.837L93.5964 57.2068L95.4578 60.7474L99.9654 58.3776L98.104 54.837ZM103.688 54.837C101.94 53.9181 99.852 53.9181 98.104 54.837L99.9654 58.3776C100.548 58.0712 101.244 58.0712 101.827 58.3776L103.688 54.837ZM108.196 57.2068L103.688 54.837L101.827 58.3776L106.334 60.7474L108.196 57.2068ZM111.098 55.0985C111.378 56.7323 109.663 57.9782 108.196 57.2068L106.334 60.7474C110.736 63.0615 115.881 59.3237 115.04 54.4223L111.098 55.0985ZM111.03 54.7061L111.098 55.0985L115.04 54.4223L114.973 54.0299L111.03 54.7061ZM111.098 53.0039C111.152 53.3228 111.133 53.6084 111.067 53.8601L114.936 54.8759C115.147 54.0721 115.191 53.2095 115.04 52.3277L111.098 53.0039ZM110.308 48.3976L111.098 53.0039L115.04 52.3278L114.25 47.7214L110.308 48.3976ZM111.962 44.7684C111.167 45.544 110.614 46.5122 110.343 47.5567L114.215 48.5623C114.305 48.2136 114.489 47.8912 114.754 47.6327L111.962 44.7684ZM115.609 41.2137L111.962 44.7684L114.754 47.6327L118.401 44.078L115.609 41.2137ZM116.146 39.2688C116.325 39.9362 116.177 40.6599 115.609 41.2137L118.401 44.078C120.088 42.4335 120.533 40.1837 120.01 38.2327L116.146 39.2688ZM114.501 35.7077C115.741 35.888 116.455 37.1075 116.149 38.2224L120.007 39.279C120.894 36.0406 118.891 32.3037 115.076 31.7493L114.501 35.7077ZM109.461 34.9754L114.501 35.7077L115.076 31.7493L110.036 31.017L109.461 34.9754ZM104.943 31.6932C105.817 33.464 107.507 34.6914 109.461 34.9754L110.036 31.017C109.385 30.9223 108.822 30.5132 108.53 29.9229L104.943 31.6932ZM102.69 27.1264L104.943 31.6932L108.53 29.9229L106.277 25.3562L102.69 27.1264Z" fill="white" mask="url(#path-1-outside-1_4_181)"/>
<g filter="url(#filter0_d_4_181)">
<path d="M97.4536 26.2679C98.9208 23.295 103.16 23.295 104.627 26.2679L106.881 30.8347C107.464 32.0153 108.59 32.8335 109.893 33.0228L114.933 33.7552C118.214 34.2319 119.524 38.2638 117.15 40.5779L113.503 44.1326C112.56 45.0516 112.13 46.3756 112.352 47.6732L113.213 52.6925C113.774 55.9601 110.344 58.452 107.41 56.9092L102.902 54.5394C101.737 53.9268 100.344 53.9268 99.1792 54.5394L94.6715 56.9092C91.737 58.452 88.3073 55.9601 88.8677 52.6925L89.7286 47.6732C89.9512 46.3756 89.521 45.0516 88.5782 44.1326L84.9315 40.5779C82.5574 38.2638 83.8675 34.2319 87.1483 33.7552L92.188 33.0228C93.4909 32.8335 94.6171 32.0153 95.1998 30.8347L97.4536 26.2679Z" fill="url(#paint1_linear_4_181)"/>
</g>
<mask id="path-4-outside-2_4_181" maskUnits="userSpaceOnUse" x="38.5479" y="0" width="48" height="49" fill="black">
<rect fill="white" x="38.5479" width="48" height="49"/>
<path fill-rule="evenodd" clip-rule="evenodd" d="M65.8388 4.22974C64.3715 1.25675 60.1321 1.25675 58.6649 4.22974L55.0568 11.5406C54.4741 12.7211 53.3478 13.5394 52.045 13.7287L43.977 14.9011C41.3684 15.2801 40.0057 17.9067 40.7501 20.1304C40.3063 21.4887 40.5712 23.0784 41.7602 24.2373L47.5982 29.928C48.0882 30.4056 48.4397 30.9926 48.6331 31.6285L47.3704 38.9904C47.2571 39.6509 47.3069 40.2797 47.4826 40.8499L47.3704 41.5039C46.81 44.7715 50.2397 47.2634 53.1742 45.7206L60.3904 41.9268C61.5557 41.3142 62.9479 41.3142 64.1132 41.9268L71.3294 45.7206C74.2639 47.2634 77.6936 44.7715 77.1332 41.5039L77.021 40.8499C77.1967 40.2797 77.2465 39.6509 77.1332 38.9904L75.8705 31.6285C76.0639 30.9926 76.4154 30.4056 76.9054 29.928L82.7434 24.2373C83.9324 23.0784 84.1973 21.4887 83.7535 20.1304C84.4979 17.9067 83.1352 15.2801 80.5266 14.9011L72.4586 13.7287C71.1558 13.5394 70.0295 12.7211 69.4469 11.5406L65.8388 4.22974Z"/>
</mask>
<path fill-rule="evenodd" clip-rule="evenodd" d="M65.8388 4.22974C64.3715 1.25675 60.1321 1.25675 58.6649 4.22974L55.0568 11.5406C54.4741 12.7211 53.3478 13.5394 52.045 13.7287L43.977 14.9011C41.3684 15.2801 40.0057 17.9067 40.7501 20.1304C40.3063 21.4887 40.5712 23.0784 41.7602 24.2373L47.5982 29.928C48.0882 30.4056 48.4397 30.9926 48.6331 31.6285L47.3704 38.9904C47.2571 39.6509 47.3069 40.2797 47.4826 40.8499L47.3704 41.5039C46.81 44.7715 50.2397 47.2634 53.1742 45.7206L60.3904 41.9268C61.5557 41.3142 62.9479 41.3142 64.1132 41.9268L71.3294 45.7206C74.2639 47.2634 77.6936 44.7715 77.1332 41.5039L77.021 40.8499C77.1967 40.2797 77.2465 39.6509 77.1332 38.9904L75.8705 31.6285C76.0639 30.9926 76.4154 30.4056 76.9054 29.928L82.7434 24.2373C83.9324 23.0784 84.1973 21.4887 83.7535 20.1304C84.4979 17.9067 83.1352 15.2801 80.5266 14.9011L72.4586 13.7287C71.1558 13.5394 70.0295 12.7211 69.4469 11.5406L65.8388 4.22974Z" fill="#7A54FD"/>
<path d="M58.6649 4.22974L60.4583 5.11487L60.4583 5.11487L58.6649 4.22974ZM65.8388 4.22974L67.6322 3.34461L67.6322 3.34461L65.8388 4.22974ZM55.0568 11.5406L53.2633 10.6554L53.2633 10.6554L55.0568 11.5406ZM52.045 13.7287L51.7574 11.7495L51.7574 11.7495L52.045 13.7287ZM43.977 14.9011L44.2646 16.8803L44.2646 16.8803L43.977 14.9011ZM40.7501 20.1304L42.6512 20.7516L42.8567 20.1228L42.6467 19.4955L40.7501 20.1304ZM41.7602 24.2373L43.1562 22.8052L43.1562 22.8052L41.7602 24.2373ZM47.5982 29.928L48.9942 28.4959L48.9942 28.4958L47.5982 29.928ZM48.6331 31.6285L50.6043 31.9666L50.6844 31.4997L50.5466 31.0465L48.6331 31.6285ZM47.3704 38.9904L49.3416 39.3285L49.3416 39.3285L47.3704 38.9904ZM47.4826 40.8499L49.4538 41.188L49.5346 40.7172L49.3939 40.2608L47.4826 40.8499ZM47.3704 41.5039L45.3992 41.1658L45.3992 41.1658L47.3704 41.5039ZM53.1742 45.7206L54.1049 47.4909L54.1049 47.4909L53.1742 45.7206ZM60.3904 41.9268L59.4598 40.1566L59.4598 40.1566L60.3904 41.9268ZM64.1132 41.9268L63.1825 43.6971L63.1825 43.6971L64.1132 41.9268ZM71.3294 45.7206L70.3987 47.4909L70.3987 47.4909L71.3294 45.7206ZM77.1332 41.5039L75.162 41.842L75.162 41.842L77.1332 41.5039ZM77.021 40.8499L75.1097 40.2608L74.9691 40.7172L75.0498 41.188L77.021 40.8499ZM77.1332 38.9904L79.1044 38.6523L79.1044 38.6523L77.1332 38.9904ZM75.8705 31.6285L73.9571 31.0465L73.8192 31.4997L73.8993 31.9666L75.8705 31.6285ZM76.9054 29.928L75.5094 28.4959L75.5094 28.4959L76.9054 29.928ZM82.7434 24.2373L84.1395 25.6695L84.1395 25.6695L82.7434 24.2373ZM83.7535 20.1304L81.8569 19.4955L81.6469 20.1228L81.8524 20.7516L83.7535 20.1304ZM80.5266 14.9011L80.239 16.8803L80.239 16.8803L80.5266 14.9011ZM72.4586 13.7287L72.171 15.7079L72.171 15.7079L72.4586 13.7287ZM69.4469 11.5406L67.6534 12.4257L67.6534 12.4257L69.4469 11.5406ZM60.4583 5.11487C61.192 3.62838 63.3117 3.62838 64.0453 5.11487L67.6322 3.34461C65.4313 -1.11487 59.0723 -1.11487 56.8714 3.34461L60.4583 5.11487ZM56.8502 12.4257L60.4583 5.11487L56.8714 3.34461L53.2633 10.6554L56.8502 12.4257ZM52.3326 15.7079C54.2869 15.424 55.9763 14.1966 56.8502 12.4257L53.2633 10.6554C52.972 11.2457 52.4088 11.6549 51.7574 11.7495L52.3326 15.7079ZM44.2646 16.8803L52.3326 15.7079L51.7574 11.7495L43.6894 12.9219L44.2646 16.8803ZM42.6467 19.4955C42.2674 18.3627 42.9836 17.0664 44.2646 16.8803L43.6894 12.9219C39.7531 13.4938 37.7439 17.4507 38.8536 20.7653L42.6467 19.4955ZM43.1562 22.8052C42.5597 22.2237 42.4234 21.4488 42.6512 20.7516L38.8491 19.5092C38.1892 21.5285 38.5828 23.9331 40.3642 25.6695L43.1562 22.8052ZM48.9942 28.4958L43.1562 22.8052L40.3642 25.6695L46.2022 31.3602L48.9942 28.4958ZM50.5466 31.0465C50.2566 30.093 49.7292 29.2122 48.9942 28.4959L46.2022 31.3602C46.4472 31.599 46.6229 31.8922 46.7196 32.2105L50.5466 31.0465ZM49.3416 39.3285L50.6043 31.9666L46.6619 31.2904L45.3992 38.6523L49.3416 39.3285ZM49.3939 40.2608C49.3103 39.9896 49.2816 39.6784 49.3416 39.3285L45.3992 38.6523C45.2327 39.6235 45.3035 40.5698 45.5713 41.4389L49.3939 40.2608ZM49.3416 41.842L49.4538 41.188L45.5114 40.5118L45.3992 41.1658L49.3416 41.842ZM52.2435 43.9504C50.7763 44.7217 49.0614 43.4758 49.3416 41.842L45.3992 41.1658C44.5585 46.0673 49.7031 49.805 54.1049 47.4909L52.2435 43.9504ZM59.4598 40.1566L52.2435 43.9504L54.1049 47.4909L61.3211 43.6971L59.4598 40.1566ZM65.0439 40.1566C63.2959 39.2376 61.2077 39.2376 59.4598 40.1566L61.3211 43.6971C61.9038 43.3908 62.5998 43.3908 63.1825 43.6971L65.0439 40.1566ZM72.2601 43.9504L65.0439 40.1566L63.1825 43.6971L70.3987 47.4909L72.2601 43.9504ZM75.162 41.842C75.4422 43.4758 73.7273 44.7217 72.2601 43.9504L70.3987 47.4909C74.8005 49.805 79.9451 46.0673 79.1044 41.1658L75.162 41.842ZM75.0498 41.188L75.162 41.842L79.1044 41.1658L78.9922 40.5118L75.0498 41.188ZM75.162 39.3285C75.222 39.6784 75.1933 39.9896 75.1097 40.2608L78.9323 41.4389C79.2001 40.5698 79.271 39.6235 79.1044 38.6523L75.162 39.3285ZM73.8993 31.9666L75.162 39.3285L79.1044 38.6523L77.8417 31.2904L73.8993 31.9666ZM75.5094 28.4959C74.7744 29.2122 74.247 30.093 73.9571 31.0465L77.784 32.2105C77.8808 31.8922 78.0564 31.599 78.3014 31.3602L75.5094 28.4959ZM81.3474 22.8052L75.5094 28.4959L78.3014 31.3602L84.1395 25.6695L81.3474 22.8052ZM81.8524 20.7516C82.0802 21.4488 81.9439 22.2237 81.3474 22.8052L84.1395 25.6695C85.9208 23.9331 86.3144 21.5285 85.6546 19.5092L81.8524 20.7516ZM80.239 16.8803C81.52 17.0664 82.2362 18.3627 81.8569 19.4955L85.65 20.7653C86.7597 17.4507 84.7505 13.4938 80.8142 12.9219L80.239 16.8803ZM72.171 15.7079L80.239 16.8803L80.8142 12.9219L72.7462 11.7495L72.171 15.7079ZM67.6534 12.4257C68.5274 14.1966 70.2168 15.424 72.171 15.7079L72.7462 11.7495C72.0948 11.6549 71.5317 11.2457 71.2403 10.6554L67.6534 12.4257ZM64.0453 5.11487L67.6534 12.4257L71.2403 10.6554L67.6322 3.34461L64.0453 5.11487Z" fill="white" mask="url(#path-4-outside-2_4_181)"/>
<g filter="url(#filter1_d_4_181)">
<path d="M19.4536 26.2679C20.9208 23.295 25.1602 23.295 26.6275 26.2679L28.8813 30.8347C29.464 32.0153 30.5902 32.8335 31.8931 33.0228L36.9328 33.7552C40.2136 34.2319 41.5237 38.2638 39.1496 40.5779L35.5028 44.1326C34.5601 45.0516 34.1299 46.3756 34.3525 47.6732L35.2133 52.6925C35.7738 55.9601 32.3441 58.452 29.4095 56.9092L24.9019 54.5394C23.7366 53.9268 22.3445 53.9268 21.1792 54.5394L16.6715 56.9092C13.737 58.452 10.3073 55.9601 10.8677 52.6925L11.7286 47.6732C11.9512 46.3756 11.521 45.0516 10.5782 44.1326L6.93149 40.5779C4.55742 38.2638 5.86745 34.2319 9.14834 33.7552L14.188 33.0228C15.4909 32.8335 16.6171 32.0153 17.1998 30.8347L19.4536 26.2679Z" fill="url(#paint2_linear_4_181)"/>
</g>
<defs>
<filter id="filter0_d_4_181" x="83.7192" y="24.0382" width="34.6426" height="36.3394" filterUnits="userSpaceOnUse" color-interpolation-filters="sRGB">
<feFlood flood-opacity="0" result="BackgroundImageFix"/>
<feColorMatrix in="SourceAlpha" type="matrix" values="0 0 0 0 0 0 0 0 0 0 0 0 0 0 0 0 0 0 127 0" result="hardAlpha"/>
<feOffset dy="3"/>
<feComposite in2="hardAlpha" operator="out"/>
<feColorMatrix type="matrix" values="0 0 0 0 1 0 0 0 0 0.392 0 0 0 0 0.2 0 0 0 1 0"/>
<feBlend mode="normal" in2="BackgroundImageFix" result="effect1_dropShadow_4_181"/>
<feBlend mode="normal" in="SourceGraphic" in2="effect1_dropShadow_4_181" result="shape"/>
</filter>
<filter id="filter1_d_4_181" x="5.71924" y="24.0382" width="34.6426" height="36.3394" filterUnits="userSpaceOnUse" color-interpolation-filters="sRGB">
<feFlood flood-opacity="0" result="BackgroundImageFix"/>
<feColorMatrix in="SourceAlpha" type="matrix" values="0 0 0 0 0 0 0 0 0 0 0 0 0 0 0 0 0 0 127 0" result="hardAlpha"/>
<feOffset dy="3"/>
<feComposite in2="hardAlpha" operator="out"/>
<feColorMatrix type="matrix" values="0 0 0 0 1 0 0 0 0 0.392 0 0 0 0 0.2 0 0 0 1 0"/>
<feBlend mode="normal" in2="BackgroundImageFix" result="effect1_dropShadow_4_181"/>
<feBlend mode="normal" in="SourceGraphic" in2="effect1_dropShadow_4_181" result="shape"/>
</filter>
<linearGradient id="paint0_linear_4_181" x1="100.896" y1="20.7272" x2="100.896" y2="63.7515" gradientUnits="userSpaceOnUse">
<stop offset="0.25" stop-color="#FFEE37"/>
<stop offset="1" stop-color="#F78A3B"/>
</linearGradient>
<linearGradient id="paint1_linear_4_181" x1="101.041" y1="19" x2="101.041" y2="65.0811" gradientUnits="userSpaceOnUse">
<stop offset="0.25" stop-color="#FFEE37"/>
<stop offset="1" stop-color="#F78A3B"/>
</linearGradient>
<linearGradient id="paint2_linear_4_181" x1="23.0405" y1="19" x2="23.0405" y2="65.0811" gradientUnits="userSpaceOnUse">
<stop offset="0.25" stop-color="#FFEE37"/>
<stop offset="1" stop-color="#F78A3B"/>
</linearGradient>
</defs>
</svg>
